<svg xmlns="http://www.w3.org/2000/svg" viewBox="0 0 17.47 17.47"><defs><style>.cls-1{fill:#b6b8ba;}</style></defs><title>inst-icon</title><g id="Слой_2" data-name="Слой 2"><g id="Слой_1-2" data-name="Слой 1"><path class="cls-1" d="M12.89,4.92V6a.31.31,0,0,1-.31.31H11.52A.31.31,0,0,1,11.21,6V4.92a.31.31,0,0,1,.31-.31h1.05a.31.31,0,0,1,.31.31m-4,5.29A1.43,1.43,0,1,0,7.43,8.78a1.43,1.43,0,0,0,1.43,1.43m8.61-1.48A8.73,8.73,0,1,1,8.73,0a8.73,8.73,0,0,1,8.73,8.73M13.77,7.32H10.9a2.51,2.51,0,1,1-4.1,0H4v4.4a1.94,1.94,0,0,0,1.94,1.94h5.94a1.94,1.94,0,0,0,1.94-1.94ZM8.86,10.71A1.94,1.94,0,0,0,9.65,7a1.93,1.93,0,0,0-1.6,0,1.88,1.88,0,0,0-.48.31,1.93,1.93,0,0,0,1.27,3.39m4.92-5A1.94,1.94,0,0,0,11.83,3.8H6.52V6.25h-.4V3.8H5.85V6.25h-.4V3.85l-.28.09V6.25h-.4V4.15A1.94,1.94,0,0,0,4,5.74V7H7.07a2.51,2.51,0,0,1,3.58,0h3.13Z"/></g></g></svg>