<svg xmlns="http://www.w3.org/2000/svg" viewBox="0 0 95.44 59.68"><defs><style>.cls-1{fill:#fff;}</style></defs><title>partn-3</title><g id="Слой_2" data-name="Слой 2"><g id="Слой_1-2" data-name="Слой 1"><path class="cls-1" d="M95.38,25.34c-.49-.49-.84,1.2-2.12-.05l-9.4-9.19c-.25-.24-.38-.44-.55-.27a.71.71,0,0,0-.15.37c-.54,2.31-1.59,2.89-1.17,3.3s.87-1.17,2-.05l3.11,3a3.25,3.25,0,0,0-1.76,1,4.6,4.6,0,0,0-.15,5.81c1.27,1.95,4.12,3.73,6.19,1.61a4.14,4.14,0,0,0,1.11-3.18c.79.77,1,1,1.22.8a5.31,5.31,0,0,0,.43-.81c.51-1,1.54-2.1,1.23-2.4m-3.46,2.24A2.5,2.5,0,0,1,91.2,29c-1.27,1.3-3.71.12-4.7-.85s-2.06-2.56-.87-3.78a2.81,2.81,0,0,1,2.68-.7l3.09,3c.31.3.54.44.52.9m-9.69-18C86.35,5.54,85.06,4,85.06,4c-1.2-2.37-5-1.13-6.49-.52A13,13,0,0,0,57.2,16.78a16.92,16.92,0,0,0-2.73,2.89l-.4-.71-.46.23-.35,2.33-2.14,1V23l1.86.52-.36,2.32.48.27L54.64,24l1.91.52.23-.42-.36-.69a19.8,19.8,0,0,0,4.26-1A13,13,0,0,0,82.23,9.53M80,15.16l.07-.2c.1.07.39.08.23.24s-.3,0-.3,0m.18-.49c-.06-.16.15-.38.15-.38l.15.13c-.08.17-.25.41-.3.25m-.64,4.23a.89.89,0,0,0,0-.26l.2.07a1.52,1.52,0,0,1,.22-.29c.08-.07.19.11.19.11a1.81,1.81,0,0,0-.25.41,3,3,0,0,1-.21.43l-.17-.19a.88.88,0,0,1,0-.29m-1,1.71A3.73,3.73,0,0,0,79,20a4.05,4.05,0,0,1,.47-.38,1.74,1.74,0,0,1-.27.45,2.64,2.64,0,0,1-.17.31c-.09.14,0,.21-.16.35s-.49.14-.28-.08m.18-5.16a.21.21,0,0,1-.25-.09l0-.19c.07.08.37.23.21.28m-.18,1.12s0,.09.06.08h.11s0,.17-.07.21-.39-.18-.1-.29m-1.34-1.76,0-.19c.07.08.37.23.21.28a.21.21,0,0,1-.25-.09m-.12-.14a.21.21,0,0,1-.24-.09l0-.19c.07.08.36.23.21.28m-1.36,7c.1-.11.57-.42.57-.31a1,1,0,0,1-.16.34L76,22ZM69.17,21a1.29,1.29,0,0,1,.37-.27,1.94,1.94,0,0,0,.52-.26.63.63,0,0,0,.2-.64.18.18,0,0,1,.07-.21l.2.07,0-.31,0-.2a3,3,0,0,0,.26-.27c.07-.1.19-.07.35,0a1.18,1.18,0,0,0,.51-.07,1.93,1.93,0,0,1-.08-.33c0-.17.2-.36.2-.36s-.23,0-.12-.14.49,0,.49,0l.39-.21c.18-.1.27-.17.38-.14s0,.17,0,.33,0,.33.09.36a2.82,2.82,0,0,0,.7.07l.38-.14c.16-.06.13-.26.09-.35a2.08,2.08,0,0,1-.11-.5c0-.31-.29-.34-.13-.45s.6.47.72.42a.18.18,0,0,0,.11-.18l.17.37.24.16.22.21a3.34,3.34,0,0,1,.56.16,2.7,2.7,0,0,1,1.09.86,1.41,1.41,0,0,1-.17.92,3.26,3.26,0,0,0-.27.85,1,1,0,0,1-.36.49,1.07,1.07,0,0,1-.27.06c-.11,0-.24.23-.33.3a1,1,0,0,1-.41.14c-.17,0-.24-.17-.4-.22a.57.57,0,0,1-.21-.1l-.07-.3a1.82,1.82,0,0,1-.37.56c-.24.23-.2-.18-.2-.18l-.26-.12a1.08,1.08,0,0,0-.4,0,3,3,0,0,0-.47.27,2.75,2.75,0,0,1-.45.23c-.34.16-.19.07-.24.23s-.36.3-.36.3l-.21.11c-.21.11-.09.07-.34.26a1.11,1.11,0,0,1-.53.22l-.23-.24-.09-.25-.17-.08a.7.7,0,0,0-.45-.27,1.08,1.08,0,0,1-.55-.34l.42.17-.1-.18-.27-.26a1.17,1.17,0,0,1-.19-.33c-.07-.19.18-.21.18-.21m7.41-6.3a.21.21,0,0,1-.25-.09l0-.19c.06.08.36.23.21.28M60.34,16.81a1.81,1.81,0,0,1,0-.3.82.82,0,0,1,.25.3c0,.09.12.24,0,.34s-.12.26-.2.14a1.25,1.25,0,0,1-.14-.49M54.7,21.64,55.93,21,55,22.3l.17.31a1.08,1.08,0,0,1-.79-.54l-.63.22a1.84,1.84,0,0,0,1.81,1.08l.14.23-1.36-.36-.83,1.14.2-1.34-1.31-.35L53.88,22l.23-1.48Zm2.72-4.18a13,13,0,0,0,2.72,4.44,13.4,13.4,0,0,1-4.08.79l-.21-.36,1.49-2-.07-.61L55,20.74l-.15-.33a10.13,10.13,0,0,1,2.57-3M69,.8l-.3.36-.19.07-.23,0,0,.2-.2.14a2.43,2.43,0,0,1-.65.19A4.33,4.33,0,0,0,66.22,2c-.85.23-.54.19-.85.34a2.41,2.41,0,0,1-.67.24c-.14,0-.35-.17-.35-.17l0,.27-.39-.18c-.17-.08-.42,0-.8.17a13.46,13.46,0,0,1,2.92-1.43A9.73,9.73,0,0,1,69,.8m.33.74a3,3,0,0,1,.54-.08.17.17,0,0,0-.12.26c.11.21.28.29.15.34a1.06,1.06,0,0,0-.3.25l-.17.13s-.09.35.13.35.22,0,.26.12,0,.25,0,.38a2.18,2.18,0,0,1,0,.53l-.56-.37c-.14-.09-.31-.07-.26-.23a2.38,2.38,0,0,0,.09-.64c0-.14,0-.17-.26,0s-.27.13-.36.2-.18.21,0,.2.06.16-.13.23a2.92,2.92,0,0,1-.52.15,1.09,1.09,0,0,0-.53.22c-.1.11-.09.35-.2.46s-.41.36-.14.41a.88.88,0,0,0,.43,0l.2-.14.26.34a.19.19,0,0,0,0,.22c.07.11,0,.32,0,.42a2.08,2.08,0,0,1,0,.49,1.64,1.64,0,0,1-.2.54c-.08.17-.16.27-.32.29s-.27-.15-.31,0,.07.3,0,.4.07.19-.06.23a1.41,1.41,0,0,0-.29.18s0,.23.17.29a1,1,0,0,1,.26.23.51.51,0,0,1,.12.24.33.33,0,0,1-.18.32.53.53,0,0,0-.22.18s0-.35-.12-.45a.41.41,0,0,1-.1-.29h-.25s0-.11,0-.21-.05-.16-.18-.11a.75.75,0,0,0-.29.28,1.62,1.62,0,0,1-.3.25,2.32,2.32,0,0,0,.11-.4c0-.15,0-.27-.07-.19a1,1,0,0,0-.23.26.25.25,0,0,1-.13.23c-.15.09-.09,0-.15.09a.32.32,0,0,0,.05.34c.06.08.25.3.32.21l.24-.34s.23-.15.24,0a.28.28,0,0,1-.14.3c-.1,0-.25.3-.25.3l.07.19A2,2,0,0,1,66,9.3l.15.13.06.16L66,9.88l.28,0a.92.92,0,0,1,.09.47c0,.19-.07.42-.09.57a1.64,1.64,0,0,1-.23.65c-.12.15-.26.38-.36.49a2,2,0,0,1-.45.34l-.44.26.06.16s-.16.06-.21-.07-.21-.28-.29-.22,0,.3-.17.42-.27,0-.16.34.19.43.35.48.4.11.46.3.06.37.13.46a1.1,1.1,0,0,1,.09.36,1.77,1.77,0,0,1-.21.32.65.65,0,0,1-.25.2l-.11.4-.19-.33-.14-.09s-.18,0-.25-.09a2.08,2.08,0,0,0-.22-.21.91.91,0,0,1-.22,0,.42.42,0,0,1-.21-.18s0,.29,0,.43,0,.22,0,.39.11.21.22.32.23.24.23.24a1.2,1.2,0,0,1,.4.11,1.27,1.27,0,0,1,.38.47,1.14,1.14,0,0,0,.19.33l.26.23a2.18,2.18,0,0,1-.66-.16,1.35,1.35,0,0,1-.41-.46c-.09-.15-.38-.26-.49-.37a1.14,1.14,0,0,1-.22-.42,3.34,3.34,0,0,0-.28-1,4.64,4.64,0,0,1-.36-.51,1.49,1.49,0,0,0-.23.26.5.5,0,0,1-.34.15,1.16,1.16,0,0,0,0-.5,4.3,4.3,0,0,0-.14-.49.84.84,0,0,1-.3-.25,1.72,1.72,0,0,0-.29-.33,1.52,1.52,0,0,0-.36.2c-.17.13-.19.17-.18.28a1.65,1.65,0,0,1-.14.41l-.14.3a.8.8,0,0,0-.11.29.77.77,0,0,1-.11.29l-.19.07.13.38a3,3,0,0,1,.06.58l-.08.28v.18s0,.46-.09.25-.67-1.37-.77-1.66a5.5,5.5,0,0,1-.17-.87l0-.44s-.12.26-.25.2-.07-.3-.07-.3a3.12,3.12,0,0,1-.23-.35,2.24,2.24,0,0,1-.14-.31v-.14s-.25.09-.33,0a2,2,0,0,1-.35-.68c0,.35,0,.78,0,.78l.14-.2a6,6,0,0,1,.21.68c0,.11,0,.48,0,.48a1.74,1.74,0,0,1-.12.58.42.42,0,0,0,0,.33l.12.42s-.14.12-.1.22a1.91,1.91,0,0,0,.12.24s.14.59.14.7a7.06,7.06,0,0,0,.28.79,8.93,8.93,0,0,1-.86-4.13,13.44,13.44,0,0,1,3.7-8.92s0,.32.16.26.36-.09.43-.19A2.07,2.07,0,0,1,62,4.07l.33-.29.26,0a3.42,3.42,0,0,1,.32-.22l.47-.28a1.65,1.65,0,0,1,.49-.24c.35-.12,1.08-.67.74-.23s.17.08.46,0a.7.7,0,0,1,.5,0l.62-.26a5.57,5.57,0,0,1,.63-.33,4.22,4.22,0,0,1,.8-.07l.44-.26a1.58,1.58,0,0,1,.38-.24c.16-.06.36-.2.48-.17a.76.76,0,0,0,.45.05M67.72,17.05l0,.23s0,.2-.06.24a1.45,1.45,0,0,1-.35.12c-.14,0-.6.11-.6.11l-.21-.1a1,1,0,0,0-.25-.2.56.56,0,0,0-.32-.1s-.29-.22-.06-.37l.23-.15s-.08-.12.17-.31.24-.23.26-.37a.79.79,0,0,1,.15-.38c.07-.1.21-.32.21-.32l.15-.2c.11.1.1.18.28.18a.67.67,0,0,0,.34,0c.13,0,.38,0,.17.08a.93.93,0,0,0-.32.29l0,.15a1.14,1.14,0,0,0,.21.28l.28.19-.28.1,0,.3.11.21Zm.93,0,.13.38c0,.1,0,.32-.13.23s-.15-.41-.15-.41l-.28,0a2.73,2.73,0,0,1,0-.37.24.24,0,0,0,0-.2l.08-.39a1.85,1.85,0,0,1,.3-.18L69,16c.16-.05.19-.17.29-.28l-.06.34s-.37.17-.72.29,0,.33.14.27l.44-.16-.28.21A1.14,1.14,0,0,0,69,17c.1.07.41.25.41.25s-.09.14-.2.14a2.31,2.31,0,0,1-.54-.31m.07-10.88c.09.07.36.23.36.23l.11.21.14.38.1.29s0,.16-.15.19-.22.18-.3.25-.1.14-.22.18a1,1,0,0,0-.28.21l-.27.13s0-.12-.15.2-.13.44-.13.44L67.87,9l-.18-.4s-.25-.3.23-.55a1.09,1.09,0,0,0,.59-.57,2.18,2.18,0,0,1,.25-.3c.16-.16.16-.27.16-.27l-.11-.42a.89.89,0,0,0-.16-.26c-.12-.14-.12-.24,0-.31a.56.56,0,0,0,.12-.26V5.55a2,2,0,0,0,.45.06l.16,0a.24.24,0,0,1-.1.21c-.11.08-.33.19-.33.19s-.28,0-.18.1m-.24-1.27,0,.23.24.17-.2.14a2.44,2.44,0,0,1-.3-.43c0-.13-.17-.26-.2-.36s-.25-.49-.11-.5.19.33.3.36.45.16.45.16Zm-1.21,8.18c0,.1.32.21.32.21l.32-.11s0,.17-.1.21-.39.1-.39.1A.81.81,0,0,1,67,13.3a.5.5,0,0,1-.11-.42c0-.18-.09-.36,0-.42a.89.89,0,0,1,.29-.1c.11.1.17.19.09.36a.4.4,0,0,0,0,.36m0,1.36a1.2,1.2,0,0,1-.24.44.26.26,0,0,1-.18.1s.27-.85.45-.95,0,.26,0,.41m-.11-.82h.29s.09.25-.06.24-.23-.24-.23-.24m1-.15c.08-.06.26,0,.26,0l.07.19c0,.1.24.27.06.27a.47.47,0,0,1-.29-.11s-.17-.29-.09-.36m0,1.31c-.09.14-.25,0-.14-.09a3.08,3.08,0,0,0,.37-.38,1.25,1.25,0,0,1,.4-.28c0,.13,0,.17.13.27a.24.24,0,0,1,.08.22l-.15.09.06.16s0,.13-.06.13a.74.74,0,0,1-.3-.14s0-.22-.16-.16-.13,0-.22.19M68,14.25l-.17-.19-.14-.2h.21c.13.06.33,0,.41.14s.11.21,0,.25a.52.52,0,0,1-.29,0m-1.35-2.7a.22.22,0,0,1,0,.27,2.69,2.69,0,0,1-.06-.87c.08-.17.19-.07.24.09s-.23.37-.14.51m-.77,7.09-.25.09s-.22.19-.5-.11a1.65,1.65,0,0,0-.53-.39s-.15,0-.35-.27-.25-.2-.39-.29-.1-.29-.47-.33-.49-.47-.49-.47a1.45,1.45,0,0,0,.53,0l.2.25.46.19s.41,0,.5.11l.25.41a1.41,1.41,0,0,0,.3.14.65.65,0,0,1,.25.2l.3.14Zm-1.09-5.29c-.18,0-.33-.13-.24-.27s.38-.24.43-.08,0,.36-.19.36m5.33,2.43.12.35-.12.18-.21-.39-.13-.27.1-.34,0-.1.21.28a.45.45,0,0,0,0,.29M73.21,1.42l-1.5-.29s0,0,.06.16l0,0,.06,0c.13.06.46.27.46.27a2.39,2.39,0,0,1-.52-.28,1,1,0,0,0-.35.06,2.11,2.11,0,0,1-.41,0c-.18,0-.36-.23-.36-.23a3,3,0,0,1-.42.11c-.17,0-.13-.17-.13-.17l-.32.11a.52.52,0,0,1-.5-.11c-.15-.13-.11-.21.07-.31a8.09,8.09,0,0,1,3.85.6m8.13,8,.46.54A50,50,0,0,1,76,14.48c.11.08.26.17.13.22a.21.21,0,0,1-.24-.09v-.06l-1.26.84,0,.14s.3.25.41.25a2.47,2.47,0,0,1,.48.15l-.44.16a4.06,4.06,0,0,1-.64-.2A.34.34,0,0,0,74,16c-.09.14,0,.38-.16.45a1.45,1.45,0,0,1-.57,0l-.45.23,0-.12-1.37.82a60.87,60.87,0,0,1-10.49,5l-.31-.62a51.21,51.21,0,0,0,6.63-2.85l-.24,0a2.14,2.14,0,0,0-.57-.09,6,6,0,0,1-.64,0c.22-.19.45-.34.62-.26a.53.53,0,0,0,.46,0c.16-.06.73-.15.73-.15l0,.13.49-.14h0c.92-.48,1.85-1,2.8-1.55l1.28-.77-.18,0-.39.1c-.09,0-.4.07-.47,0s0-.09.15-.2,0-.2,0-.2l-.07.1A1.81,1.81,0,0,1,71,16c-.17,0-.13-.17-.07-.3s.21-.11.32-.11a.86.86,0,0,1,.28.08l.22.32s.2.07.23,0a.82.82,0,0,1,.2-.35,1.25,1.25,0,0,0,.17-.24,1.7,1.7,0,0,1,.3,0,2,2,0,0,0,.7-.14,2.38,2.38,0,0,1,.46-.07,54,54,0,0,0,7.58-5.75M82,8.78A13,13,0,0,0,79.09,4c4.32-1.6,5.15,0,5.15,0,1.21,1-1.06,3.55-2.24,4.72M50.26,19.46l2.17.37V17.62l-6.28-1.31v2.46l2.17.41v18.9l1.94-.4ZM42.1,39.4l3.11-.66V16.12l-1.95-.41V35.79H43.2L40.52,15.2l-3.26-.73V40.42l1.95-.35V17.73h.07Zm-5.17,13a.71.71,0,0,0-.74.77v5.64a.74.74,0,1,0,1.49,0V56.68H40.8v2.17a.74.74,0,1,0,1.49,0V53.21a.74.74,0,1,0-1.49,0v2.1H37.68v-2.1a.71.71,0,0,0-.74-.77M34.35,41.11l2.45-.55-3.94-27-3.78-.79L24.59,43.24l2.63-.57,1.28-9.61,4.74-.42ZM32.78,29.38l-3.8.17,1.87-13.29h.08ZM22,43.79l3.61-31.69-2.66-.53L20.51,36.51h-.08L17.84,10.43,15,9.89l4,34.58ZM16.64,45,11.36,9.12l-5-1-6,40.37,3.27-.7L5.45,35.12l6.62-.6,1.47,11.15ZM11.48,30.22l-5.43.17L8.75,12.71h.09ZM0,56a3.42,3.42,0,1,0,6.83,0,3.47,3.47,0,0,0-3.41-3.65A3.42,3.42,0,0,0,0,56m1.55,0c0-1.2.63-2.28,1.87-2.28S5.28,54.83,5.28,56s-.6,2.28-1.87,2.28S1.55,57.24,1.55,56m5.91-2.82v3.54a2.93,2.93,0,0,0,3,2.93,3,3,0,0,0,3-2.93V53.21a.74.74,0,1,0-1.49,0v3.46a1.56,1.56,0,0,1-1.52,1.64A1.52,1.52,0,0,1,9,56.68V53.21a.74.74,0,1,0-1.49,0m6.4,0a.64.64,0,0,0,.67.68h1.08v5a.74.74,0,1,0,1.49,0v-5h1.08a.64.64,0,0,0,.67-.68.66.66,0,0,0-.67-.68H14.53a.66.66,0,0,0-.67.68M21.57,56a3.42,3.42,0,1,0,6.83,0A3.47,3.47,0,0,0,25,52.38,3.42,3.42,0,0,0,21.57,56m1.55,0c0-1.2.63-2.28,1.87-2.28s1.87,1.08,1.87,2.28-.61,2.28-1.87,2.28S23.12,57.24,23.12,56m6-2.76v5.58a.74.74,0,1,0,1.49,0V56.68h1.54a.68.68,0,0,0,.71-.69.67.67,0,0,0-.71-.67H30.61V53.87h1.83a.68.68,0,0,0,0-1.37H29.9a.74.74,0,0,0-.77.77M43,56a3.42,3.42,0,1,0,6.83,0,3.47,3.47,0,0,0-3.41-3.65A3.42,3.42,0,0,0,43,56m1.55,0c0-1.2.63-2.28,1.87-2.28s1.87,1.08,1.87,2.28-.61,2.28-1.87,2.28S44.56,57.24,44.56,56m5.65,2.71a1.14,1.14,0,0,0,0,.17.69.69,0,0,0,.71.71c.51,0,.71-.23.77-.69l.58-4h0L53.48,59a.84.84,0,0,0,1.59,0l1.19-4.16h0l.59,4c.07.47.27.69.77.69a.69.69,0,0,0,.71-.71,1.14,1.14,0,0,0,0-.17l-.92-5.54a1,1,0,0,0-1-.76,1.06,1.06,0,0,0-1,.71l-1.17,3.93h0l-1.17-3.93a1.06,1.06,0,0,0-1-.71,1,1,0,0,0-1,.76Zm8.9-5.38v5.46a.72.72,0,0,0,.76.75h2.56a.67.67,0,0,0,.71-.68.66.66,0,0,0-.71-.68H60.59V56.68h1.63a.68.68,0,0,0,.72-.68.67.67,0,0,0-.72-.68H60.59V53.87h1.75a.67.67,0,0,0,.71-.68.66.66,0,0,0-.71-.68H59.87c-.53,0-.77.36-.77.86m.58-11.57c4.6,0,6.88-3.3,6.88-4.16,0-.13-.2-.24-.3-.24-.56,0-2,2.84-5.37,2.86-4.13,0-5.88-4.26-5.9-7.3S56.71,27,59.89,27c2.51,0,4.42,1.86,5.51,3.93.15.28.31.74.65.73s.28-.5.26-.72l-.41-4.1c0-.11-.15-.13-.26-.13-.3,0-.32.72-.73.72-.65,0-2.32-1.31-4.94-1.3-5.45,0-7.65,4.81-7.63,8.45,0,1.71,1,7.24,7.34,7.21m6.48,17a.93.93,0,0,0,0,.17.69.69,0,0,0,.72.71c.51,0,.71-.23.77-.69l.59-4h0L69.43,59A.84.84,0,0,0,71,59l1.19-4.16h0l.59,4c.07.47.27.69.77.69a.69.69,0,0,0,.71-.71,1,1,0,0,0,0-.17l-.92-5.54a1,1,0,0,0-1-.76,1.06,1.06,0,0,0-1,.71l-1.17,3.93h0L69,53.15a1.06,1.06,0,0,0-1-.71,1,1,0,0,0-1,.76ZM74,38.65a1.44,1.44,0,0,0,1.68.95c.76-.18,1.86-1.23,1.76-1.65a.21.21,0,0,0-.28-.14c-.15,0-.39.21-.65.27-.55.13-.63-.11-.88-1.16l-.88-3.61C74.26,31.18,73,30.47,70.83,31c-1.47.36-3.7,1.53-3.25,3.36a.49.49,0,0,0,.65.31c.15,0,1.49-.37,1.25-1.35s-.12-1.22.68-1.41c1.66-.4,2.12.84,2.56,2.65-2,1.07-4.74,2.11-4.1,4.7a2,2,0,0,0,2.46,1.49,5.7,5.7,0,0,0,3-2.08m-.46-.6c.12.48-.88,1-1.34,1.08-1.09.27-1.37-.78-1.45-1.11-.34-1.41,1.14-2.53,2-2.73.19,0,.19.15.33.72Zm1.47,15.32v5.46a.72.72,0,0,0,.76.75h2.56a.67.67,0,0,0,.7-.68.66.66,0,0,0-.7-.68H76.54V56.68h1.63a.68.68,0,0,0,.72-.68.67.67,0,0,0-.72-.68H76.54V53.87h1.75a.67.67,0,0,0,.71-.68.66.66,0,0,0-.71-.68H75.82c-.52,0-.77.36-.77.86m4.6-15.44c.08.15.17.15.43,0,.48-.24,1-.6,1.92-1.05.64-.32,1.78-.79,2.24-1a.35.35,0,0,0,.13-.47c-.28-.56-1.79.92-2.68-.86L80.4,32c-.08-.15-.87-1.6.19-2.13s1.55.19,1.93,0,.55-1.41.2-2.12a2.56,2.56,0,0,0-2.15-.48c-.48.24-.82,1.3-1.17,2.74l-.74-1.49c-.13-.25-.19-.39-.43-.27a8.28,8.28,0,0,1-1.67,1.88c-.59.51-.87.68-.72,1,.27.54,1.24-.62,1.7.31l2.27,4.54c.71,1.43-.46,1.39-.17,2m.11,15.34v5.56a.73.73,0,0,0,.78.75h1.73a3.21,3.21,0,0,0,3.39-3.43,3.29,3.29,0,0,0-3.49-3.63H80.52a.73.73,0,0,0-.76.76m1.49.61h.9c1.37,0,2,.92,2,2.19s-.59,2.13-1.87,2.13h-1Zm5.19-.65v5.64a.74.74,0,1,0,1.49,0V53.21a.74.74,0,1,0-1.49,0m2,5.39a.85.85,0,0,0-.07.33.71.71,0,0,0,.74.69.69.69,0,0,0,.71-.53l.3-.92h2.76l.3.93a.7.7,0,0,0,.72.52.66.66,0,0,0,.68-.65,1.14,1.14,0,0,0-.08-.37l-1.94-5.4a1.12,1.12,0,0,0-1.06-.82,1.16,1.16,0,0,0-1.06.82Zm2.1-1.8.94-2.88h0l.92,2.88Z"/></g></g></svg>