<svg xmlns="http://www.w3.org/2000/svg" viewBox="0 0 92.37 66.13"><defs><style>.cls-1{fill:#fff;}.cls-2,.cls-3,.cls-4,.cls-5{fill:none;stroke:#fff;}.cls-2,.cls-3{stroke-width:0.05px;}.cls-3{stroke-miterlimit:10;}.cls-4{stroke-width:0.04px;}.cls-5{stroke-width:0.03px;}</style></defs><title>partn-4</title><g id="Слой_2" data-name="Слой 2"><g id="Слой_1-2" data-name="Слой 1"><path class="cls-1" d="M57.29,33.28a25.35,25.35,0,0,1-3,3.32,26.38,26.38,0,0,1-3.14,2.53,9.79,9.79,0,0,1-2.26,1.13,6.54,6.54,0,0,1-2.09.39A6.3,6.3,0,0,1,46,40.6a1.88,1.88,0,0,1-.79-.28,2,2,0,0,1-.61-.59,1.73,1.73,0,0,1-.25-1,5.45,5.45,0,0,1,.55-2q.55-1.27,1.3-2.62t1.48-2.59c.5-.82.89-1.45,1.18-1.86a2.08,2.08,0,0,1,1-.76,3,3,0,0,1,.91-.31c.18,0,.28.06.28.17a1.09,1.09,0,0,1-.08.34,1,1,0,0,1-.19.34q-.71,1.13-1.46,2.48t-1.35,2.62a20.8,20.8,0,0,0-1,2.34,5.73,5.73,0,0,0-.36,1.69,1.24,1.24,0,0,0,.36,1,1.42,1.42,0,0,0,1,.31,5,5,0,0,0,2.42-.76A19.1,19.1,0,0,0,53,37.28,25.35,25.35,0,0,0,55.37,35a21.66,21.66,0,0,0,1.71-2q.27-.28.3-.14a.82.82,0,0,1-.08.42"/><path class="cls-2" d="M57.29,33.28a25.35,25.35,0,0,1-3,3.32,26.38,26.38,0,0,1-3.14,2.53,9.79,9.79,0,0,1-2.26,1.13,6.54,6.54,0,0,1-2.09.39A6.3,6.3,0,0,1,46,40.6a1.88,1.88,0,0,1-.79-.28,2,2,0,0,1-.61-.59,1.73,1.73,0,0,1-.25-1,5.45,5.45,0,0,1,.55-2q.55-1.27,1.3-2.62t1.48-2.59c.5-.82.89-1.45,1.18-1.86a2.08,2.08,0,0,1,1-.76,3,3,0,0,1,.91-.31c.18,0,.28.06.28.17a1.09,1.09,0,0,1-.08.34,1,1,0,0,1-.19.34q-.71,1.13-1.46,2.48t-1.35,2.62a20.8,20.8,0,0,0-1,2.34,5.73,5.73,0,0,0-.36,1.69,1.24,1.24,0,0,0,.36,1,1.42,1.42,0,0,0,1,.31,5,5,0,0,0,2.42-.76A19.1,19.1,0,0,0,53,37.28,25.35,25.35,0,0,0,55.37,35a21.66,21.66,0,0,0,1.71-2q.27-.28.3-.14a.82.82,0,0,1-.08.42"/><path class="cls-1" d="M71.77,33.28a30,30,0,0,1-2.29,2.78,20.48,20.48,0,0,1-2.75,2.5,17,17,0,0,1-3,1.82,6.89,6.89,0,0,1-2.94.72,3.62,3.62,0,0,1-1.21-.19.89.89,0,0,1-.55-1,4.87,4.87,0,0,1,.55-2c.36-.79.79-1.62,1.29-2.5s1-1.78,1.54-2.7a23.86,23.86,0,0,0,1.29-2.53.62.62,0,0,0,0-.47c-.06-.13-.17-.14-.36,0a17.19,17.19,0,0,0-1.43,1q-.83.66-1.68,1.4t-1.65,1.51a17,17,0,0,0-1.3,1.38q-.88,1.38-1.51,2.53t-1.57,2.59c-.15.22-.26.33-.33.33s-.34-.2-.47-.61a3.57,3.57,0,0,1-.19-.77A2.49,2.49,0,0,1,54,37.82l1.51-1.9q.88-1.76,1.82-3.71t1.6-3.5a.54.54,0,0,1,.49-.28,1,1,0,0,1,.88.88,6.15,6.15,0,0,1-.8,1.51,27,27,0,0,0-1.57,3q1-.93,2.28-2t2.37-1.93q1.13-.88,2-1.46a2.79,2.79,0,0,1,1.18-.58.54.54,0,0,1,.41.25.79.79,0,0,1,.19.47,1.48,1.48,0,0,1-.27.66q-.61.88-1.49,2.26t-1.68,2.83a30.1,30.1,0,0,0-1.35,2.78A5.89,5.89,0,0,0,61,39.23a1.19,1.19,0,0,0,.28.91,1.29,1.29,0,0,0,.88.25,4.66,4.66,0,0,0,2.2-.71A19.94,19.94,0,0,0,67,37.88a22.38,22.38,0,0,0,2.56-2.39,18.7,18.7,0,0,0,2-2.53.25.25,0,0,1,.33-.08c.15.05.13.19-.05.41"/><path class="cls-2" d="M71.77,33.28a30,30,0,0,1-2.29,2.78,20.48,20.48,0,0,1-2.75,2.5,17,17,0,0,1-3,1.82,6.89,6.89,0,0,1-2.94.72,3.62,3.62,0,0,1-1.21-.19.89.89,0,0,1-.55-1,4.87,4.87,0,0,1,.55-2c.36-.79.79-1.62,1.29-2.5s1-1.78,1.54-2.7a23.86,23.86,0,0,0,1.29-2.53.62.62,0,0,0,0-.47c-.06-.13-.17-.14-.36,0a17.19,17.19,0,0,0-1.43,1q-.83.66-1.68,1.4t-1.65,1.51a17,17,0,0,0-1.3,1.38q-.88,1.38-1.51,2.53t-1.57,2.59c-.15.22-.26.33-.33.33s-.34-.2-.47-.61a3.57,3.57,0,0,1-.19-.77A2.49,2.49,0,0,1,54,37.82l1.51-1.9q.88-1.76,1.82-3.71t1.6-3.5a.54.54,0,0,1,.49-.28,1,1,0,0,1,.88.88,6.15,6.15,0,0,1-.8,1.51,27,27,0,0,0-1.57,3q1-.93,2.28-2t2.37-1.93q1.13-.88,2-1.46a2.79,2.79,0,0,1,1.18-.58.54.54,0,0,1,.41.25.79.79,0,0,1,.19.47,1.48,1.48,0,0,1-.27.66q-.61.88-1.49,2.26t-1.68,2.83a30.1,30.1,0,0,0-1.35,2.78A5.89,5.89,0,0,0,61,39.23a1.19,1.19,0,0,0,.28.91,1.29,1.29,0,0,0,.88.25,4.66,4.66,0,0,0,2.2-.71A19.94,19.94,0,0,0,67,37.88a22.38,22.38,0,0,0,2.56-2.39,18.7,18.7,0,0,0,2-2.53.25.25,0,0,1,.33-.08c.15.05.13.19-.05.41"/><path class="cls-1" d="M76.95,29.62c0-.45-.24-.67-.72-.67a2,2,0,0,0-1.13.39,6,6,0,0,0-1.13,1,13.41,13.41,0,0,0-1,1.35,11.21,11.21,0,0,0-.83,1.4,1.19,1.19,0,0,0,.38.08l.44,0a4.13,4.13,0,0,0,2.8-1.06,3.25,3.25,0,0,0,1.21-2.51m5.78,4a24.83,24.83,0,0,1-2.23,2.26A20.83,20.83,0,0,1,77.69,38a16.48,16.48,0,0,1-3.14,1.55,9.34,9.34,0,0,1-3.22.6q-2.59,0-2.59-2.18a7.38,7.38,0,0,1,.8-3.14,13.43,13.43,0,0,1,4.84-5.49,5.41,5.41,0,0,1,2.89-1,1.69,1.69,0,0,1,1.07.26.85.85,0,0,1,.3.67,2.73,2.73,0,0,1-.41,1.35A4.77,4.77,0,0,1,77,32.08a7.15,7.15,0,0,1-2.09,1.09,9.2,9.2,0,0,1-3,.44,8.11,8.11,0,0,0-.6,1.48,6.57,6.57,0,0,0-.33,2q0,2.13,2,2.13a6.67,6.67,0,0,0,2.61-.57,15.21,15.21,0,0,0,2.62-1.43,18.47,18.47,0,0,0,2.34-1.87,19.78,19.78,0,0,0,1.79-1.89.23.23,0,0,1,.25-.05.2.2,0,0,1,.14.21"/><path class="cls-2" d="M76.95,29.62c0-.45-.24-.67-.72-.67a2,2,0,0,0-1.13.39,6,6,0,0,0-1.13,1,13.41,13.41,0,0,0-1,1.35,11.21,11.21,0,0,0-.83,1.4,1.19,1.19,0,0,0,.38.08l.44,0a4.13,4.13,0,0,0,2.8-1.06,3.25,3.25,0,0,0,1.21-2.51m5.78,4a24.83,24.83,0,0,1-2.23,2.26A20.83,20.83,0,0,1,77.69,38a16.48,16.48,0,0,1-3.14,1.55,9.34,9.34,0,0,1-3.22.6q-2.59,0-2.59-2.18a7.38,7.38,0,0,1,.8-3.14,13.43,13.43,0,0,1,4.84-5.49,5.41,5.41,0,0,1,2.89-1,1.69,1.69,0,0,1,1.07.26.85.85,0,0,1,.3.67,2.73,2.73,0,0,1-.41,1.35A4.77,4.77,0,0,1,77,32.08a7.15,7.15,0,0,1-2.09,1.09,9.2,9.2,0,0,1-3,.44,8.11,8.11,0,0,0-.6,1.48,6.57,6.57,0,0,0-.33,2q0,2.13,2,2.13a6.67,6.67,0,0,0,2.61-.57,15.21,15.21,0,0,0,2.62-1.43,18.47,18.47,0,0,0,2.34-1.87,19.78,19.78,0,0,0,1.79-1.89.23.23,0,0,1,.25-.05.2.2,0,0,1,.14.21"/><path class="cls-1" d="M24.2,55.6l0,0a43.42,43.42,0,0,0,5.55-7.86q1.92-3.28,3.74-6.51T37,35c1.07-2,3-5.36,3.28-5.86,1.9-3.28,3.55-6.41,5.24-9.25s3.43-5.62,5.24-8.33q1.47-2.22,3.15-4.31a34.13,34.13,0,0,1,3.42-3.69A18.23,18.23,0,0,1,60.72,1,6.76,6.76,0,0,1,64,0a3.62,3.62,0,0,1,1.9.49,1.37,1.37,0,0,1,.82,1.14,5.86,5.86,0,0,1-.08.76c-.05.36-.11.76-.16,1.19l-.16,1.3a8.25,8.25,0,0,0-.08,1A.37.37,0,0,1,66,6a.32.32,0,0,1-.22-.11,4.86,4.86,0,0,0,.14-.76c0-.22,0-.43,0-.65A1.91,1.91,0,0,0,65,2.79a4.54,4.54,0,0,0-2.52-.6,7.88,7.88,0,0,0-2.36.38,8.08,8.08,0,0,0-2.49,1.36A17.56,17.56,0,0,0,55,6.54a29.11,29.11,0,0,0-2.85,4.12q-.82,1.41-2,3.64L47.56,19q-1.36,2.52-2.71,5.16c-.9,1.76-1.68,3.42-2.5,4.91.55-1-2.72,5.24-4,7.57s-2.64,4.59-4,6.76A113.94,113.94,0,0,1,24.58,56m0,0a51,51,0,0,1-7,5.86,26.89,26.89,0,0,1-6.21,3.26,16.89,16.89,0,0,1-5.51,1,9.18,9.18,0,0,1-1.66-.16,5.35,5.35,0,0,1-1.74-.65A4.92,4.92,0,0,1,1,63.91a6.3,6.3,0,0,1-1-2.36c0-.29,0-.42.11-.38a.61.61,0,0,1,.22.32,2.91,2.91,0,0,0,.43,1A5,5,0,0,0,1.9,63.72a6.48,6.48,0,0,0,1.82,1,7.49,7.49,0,0,0,2.61.41,20.19,20.19,0,0,0,5.29-.9,22,22,0,0,0,6-3A42,42,0,0,0,24.2,55.6"/><path class="cls-3" d="M24.2,55.6l0,0a43.42,43.42,0,0,0,5.55-7.86q1.92-3.28,3.74-6.51T37,35c1.07-2,3-5.36,3.28-5.86,1.9-3.28,3.55-6.41,5.24-9.25s3.43-5.62,5.24-8.33q1.47-2.22,3.15-4.31a34.13,34.13,0,0,1,3.42-3.69A18.23,18.23,0,0,1,60.72,1,6.76,6.76,0,0,1,64,0a3.62,3.62,0,0,1,1.9.49,1.37,1.37,0,0,1,.82,1.14,5.86,5.86,0,0,1-.08.76c-.05.36-.11.76-.16,1.19l-.16,1.3a8.25,8.25,0,0,0-.08,1A.37.37,0,0,1,66,6a.32.32,0,0,1-.22-.11,4.86,4.86,0,0,0,.14-.76c0-.22,0-.43,0-.65A1.91,1.91,0,0,0,65,2.79a4.54,4.54,0,0,0-2.52-.6,7.88,7.88,0,0,0-2.36.38,8.08,8.08,0,0,0-2.49,1.36A17.56,17.56,0,0,0,55,6.54a29.11,29.11,0,0,0-2.85,4.12q-.82,1.41-2,3.64L47.56,19q-1.36,2.52-2.71,5.16c-.9,1.76-1.68,3.42-2.5,4.91.55-1-2.72,5.24-4,7.57s-2.64,4.59-4,6.76A113.94,113.94,0,0,1,24.58,56m0,0a51,51,0,0,1-7,5.86,26.89,26.89,0,0,1-6.21,3.26,16.89,16.89,0,0,1-5.51,1,9.18,9.18,0,0,1-1.66-.16,5.35,5.35,0,0,1-1.74-.65A4.92,4.92,0,0,1,1,63.91a6.3,6.3,0,0,1-1-2.36c0-.29,0-.42.11-.38a.61.61,0,0,1,.22.32,2.91,2.91,0,0,0,.43,1A5,5,0,0,0,1.9,63.72a6.48,6.48,0,0,0,1.82,1,7.49,7.49,0,0,0,2.61.41,20.19,20.19,0,0,0,5.29-.9,22,22,0,0,0,6-3A42,42,0,0,0,24.2,55.6"/><path class="cls-1" d="M49.44,52.77c.07.56.19,1.44.92,1.66a4.07,4.07,0,0,0,1.11.14c.09,0,.14,0,.14.08s-.15.14-.36.14c-.37,0-2.22,0-2.86-.09-.39,0-.48-.08-.48-.16s0-.09.12-.11.1-.28.07-.56l-.82-8.06h0L43,53.93c-.36.69-.41.83-.57.83s-.21-.16-.53-.72c-.45-.77-1.92-3.47-2-3.62s-2.07-4-2.26-4.45h-.07l-.68,7.25c0,.25,0,.53,0,.8a.51.51,0,0,0,.45.48,3.41,3.41,0,0,0,.65.08c.07,0,.14,0,.14.08s-.1.14-.31.14c-.63,0-1.45,0-1.59,0s-1,0-1.44,0c-.17,0-.29,0-.29-.14s.09-.08.17-.08a2.39,2.39,0,0,0,.51,0c.57-.09.62-.7.68-1.3L37.12,43c0-.17.09-.28.19-.28s.17.06.26.24l5.24,9.82,5-9.81c.07-.14.14-.25.26-.25s.17.13.21.42Z"/><path class="cls-4" d="M49.44,52.77c.07.56.19,1.44.92,1.66a4.07,4.07,0,0,0,1.11.14c.09,0,.14,0,.14.08s-.15.14-.36.14c-.37,0-2.22,0-2.86-.09-.39,0-.48-.08-.48-.16s0-.09.12-.11.1-.28.07-.56l-.82-8.06h0L43,53.93c-.36.69-.41.83-.57.83s-.21-.16-.53-.72c-.45-.77-1.92-3.47-2-3.62s-2.07-4-2.26-4.45h-.07l-.68,7.25c0,.25,0,.53,0,.8a.51.51,0,0,0,.45.48,3.41,3.41,0,0,0,.65.08c.07,0,.14,0,.14.08s-.1.14-.31.14c-.63,0-1.45,0-1.59,0s-1,0-1.44,0c-.17,0-.29,0-.29-.14s.09-.08.17-.08a2.39,2.39,0,0,0,.51,0c.57-.09.62-.7.68-1.3L37.12,43c0-.17.09-.28.19-.28s.17.06.26.24l5.24,9.82,5-9.81c.07-.14.14-.25.26-.25s.17.13.21.42Z"/><path class="cls-1" d="M52.91,47.51c0-2.44,0-2.87,0-3.37s-.17-.78-.74-.89a3.52,3.52,0,0,0-.58,0c-.07,0-.14,0-.14-.09s.08-.12.27-.12c.77,0,1.81,0,2,0s1.18,0,1.7,0c.19,0,.27,0,.27.12s-.07.09-.14.09a2.78,2.78,0,0,0-.43,0c-.46.06-.6.34-.63.89s0,.94,0,3.37v2.19c0,2.25.55,3.22,1.28,3.86a3.55,3.55,0,0,0,2.59.86A3.74,3.74,0,0,0,61,53.29a5.66,5.66,0,0,0,1-3.83v-2c0-2.44,0-2.87,0-3.37s-.17-.78-.74-.89a3.5,3.5,0,0,0-.58,0c-.07,0-.14,0-.14-.09s.09-.12.27-.12c.77,0,1.71,0,1.81,0s.92,0,1.44,0c.19,0,.27,0,.27.12s-.07.09-.14.09a2.77,2.77,0,0,0-.43,0c-.46.09-.6.34-.63.89s0,.94,0,3.37v1.67c0,1.69-.2,3.56-1.57,4.67A5.32,5.32,0,0,1,57.92,55a5.61,5.61,0,0,1-3.53-1.11c-.84-.73-1.49-1.83-1.49-4.11Z"/><path class="cls-4" d="M52.91,47.51c0-2.44,0-2.87,0-3.37s-.17-.78-.74-.89a3.52,3.52,0,0,0-.58,0c-.07,0-.14,0-.14-.09s.08-.12.27-.12c.77,0,1.81,0,2,0s1.18,0,1.7,0c.19,0,.27,0,.27.12s-.07.09-.14.09a2.78,2.78,0,0,0-.43,0c-.46.06-.6.34-.63.89s0,.94,0,3.37v2.19c0,2.25.55,3.22,1.28,3.86a3.55,3.55,0,0,0,2.59.86A3.74,3.74,0,0,0,61,53.29a5.66,5.66,0,0,0,1-3.83v-2c0-2.44,0-2.87,0-3.37s-.17-.78-.74-.89a3.5,3.5,0,0,0-.58,0c-.07,0-.14,0-.14-.09s.09-.12.27-.12c.77,0,1.71,0,1.81,0s.92,0,1.44,0c.19,0,.27,0,.27.12s-.07.09-.14.09a2.77,2.77,0,0,0-.43,0c-.46.09-.6.34-.63.89s0,.94,0,3.37v1.67c0,1.69-.2,3.56-1.57,4.67A5.32,5.32,0,0,1,57.92,55a5.61,5.61,0,0,1-3.53-1.11c-.84-.73-1.49-1.83-1.49-4.11Z"/><path class="cls-1" d="M66.14,54.58c-.24-.11-.26-.17-.26-.59,0-.78.07-1.41.09-1.66s.05-.25.14-.25.12,0,.12.17a2.48,2.48,0,0,0,.05.58,2.32,2.32,0,0,0,2.53,1.59,2.2,2.2,0,0,0,2.45-2.08c0-1.08-.5-1.7-2-2.81L68.52,49c-1.81-1.36-2.22-2.33-2.22-3.39,0-1.67,1.37-2.81,3.54-2.81a7.29,7.29,0,0,1,1.59.16A3,3,0,0,0,72,43c.14,0,.17,0,.17.11s-.07.59-.07,1.66c0,.25,0,.36-.12.36s-.12-.08-.14-.2a2.54,2.54,0,0,0-.22-.78c-.1-.17-.56-.83-2.14-.83a1.88,1.88,0,0,0-2.1,1.81c0,.89.44,1.45,2.09,2.62l.48.34c2,1.45,2.5,2.42,2.5,3.67A3.15,3.15,0,0,1,71,54.35a4.83,4.83,0,0,1-2.58.66,5.63,5.63,0,0,1-2.29-.42"/><path class="cls-4" d="M66.14,54.58c-.24-.11-.26-.17-.26-.59,0-.78.07-1.41.09-1.66s.05-.25.14-.25.12,0,.12.17a2.48,2.48,0,0,0,.05.58,2.32,2.32,0,0,0,2.53,1.59,2.2,2.2,0,0,0,2.45-2.08c0-1.08-.5-1.7-2-2.81L68.52,49c-1.81-1.36-2.22-2.33-2.22-3.39,0-1.67,1.37-2.81,3.54-2.81a7.29,7.29,0,0,1,1.59.16A3,3,0,0,0,72,43c.14,0,.17,0,.17.11s-.07.59-.07,1.66c0,.25,0,.36-.12.36s-.12-.08-.14-.2a2.54,2.54,0,0,0-.22-.78c-.1-.17-.56-.83-2.14-.83a1.88,1.88,0,0,0-2.1,1.81c0,.89.44,1.45,2.09,2.62l.48.34c2,1.45,2.5,2.42,2.5,3.67A3.15,3.15,0,0,1,71,54.35a4.83,4.83,0,0,1-2.58.66A5.63,5.63,0,0,1,66.14,54.58Z"/><path class="cls-1" d="M77.54,50.26c0,1.5,0,2.73.09,3.39.05.45.15.8.67.86.24,0,.62.06.77.06s.14,0,.14.09-.08.13-.27.13c-.94,0-2,0-2.1,0s-1.16,0-1.68,0c-.19,0-.27,0-.27-.13s0-.09.14-.09a2.93,2.93,0,0,0,.51-.06c.34-.06.43-.41.49-.86.09-.66.09-1.89.09-3.39V47.51c0-2.44,0-2.87,0-3.37s-.21-.8-.58-.87A2.52,2.52,0,0,0,75,43.2c-.07,0-.14,0-.14-.1s.09-.12.27-.12c.57,0,1.64,0,1.73,0S78,43,78.5,43c.19,0,.27,0,.27.12s-.07.1-.14.1a2.78,2.78,0,0,0-.43,0c-.46.08-.6.34-.63.89s0,.94,0,3.37Z"/><path class="cls-4" d="M77.54,50.26c0,1.5,0,2.73.09,3.39.05.45.15.8.67.86.24,0,.62.06.77.06s.14,0,.14.09-.08.13-.27.13c-.94,0-2,0-2.1,0s-1.16,0-1.68,0c-.19,0-.27,0-.27-.13s0-.09.14-.09a2.93,2.93,0,0,0,.51-.06c.34-.06.43-.41.49-.86.09-.66.09-1.89.09-3.39V47.51c0-2.44,0-2.87,0-3.37s-.21-.8-.58-.87A2.52,2.52,0,0,0,75,43.2c-.07,0-.14,0-.14-.1s.09-.12.27-.12c.57,0,1.64,0,1.73,0S78,43,78.5,43c.19,0,.27,0,.27.12s-.07.1-.14.1a2.78,2.78,0,0,0-.43,0c-.46.08-.6.34-.63.89s0,.94,0,3.37Z"/><path class="cls-1" d="M82.8,53.32a5.72,5.72,0,0,1-2.07-4.62,6,6,0,0,1,1.92-4.26,7.3,7.3,0,0,1,5.22-1.67,16,16,0,0,1,2.48.19,16.27,16.27,0,0,0,1.75.23c.19,0,.22.08.22.17s-.05.31-.08.88,0,1.38-.05,1.61,0,.33-.15.33-.14-.11-.14-.33a2.07,2.07,0,0,0-.72-1.59,6.09,6.09,0,0,0-3.42-.89c-2.28,0-3.34.61-3.94,1.14a5,5,0,0,0-1.54,4.08,5.91,5.91,0,0,0,6.18,5.72,4.21,4.21,0,0,0,3-.78,2.86,2.86,0,0,0,.63-1.31c0-.17.07-.23.17-.23s.12.11.12.23a14.93,14.93,0,0,1-.38,2c-.1.3-.14.33-.45.45a10.8,10.8,0,0,1-3.08.36,8.38,8.38,0,0,1-5.65-1.69"/><path class="cls-4" d="M82.8,53.32a5.72,5.72,0,0,1-2.07-4.62,6,6,0,0,1,1.92-4.26,7.3,7.3,0,0,1,5.22-1.67,16,16,0,0,1,2.48.19,16.27,16.27,0,0,0,1.75.23c.19,0,.22.08.22.17s-.05.31-.08.88,0,1.38-.05,1.61,0,.33-.15.33-.14-.11-.14-.33a2.07,2.07,0,0,0-.72-1.59,6.09,6.09,0,0,0-3.42-.89c-2.28,0-3.34.61-3.94,1.14a5,5,0,0,0-1.54,4.08,5.91,5.91,0,0,0,6.18,5.72,4.21,4.21,0,0,0,3-.78,2.86,2.86,0,0,0,.63-1.31c0-.17.07-.23.17-.23s.12.11.12.23a14.93,14.93,0,0,1-.38,2c-.1.3-.14.33-.45.45a10.8,10.8,0,0,1-3.08.36A8.38,8.38,0,0,1,82.8,53.32Z"/><path class="cls-1" d="M28.48,29.06c-3.12.08-10.27.12-12.08.2a31.36,31.36,0,0,0-4.36.45,6.92,6.92,0,0,0-2.57,1,19,19,0,0,0-2.14,1.76L7,32.38a12.12,12.12,0,0,1,3.07-2.53,8.72,8.72,0,0,1,2.84-1q.87-.1,2.34-.19t3.16-.13l3.32-.08c1.09,0,20.11.06,21.71.07l4.35,0,2.72,0c.36.11.47.28.32.52l-2.18,0H34.28"/><path class="cls-1" d="M10.77,34.88c-.19.59-.34,1-.39,1.3s0,.31.14.34l.3,0c.08,0,.1,0,.09,0s-.06.06-.16.06l-.95,0-.8,0c-.09,0-.13,0-.11-.06s0,0,.11,0a1.1,1.1,0,0,0,.23,0c.13,0,.21-.16.29-.34s.26-.71.46-1.3l.35-1.07c.3-.93.36-1.1.41-1.29s0-.31-.16-.35l-.24,0c-.06,0-.1,0-.09,0s.07-.06.16-.06H13a1.24,1.24,0,0,0,.26,0,.53.53,0,0,1,.11,0s0,0,0,.05-.07.12-.14.27-.16.42-.19.49,0,.09-.09.09,0,0,0-.1a.62.62,0,0,0,0-.23c0-.08-.12-.18-.35-.18l-1,0s-.06,0-.08.09L11.07,34s0,.05,0,.05h1.09a.45.45,0,0,0,.3-.11s.06-.06.1-.06,0,0,0,.05-.09.19-.17.38-.16.4-.17.45,0,.12-.1.12,0,0,0-.09a.67.67,0,0,0,0-.19c0-.08-.06-.19-.25-.22s-.81,0-.92,0,0,0-.06.05Z"/><path class="cls-1" d="M14.52,32.06c.05-.1.11-.16.16-.16s.08,0,.11.19l.59,3.44,2.84-3.48c.08-.1.13-.15.18-.15s.08.06.05.19l-.66,3.77c-.07.39-.07.56.1.62a1.09,1.09,0,0,0,.37.06c.06,0,.1,0,.09,0s-.1.07-.18.07-1,0-1.26,0-.17,0-.16-.07,0,0,.09-.07.09-.09.12-.26l.5-2.68h0L15.16,36.3c-.24.29-.29.34-.34.34s-.08-.12-.12-.3-.25-1.22-.27-1.39-.14-.9-.21-1.35h0L13.08,36a3,3,0,0,0-.11.29c0,.12,0,.17.12.2a1.14,1.14,0,0,0,.25,0s.09,0,.08,0-.08.07-.17.07l-.65,0-.63,0c-.06,0-.11,0-.09-.07s.05,0,.11,0l.19,0c.19,0,.32-.27.41-.48Z"/><path class="cls-1" d="M21.06,33.83c.11-.33.19-.59.25-.8s.07-.22,0-.22a6.52,6.52,0,0,0-.82.29l-.1,0s0,0,0-.07a.17.17,0,0,1,.09-.08L22.19,32a.45.45,0,0,1,.19-.08c.06,0,0,.07,0,.13s-.24.65-.55,1.59l-.37,1.13c-.19.59-.36,1.1-.42,1.37s0,.29.14.33a3.49,3.49,0,0,0,.4,0s0,0,0,.06,0,.05-.12.05l-1,0-1.08,0c-.07,0-.1,0-.08-.06a.08.08,0,0,1,.07-.06,4.61,4.61,0,0,0,.52,0c.21,0,.27-.13.36-.32s.28-.79.47-1.37Z"/><path class="cls-1" d="M25,32.24c-.54,0-1.13.71-1.56,2-.35,1.07-.43,2.21.33,2.21.55,0,1.15-.72,1.57-2,.34-1.05.42-2.21-.34-2.21m-1.44,4.51c-1.35,0-1.25-1.32-.95-2.26C23.05,33,24,32,25.19,32s1.25,1.32.95,2.25c-.47,1.45-1.39,2.53-2.61,2.53"/><path class="cls-1" d="M25.64,36.64a.06.06,0,0,1-.06-.08s.1-.1.18-.16c1.12-.75,2.68-1.7,3.1-3,.31-1-.17-1.16-.48-1.16a1.18,1.18,0,0,0-.73.22,1.48,1.48,0,0,0-.45.59c0,.06-.06.12-.12.12s0,0,0-.12.14-.56.2-.74,0-.08.11-.12A2.92,2.92,0,0,1,28.57,32c1.1,0,1.38.59,1.15,1.3-.39,1.18-2.07,2.21-3.08,2.84,0,0,0,0,0,0h.42c.11,0,.85,0,1.09,0a1.11,1.11,0,0,0,.89-.54c0-.07.07-.1.11-.1s0,.05,0,.12a9.15,9.15,0,0,1-.47.87c-.1.17-.21.18-.6.18Z"/><path class="cls-1" d="M29.44,36.28a.56.56,0,0,1,.5-.37.25.25,0,0,1,.27.35.56.56,0,0,1-.52.39c-.26,0-.31-.2-.25-.37"/><path class="cls-1" d="M30.75,36.64c-.09-.05-.08-.11,0-.24a7.63,7.63,0,0,1,.28-.77c0-.06.07-.11.11-.11s0,0,0,.1c-.21.65.15.82.58.82a1.51,1.51,0,0,0,1.4-1.11c.32-1-.64-1.38-1.11-1.45-.07,0-.11,0-.07-.12l.67-1.61a.14.14,0,0,1,.14-.08h1.53a2.06,2.06,0,0,0,.36,0l.13,0c.05,0,.05,0,0,.12a6.82,6.82,0,0,1-.34.78.11.11,0,0,1-.09.07s0,0,0-.09.06-.33-.44-.33H32.73l-.33.74c.89.15,1.86.65,1.51,1.71a2.67,2.67,0,0,1-2.62,1.71,1.26,1.26,0,0,1-.55-.11"/><path class="cls-1" d="M55.07,21.65a1.84,1.84,0,0,1-.53,1.2,1.55,1.55,0,0,1-1.18.6.53.53,0,0,1-.6-.6,2,2,0,0,1,.48-1.25,1.45,1.45,0,0,1,1.18-.6.58.58,0,0,1,.65.65"/><path class="cls-5" d="M55.07,21.65a1.84,1.84,0,0,1-.53,1.2,1.55,1.55,0,0,1-1.18.6.53.53,0,0,1-.6-.6,2,2,0,0,1,.48-1.25,1.45,1.45,0,0,1,1.18-.6.58.58,0,0,1,.65.65"/></g></g></svg>