<svg xmlns="http://www.w3.org/2000/svg" viewBox="0 0 122.12 42.2"><defs><style>.cls-1{fill:#fff;}</style></defs><title>partn-6</title><g id="Слой_2" data-name="Слой 2"><g id="Слой_1-2" data-name="Слой 1"><path class="cls-1" d="M3.46,20.5V.5H6.6a16.28,16.28,0,0,1,4,.35,5.36,5.36,0,0,1,2.86,1.77,4.65,4.65,0,0,1,1.06,3A4.44,4.44,0,0,1,14,7.74a5.28,5.28,0,0,1-1.57,1.75,6.27,6.27,0,0,1,2.67,2.14,5.42,5.42,0,0,1,.84,3,5.66,5.66,0,0,1-.87,3.07,5.57,5.57,0,0,1-2.24,2.07,8.64,8.64,0,0,1-3.8.69ZM7.27,4.13V8.35H8.1a3.09,3.09,0,0,0,2.07-.58,2,2,0,0,0,.68-1.59,1.86,1.86,0,0,0-.64-1.49,2.94,2.94,0,0,0-2-.55Zm0,7.61v5.13h1a5.9,5.9,0,0,0,3.2-.6,2,2,0,0,0,.83-1.74,2.44,2.44,0,0,0-1-2,5.34,5.34,0,0,0-3.22-.75Z"/><path class="cls-1" d="M28.68,5.71h3.71V20.5H28.68V18.94a7.29,7.29,0,0,1-2.18,1.49,6.11,6.11,0,0,1-2.37.46,6.58,6.58,0,0,1-5-2.22,7.76,7.76,0,0,1-2.09-5.53,7.94,7.94,0,0,1,2-5.62A6.44,6.44,0,0,1,24,5.33a6.25,6.25,0,0,1,2.5.5,6.81,6.81,0,0,1,2.16,1.51Zm-3.9,3A3.75,3.75,0,0,0,21.92,10a4.38,4.38,0,0,0-1.14,3.12,4.43,4.43,0,0,0,1.16,3.15,3.75,3.75,0,0,0,2.85,1.24,3.82,3.82,0,0,0,2.9-1.22,4.45,4.45,0,0,0,1.15-3.19A4.32,4.32,0,0,0,27.69,10a3.87,3.87,0,0,0-2.91-1.2"/><polygon class="cls-1" points="34.03 0 34.03 20.5 37.75 20.5 37.75 13.69 44.03 20.5 48.64 20.5 41.5 12.8 47.87 5.71 43.21 5.71 37.75 11.81 37.75 0 34.03 0"/><path class="cls-1" d="M61.81,14.18H49.89a4,4,0,0,0,1.38,2.51,4.33,4.33,0,0,0,2.86.93,5,5,0,0,0,3.58-1.45l3.13,1.47A7.38,7.38,0,0,1,58,20.09a8.76,8.76,0,0,1-3.87.79,7.66,7.66,0,0,1-5.67-2.2,7.47,7.47,0,0,1-2.19-5.5,7.73,7.73,0,0,1,2.18-5.62A7.33,7.33,0,0,1,54,5.33a7.6,7.6,0,0,1,5.68,2.24,8.08,8.08,0,0,1,2.19,5.91ZM58.1,11.26a3.72,3.72,0,0,0-1.45-2,4.2,4.2,0,0,0-2.51-.78,4.44,4.44,0,0,0-2.72.87,4.84,4.84,0,0,0-1.36,1.92Z"/><path class="cls-1" d="M63.22,5.71H66.4V7.57A4,4,0,0,1,67.77,5.9a3.32,3.32,0,0,1,1.88-.57,3.47,3.47,0,0,1,1.51.38L70,8.91a2.56,2.56,0,0,0-1.07-.33,1.7,1.7,0,0,0-1.45,1.06,9.69,9.69,0,0,0-.59,4.16v6.7H63.22Z"/><polygon class="cls-1" points="16.49 21.82 11.81 35.77 7.17 21.82 3.46 21.82 0 41.82 3.71 41.82 5.91 29.19 10.12 41.82 13.47 41.82 17.72 29.19 19.87 41.82 23.55 41.82 20.19 21.82 16.49 21.82"/><path class="cls-1" d="M38.78,30l-3.09,1.7A5.24,5.24,0,0,0,34,30.45a5.18,5.18,0,0,0-2-.35,4.65,4.65,0,0,0-3.37,1.24,4.23,4.23,0,0,0-1.29,3.18,4.09,4.09,0,0,0,1.24,3.08,4.49,4.49,0,0,0,3.25,1.19,4.73,4.73,0,0,0,3.88-1.7l2.93,2a8,8,0,0,1-6.72,3.1,8.05,8.05,0,0,1-6.11-2.31,7.69,7.69,0,0,1,1.86-12.21,9,9,0,0,1,4.3-1,8.72,8.72,0,0,1,4,.88A7.52,7.52,0,0,1,38.78,30"/><polygon class="cls-1" points="40.12 21.82 43.97 21.82 43.97 28.71 49.4 21.82 53.97 21.82 46.99 30.75 54.65 41.82 50.14 41.82 43.97 32.93 43.97 41.82 40.12 41.82 40.12 21.82"/><path class="cls-1" d="M68.4,35.5H56.48A4,4,0,0,0,57.86,38a4.33,4.33,0,0,0,2.86.93,5,5,0,0,0,3.58-1.45L67.42,39a7.38,7.38,0,0,1-2.8,2.45,8.76,8.76,0,0,1-3.87.79A7.66,7.66,0,0,1,55.08,40a7.47,7.47,0,0,1-2.19-5.5,7.72,7.72,0,0,1,2.18-5.62,7.33,7.33,0,0,1,5.47-2.24,7.6,7.6,0,0,1,5.68,2.24,8.08,8.08,0,0,1,2.19,5.91Zm-3.71-2.92a3.73,3.73,0,0,0-1.45-2,4.2,4.2,0,0,0-2.51-.78,4.45,4.45,0,0,0-2.72.87,4.84,4.84,0,0,0-1.36,1.92Z"/><path class="cls-1" d="M69.69,27H73.4v1.52a8.93,8.93,0,0,1,2.29-1.48,5.53,5.53,0,0,1,2.1-.42,5.08,5.08,0,0,1,3.73,1.54A5.27,5.27,0,0,1,82.81,32v9.78H79.14V35.34a16.32,16.32,0,0,0-.24-3.52,2.41,2.41,0,0,0-.83-1.32A2.32,2.32,0,0,0,76.62,30a2.73,2.73,0,0,0-1.93.75,4,4,0,0,0-1.12,2.09,16.75,16.75,0,0,0-.16,3v5.93H69.69Z"/><polygon class="cls-1" points="84.87 27.03 96.2 27.03 89.55 38.68 95.82 38.68 95.82 41.82 83.85 41.82 90.53 30.17 84.87 30.17 84.87 27.03"/><path class="cls-1" d="M117.72,35.5H105.79A4,4,0,0,0,107.17,38a4.33,4.33,0,0,0,2.86.93,5,5,0,0,0,3.58-1.45L116.74,39a7.38,7.38,0,0,1-2.8,2.45,8.76,8.76,0,0,1-3.87.79,7.66,7.66,0,0,1-5.67-2.2,7.47,7.47,0,0,1-2.19-5.5,7.72,7.72,0,0,1,2.18-5.62,7.33,7.33,0,0,1,5.47-2.24,7.6,7.6,0,0,1,5.68,2.24,8.08,8.08,0,0,1,2.19,5.91ZM114,32.57a3.72,3.72,0,0,0-1.45-2,4.2,4.2,0,0,0-2.51-.78,4.45,4.45,0,0,0-2.72.87A4.84,4.84,0,0,0,106,32.57Z"/><rect class="cls-1" x="97.26" y="27.03" width="3.71" height="14.79"/><rect class="cls-1" x="97.25" y="22.99" width="3.71" height="2.8"/><rect class="cls-1" x="118.63" y="39" width="3.5" height="2.8"/></g></g></svg>