<svg xmlns="http://www.w3.org/2000/svg" viewBox="0 0 118.58 61.07"><defs><style>.cls-1{fill:#fff;}</style></defs><title>part-2</title><g id="Слой_2" data-name="Слой 2"><g id="Слой_1-2" data-name="Слой 1"><path class="cls-1" d="M80.2,32.49,77.84,38h4.73Zm7.2,11H84.85l-1.39-3.32H77l-1.41,3.32H73.07l6-13.84h2.24Z"/><path class="cls-1" d="M90.68,43.44H88.3V33.08h2.38v2.34a3.67,3.67,0,0,1,3.67-2.53V35.4h-.14c-2.08,0-3.53,1.35-3.53,4.1Z"/><path class="cls-1" d="M99.28,40.2a1.13,1.13,0,0,0,1.28,1.29,3.19,3.19,0,0,0,1.47-.35v1.94a4.16,4.16,0,0,1-2.14.53c-1.75,0-3-.76-3-3V35.12H95.59v-2H96.9V30.23h2.38v2.85h2.79v2H99.28Z"/><path class="cls-1" d="M107.62,43.64a7.28,7.28,0,0,1-4.4-1.55l1.06-1.61a5.82,5.82,0,0,0,3.4,1.28c1,0,1.61-.43,1.61-1.12v0c0-.8-1.1-1.08-2.32-1.45-1.53-.43-3.24-1.06-3.24-3v0c0-2,1.63-3.16,3.69-3.16a7.18,7.18,0,0,1,3.81,1.18l-.94,1.69a6,6,0,0,0-2.92-1c-.92,0-1.45.43-1.45,1v0c0,.75,1.12,1.06,2.34,1.45,1.51.47,3.22,1.16,3.22,3v0c0,2.18-1.69,3.26-3.85,3.26"/><polygon class="cls-1" points="82.67 46.84 85.04 46.84 85.04 60.58 83.02 60.58 75.44 50.8 75.44 60.58 73.07 60.58 73.07 46.84 75.31 46.84 82.67 56.34 82.67 46.84"/><path class="cls-1" d="M93.09,52.61c2.9.71,4.42,1.75,4.42,4,0,2.59-2,4.12-4.91,4.12a8.47,8.47,0,0,1-5.73-2.2l1.45-1.73a6.32,6.32,0,0,0,4.34,1.79c1.49,0,2.43-.69,2.43-1.75s-.55-1.53-3.1-2.12c-2.92-.71-4.57-1.57-4.57-4.12,0-2.4,2-4,4.69-4a7.61,7.61,0,0,1,5,1.73l-1.3,1.82a6.23,6.23,0,0,0-3.73-1.41c-1.41,0-2.24.73-2.24,1.65,0,1.08.63,1.55,3.26,2.18"/><polygon class="cls-1" points="107.36 46.8 109.4 46.8 112.77 57.02 116.05 46.84 118.58 46.84 113.79 60.68 111.71 60.68 108.34 50.8 104.96 60.68 102.88 60.68 98.09 46.84 100.7 46.84 103.98 57.02 107.36 46.8"/><path class="cls-1" d="M51,36.27,48.56,46.93,46,36.27H42.37L39.73,46.81l-2.4-10.54H33.41l4.33,16.65h3.85l2.54-10.53,2.58,10.53H50.5l0-.14L54.9,36.27ZM15.14,46.91,6.08,36.27H2.24V52.93H6V42.31l9,10.62h3.86V36.27H15.14Z"/><path class="cls-1" d="M1.84,58h0A2.63,2.63,0,0,1,4.5,55.36a2.78,2.78,0,0,1,2,.7l-.57.68a2,2,0,0,0-1.44-.55A1.74,1.74,0,0,0,2.79,58v0a1.72,1.72,0,0,0,1.75,1.84,2.1,2.1,0,0,0,1.25-.39v-1H4.47v-.79H6.66v2.16a3.28,3.28,0,0,1-2.15.8A2.56,2.56,0,0,1,1.84,58"/><path class="cls-1" d="M11.65,58h0A1.77,1.77,0,0,0,9.9,56.19,1.74,1.74,0,0,0,8.16,58v0a1.77,1.77,0,0,0,1.75,1.83A1.74,1.74,0,0,0,11.65,58M7.21,58h0a2.64,2.64,0,0,1,2.7-2.67A2.62,2.62,0,0,1,12.6,58v0a2.64,2.64,0,0,1-2.7,2.67A2.62,2.62,0,0,1,7.21,58"/><polygon class="cls-1" points="12.54 55.44 13.54 55.44 15.09 59.4 16.64 55.44 17.62 55.44 15.47 60.63 14.68 60.63 12.54 55.44"/><polygon class="cls-1" points="18.23 55.44 22.05 55.44 22.05 56.25 19.13 56.25 19.13 57.59 21.72 57.59 21.72 58.4 19.13 58.4 19.13 59.79 22.09 59.79 22.09 60.6 18.23 60.6 18.23 55.44"/><path class="cls-1" d="M25.2,58c.65,0,1.06-.34,1.06-.86v0c0-.55-.4-.85-1.07-.85H23.87V58ZM23,55.44h2.3a2.08,2.08,0,0,1,1.49.52,1.55,1.55,0,0,1,.43,1.11v0A1.55,1.55,0,0,1,26,58.65l1.39,2H26.27L25,58.8H23.87V60.6H23Z"/><polygon class="cls-1" points="27.98 55.44 28.82 55.44 31.58 59.01 31.58 55.44 32.47 55.44 32.47 60.6 31.71 60.6 28.87 56.93 28.87 60.6 27.98 60.6 27.98 55.44"/><polygon class="cls-1" points="33.39 55.44 34.35 55.44 35.92 57.88 37.49 55.44 38.46 55.44 38.46 60.6 37.55 60.6 37.55 56.9 35.92 59.33 35.89 59.33 34.28 56.91 34.28 60.6 33.39 60.6 33.39 55.44"/><polygon class="cls-1" points="39.32 55.44 43.14 55.44 43.14 56.25 40.23 56.25 40.23 57.59 42.81 57.59 42.81 58.4 40.23 58.4 40.23 59.79 43.18 59.79 43.18 60.6 39.32 60.6 39.32 55.44"/><polygon class="cls-1" points="44.07 55.44 44.91 55.44 47.67 59.01 47.67 55.44 48.56 55.44 48.56 60.6 47.81 60.6 44.97 56.93 44.97 60.6 44.07 60.6 44.07 55.44"/><polygon class="cls-1" points="50.92 56.28 49.28 56.28 49.28 55.44 53.47 55.44 53.47 56.28 51.83 56.28 51.83 60.6 50.92 60.6 50.92 56.28"/><path class="cls-1" d="M19.91,50.61,22.11,48A7.77,7.77,0,0,0,27.16,50c1.52,0,2.44-.6,2.44-1.6v0c0-.94-.58-1.43-3.41-2.15-3.41-.87-5.61-1.81-5.61-5.17v0c0-3.07,2.46-5.1,5.92-5.1a9.81,9.81,0,0,1,6.29,2.15l-1.93,2.8a7.94,7.94,0,0,0-4.4-1.67c-1.43,0-2.18.65-2.18,1.47v.05c0,1.11.72,1.47,3.65,2.22,3.43.89,5.37,2.13,5.37,5.08v0c0,3.36-2.56,5.25-6.21,5.25a10.77,10.77,0,0,1-7.18-2.71"/><path class="cls-1" d="M11.14,4.66c-.35,0-.56.22-.63.62,0,0-.09.61-.18,1.64s-.19,2.44-.19,4.22c0,4,.52,9.71,3,14.07,1.91,3.33,4.62,5.21,7.64,5.31a9.54,9.54,0,0,1-3.32-4.71,25.65,25.65,0,0,1-1.06-7.74,42.81,42.81,0,0,1,.89-8.49v0a1.8,1.8,0,0,1,.88-1.24A44.73,44.73,0,0,0,12,4.93c-.31-.14-.47-.2-.47-.2h0a.9.9,0,0,0-.33-.07"/><path class="cls-1" d="M37.36,9.34a.43.43,0,0,0-.26.11l-.27.22-.77.66a34.31,34.31,0,0,0-2.5,2.49,24,24,0,0,0-5.13,8.5,18.13,18.13,0,0,0-.93,5.29A6.14,6.14,0,0,0,28,29.36a3.07,3.07,0,0,0,1.56,1.55,2.8,2.8,0,0,0,1.14.2h0a7.86,7.86,0,0,0,6.83-5.66,25.16,25.16,0,0,0,1-7.38,42.69,42.69,0,0,0-.72-7.63l-.13-.65c-.05-.2-.15-.45-.33-.45"/><path class="cls-1" d="M18.84,9.34c-.19,0-.3.24-.36.45l-.13.64c-.06.29-.17.91-.3,1.79a42,42,0,0,0-.43,5.84,24.4,24.4,0,0,0,1,7.37,8,8,0,0,0,7,5.68h0a2.86,2.86,0,0,0,1.73-.51,4.48,4.48,0,0,1-.43-.72,7.63,7.63,0,0,1-.64-3.26,20,20,0,0,1,1-5.65c.06-.2.13-.39.19-.59l.08-.23c-2.3-5.71-7.57-10-8.17-10.48l-.29-.23a.52.52,0,0,0-.27-.11"/><path class="cls-1" d="M28.08,0c-.13,0-.26.1-.39.3,0,0-.11.16-.29.45s-.52.87-.77,1.31a52,52,0,0,0-2.32,4.67C23.7,8.11,23.15,9.55,22.66,11a28.09,28.09,0,0,1,5.53,7.61,28.09,28.09,0,0,1,5.33-7.51A53.32,53.32,0,0,0,28.75.75L28.46.29C28.28,0,28.13,0,28.08,0"/><path class="cls-1" d="M45,4.66a.93.93,0,0,0-.32.07h0s-.17.06-.47.2-.68.3-1.18.53l-.17.08A45.4,45.4,0,0,0,38.45,8L38,8.28a1.79,1.79,0,0,1,.89,1.24v.06a43.73,43.73,0,0,1,.87,8.49,26.36,26.36,0,0,1-1,7.74,9.49,9.49,0,0,1-3.25,4.71c3-.14,5.64-2,7.53-5.3,2.49-4.37,3-10.06,3-14.07,0-1.42-.07-2.84-.19-4.23-.1-1-.18-1.63-.18-1.63A.65.65,0,0,0,45,4.66"/><path class="cls-1" d="M36.75,1.27h-.13a.61.61,0,0,0-.28.12h0s-.66.4-1.67,1.13c-.56.4-1.44,1.06-2.53,2,.79,1.64,1.5,3.31,2.1,5a42,42,0,0,1,4.33-3,43.11,43.11,0,0,0-1.19-4.68l0,0a.65.65,0,0,0-.61-.5"/><path class="cls-1" d="M19.41,1.27a.65.65,0,0,0-.61.5l0,0A42.46,42.46,0,0,0,17.59,6.5a42.15,42.15,0,0,1,4.33,3,49.69,49.69,0,0,1,2.1-5c-.86-.71-1.71-1.37-2.53-2-1-.72-1.66-1.12-1.67-1.13h0a.62.62,0,0,0-.28-.12h-.13"/><path class="cls-1" d="M4.85,12.1c-.87,0-1.38,0-1.39,0a1.13,1.13,0,0,0-.87.52,1.09,1.09,0,0,0-.18.64c.06.6.46,2.78,3.06,6.06,1.34-.66,2.66-1.24,3.94-1.73a39.09,39.09,0,0,1-.47-5.31c-1.59-.15-2.85-.19-3.63-.2H4.85"/><path class="cls-1" d="M51.3,12.1h-.47c-.78,0-2,.05-3.63.2a40.16,40.16,0,0,1-.47,5.31c1.28.49,2.61,1.07,3.94,1.73,2.61-3.29,3-5.47,3.07-6.07a1.21,1.21,0,0,0-.18-.64,1.14,1.14,0,0,0-.87-.52s-.52,0-1.39,0"/><path class="cls-1" d="M46.52,18.84a23.13,23.13,0,0,1-2.48,7,12.31,12.31,0,0,1-4.32,4.6C52.11,29.74,55.6,25.76,56,25.3h0a1.11,1.11,0,0,0,.19-.61,1.14,1.14,0,0,0-.44-.9l-.4-.27h0c-.2-.15-.48-.34-.84-.57l-.3-.2a44.59,44.59,0,0,0-4.06-2.31,37.09,37.09,0,0,0-3.59-1.59"/><path class="cls-1" d="M9.64,18.84A42.46,42.46,0,0,0,.83,23.5l-.4.28a1.13,1.13,0,0,0-.43.9,1.11,1.11,0,0,0,.18.61l0,0,.08.09.05.06A6.4,6.4,0,0,0,.93,26a12.4,12.4,0,0,0,3,1.8,36.22,36.22,0,0,0,12.54,2.59,12.52,12.52,0,0,1-4.32-4.61,23.15,23.15,0,0,1-2.48-7"/><path class="cls-1" d="M45,31.32a26.45,26.45,0,0,0-3,.33l-.66.09a17.33,17.33,0,0,1-2.38.13l-1.93,0h-.06c-.64,0-1.37,0-2.1,0a20,20,0,0,0-5.21.54.19.19,0,0,0-.14.18c0,.06.11.08.2.08h.08c.69-.06,1.35-.09,2-.09a19.65,19.65,0,0,1,5.29.77A17.13,17.13,0,0,0,41.6,34c2,0,3.51-.42,4.16-1.12a1,1,0,0,0,.29-.76c-.05-.53-.22-.76-1.08-.76"/><path class="cls-1" d="M11.19,31.32c-.86,0-1,.24-1.07.76a1,1,0,0,0,.28.76C11,33.53,12.61,34,14.56,34a17.14,17.14,0,0,0,4.57-.69,19.61,19.61,0,0,1,5.29-.77c.62,0,1.29,0,2,.09h.08c.09,0,.2,0,.2-.08a.19.19,0,0,0-.14-.18,20,20,0,0,0-5.21-.54c-.73,0-1.46,0-2.1,0h-.06l-1.93,0a17.33,17.33,0,0,1-2.39-.13l-.68-.09a26.43,26.43,0,0,0-3-.32"/><path class="cls-1" d="M63.31,61.07a.49.49,0,0,1-.49-.49V11.22a.49.49,0,0,1,1,0V60.58a.49.49,0,0,1-.49.49"/></g></g></svg>