<svg xmlns="http://www.w3.org/2000/svg" viewBox="0 0 224.23 47.63"><defs><style>.cls-1{fill:#fff;}.cls-2{fill:none;}</style></defs><title>partn-img-1</title><g id="Слой_2" data-name="Слой 2"><g id="Слой_1-2" data-name="Слой 1"><path class="cls-1" d="M3.79,43.86l-1-2.21-1,2.21Zm.16.35H1.69l-.27.62a1.46,1.46,0,0,0-.13.52.43.43,0,0,0,.22.4,1.92,1.92,0,0,0,.63.11V46H0v-.17a1,1,0,0,0,.57-.28,3.87,3.87,0,0,0,.55-1l2.29-5.12H3.5l2.31,5.26a3.25,3.25,0,0,0,.55.94.74.74,0,0,0,.45.17V46H3.71v-.17h.13a1,1,0,0,0,.52-.1.25.25,0,0,0,.1-.22.62.62,0,0,0,0-.17s-.05-.15-.14-.35Z"/><rect class="cls-2" width="224.23" height="47.63"/><path class="cls-1" d="M10.74,41.62v3.46a1.31,1.31,0,0,0,.09.64.56.56,0,0,0,.38.16V46H9.42v-.59a2.31,2.31,0,0,1-.64.55,1.5,1.5,0,0,1-.71.17,1.06,1.06,0,0,1-.67-.23A1.12,1.12,0,0,1,7,45.4a4,4,0,0,1-.1-1.07V42.58A1.26,1.26,0,0,0,6.83,42a.56.56,0,0,0-.38-.16v-.17h1.8v3a2.63,2.63,0,0,0,0,.61.43.43,0,0,0,.14.21.39.39,0,0,0,.23.07A.56.56,0,0,0,9,45.44a1.94,1.94,0,0,0,.45-.5V42.58A1.26,1.26,0,0,0,9.32,42a.56.56,0,0,0-.38-.16v-.17Z"/><path class="cls-1" d="M14.31,41.49,14.39,43h-.16a2.36,2.36,0,0,0-.6-.92,1,1,0,0,0-.61-.24.47.47,0,0,0-.33.13.4.4,0,0,0-.14.3.4.4,0,0,0,.09.25,4.53,4.53,0,0,0,.85.67,3.41,3.41,0,0,1,.91.8,1.27,1.27,0,0,1,.22.73,1.58,1.58,0,0,1-.18.73,1.32,1.32,0,0,1-.52.54,1.53,1.53,0,0,1-.74.19,2.61,2.61,0,0,1-.85-.2.67.67,0,0,0-.19-.05c-.1,0-.19.08-.26.24h-.16l-.08-1.59h.16a2.06,2.06,0,0,0,.58.94,1.12,1.12,0,0,0,.71.31.5.5,0,0,0,.37-.14.45.45,0,0,0,.15-.34.59.59,0,0,0-.14-.39,3.67,3.67,0,0,0-.63-.5,5,5,0,0,1-.94-.77,1.33,1.33,0,0,1-.31-.85,1.4,1.4,0,0,1,.35-.92,1.27,1.27,0,0,1,1-.42,1.51,1.51,0,0,1,.69.17.46.46,0,0,0,.21.07.25.25,0,0,0,.14,0,.92.92,0,0,0,.17-.2Z"/><path class="cls-1" d="M16.65,40v1.62h1v.47h-1v2.73a2.23,2.23,0,0,0,0,.5.37.37,0,0,0,.13.18.29.29,0,0,0,.17.07c.21,0,.4-.16.58-.47l.14.1a1.29,1.29,0,0,1-1.24.91,1.12,1.12,0,0,1-.71-.23,1,1,0,0,1-.37-.52,4.43,4.43,0,0,1,0-.87V42.08h-.58v-.17a6.06,6.06,0,0,0,1-.88,5.28,5.28,0,0,0,.73-1Z"/><path class="cls-1" d="M19.87,41.62v1a3.22,3.22,0,0,1,.77-.91,1.14,1.14,0,0,1,.64-.23.56.56,0,0,1,.42.17.62.62,0,0,1,.16.46.72.72,0,0,1-.16.49.47.47,0,0,1-.37.17.65.65,0,0,1-.44-.16l-.22-.18a.21.21,0,0,0-.11,0,.4.4,0,0,0-.26.1A1,1,0,0,0,20,43a3.2,3.2,0,0,0-.15,1v1.28a1.11,1.11,0,0,0,0,.35.39.39,0,0,0,.17.19,1,1,0,0,0,.38.07V46H18.06v-.17a.52.52,0,0,0,.39-.16,1.48,1.48,0,0,0,.11-.72V42.55a1.86,1.86,0,0,0,0-.49.37.37,0,0,0-.14-.19.72.72,0,0,0-.32-.09v-.17Z"/><path class="cls-1" d="M24.28,45V43.56a2.77,2.77,0,0,0-.85.72.87.87,0,0,0-.18.52.54.54,0,0,0,.16.38.43.43,0,0,0,.33.13.91.91,0,0,0,.55-.27m0,.34a2.32,2.32,0,0,1-1.45.71.85.85,0,0,1-.88-.87,1.21,1.21,0,0,1,.43-.91,8.16,8.16,0,0,1,1.9-1.08V42.8a2.06,2.06,0,0,0-.06-.63.49.49,0,0,0-.2-.23.61.61,0,0,0-.34-.1.87.87,0,0,0-.51.14.25.25,0,0,0-.12.2.41.41,0,0,0,.13.25.62.62,0,0,1,.18.39.53.53,0,0,1-.18.4.63.63,0,0,1-.45.16.73.73,0,0,1-.5-.18.55.55,0,0,1-.2-.42,1,1,0,0,1,.27-.65,1.7,1.7,0,0,1,.75-.48,3.1,3.1,0,0,1,1-.16,1.64,1.64,0,0,1,1,.27,1.25,1.25,0,0,1,.48.58,3.79,3.79,0,0,1,.07.92V45a1.79,1.79,0,0,0,0,.38.23.23,0,0,0,.07.12.18.18,0,0,0,.11,0c.08,0,.16-.06.25-.17l.14.11a1.76,1.76,0,0,1-.49.51,1.05,1.05,0,0,1-.57.16.9.9,0,0,1-.59-.18.81.81,0,0,1-.26-.54"/><path class="cls-1" d="M28.13,39.62v5.5a1.07,1.07,0,0,0,.11.6.61.61,0,0,0,.43.15V46H26.27v-.17a.58.58,0,0,0,.43-.17,1.05,1.05,0,0,0,.09-.58V40.54a1,1,0,0,0-.11-.59.58.58,0,0,0-.42-.15v-.17Z"/><path class="cls-1" d="M30.81,41.62v3.5a1.08,1.08,0,0,0,.11.6.6.6,0,0,0,.43.15V46H29v-.17a.58.58,0,0,0,.43-.17,1,1,0,0,0,.1-.58V42.54a1,1,0,0,0-.11-.6.58.58,0,0,0-.42-.15v-.17Zm-.66-2.14a.74.74,0,0,1,.73.73.69.69,0,0,1-.22.52.73.73,0,0,1-1-1,.69.69,0,0,1,.52-.22"/><path class="cls-1" d="M33.93,45V43.56a2.75,2.75,0,0,0-.85.72.87.87,0,0,0-.18.52.54.54,0,0,0,.16.38.43.43,0,0,0,.33.13.92.92,0,0,0,.55-.27m0,.34a2.33,2.33,0,0,1-1.45.71.85.85,0,0,1-.88-.87,1.21,1.21,0,0,1,.43-.91,8.11,8.11,0,0,1,1.9-1.08V42.8a2.08,2.08,0,0,0-.06-.63.48.48,0,0,0-.2-.23.62.62,0,0,0-.34-.1.87.87,0,0,0-.51.14.24.24,0,0,0-.12.2.41.41,0,0,0,.13.25.61.61,0,0,1,.18.39.53.53,0,0,1-.17.4.64.64,0,0,1-.45.16.73.73,0,0,1-.5-.18.55.55,0,0,1-.2-.42,1,1,0,0,1,.27-.65,1.69,1.69,0,0,1,.75-.48,3.11,3.11,0,0,1,1-.16,1.64,1.64,0,0,1,1,.27,1.24,1.24,0,0,1,.48.58,3.74,3.74,0,0,1,.07.92V45a1.7,1.7,0,0,0,0,.38.22.22,0,0,0,.07.12.18.18,0,0,0,.11,0,.34.34,0,0,0,.25-.17l.14.11a1.79,1.79,0,0,1-.49.51,1.05,1.05,0,0,1-.57.16.9.9,0,0,1-.59-.18.8.8,0,0,1-.26-.54"/><path class="cls-1" d="M37.75,41.62v.57a2.57,2.57,0,0,1,.65-.53,1.38,1.38,0,0,1,.67-.17,1.06,1.06,0,0,1,.71.24,1.13,1.13,0,0,1,.38.59,4.61,4.61,0,0,1,.07,1v1.72a1.37,1.37,0,0,0,.09.64.56.56,0,0,0,.39.16V46H38.48v-.17a.46.46,0,0,0,.36-.21,1.36,1.36,0,0,0,.08-.59v-2a3.23,3.23,0,0,0,0-.69.4.4,0,0,0-.15-.22.35.35,0,0,0-.22-.08q-.41,0-.76.58v2.37a1.36,1.36,0,0,0,.09.63.48.48,0,0,0,.35.17V46H35.95v-.17a.55.55,0,0,0,.4-.18,1.31,1.31,0,0,0,.08-.61V42.58a1.25,1.25,0,0,0-.09-.63.57.57,0,0,0-.38-.16v-.17Z"/><path class="cls-1" d="M49.43,39.48v2.26h-.18a2.87,2.87,0,0,0-1-1.41,2.23,2.23,0,0,0-1.39-.48,1.79,1.79,0,0,0-1.2.41A2.18,2.18,0,0,0,45,41.38a5.6,5.6,0,0,0-.2,1.49,5.43,5.43,0,0,0,.22,1.62,1.85,1.85,0,0,0,.7,1,2,2,0,0,0,1.15.32,2.49,2.49,0,0,0,.47,0,3.48,3.48,0,0,0,.5-.15V44.3a1.4,1.4,0,0,0-.05-.49.47.47,0,0,0-.22-.2.8.8,0,0,0-.39-.09h-.17v-.18h3.12v.18a1.33,1.33,0,0,0-.5.1.48.48,0,0,0-.21.24,1.32,1.32,0,0,0,0,.44v1.33a6.55,6.55,0,0,1-2.66.55,4.08,4.08,0,0,1-1.52-.25,3.94,3.94,0,0,1-1.07-.65,3.15,3.15,0,0,1-.72-.91,3.19,3.19,0,0,1-.33-1.46,3.29,3.29,0,0,1,1-2.44,3.5,3.5,0,0,1,2.56-1,4.36,4.36,0,0,1,.86.08,4.28,4.28,0,0,1,.67.22,2.81,2.81,0,0,0,.55.18.38.38,0,0,0,.25-.09.9.9,0,0,0,.21-.37Z"/><path class="cls-1" d="M52.52,41.82a.55.55,0,0,0-.42.19,1.28,1.28,0,0,0-.23.72c0,.36-.05.85-.05,1.49a6.3,6.3,0,0,0,.07.95.92.92,0,0,0,.22.51.53.53,0,0,0,.39.18.55.55,0,0,0,.36-.12.8.8,0,0,0,.25-.45,10.92,10.92,0,0,0,.09-1.81,4.43,4.43,0,0,0-.09-1.1.84.84,0,0,0-.26-.44.49.49,0,0,0-.32-.1m0-.34a2.06,2.06,0,0,1,1.07.3,1.89,1.89,0,0,1,.75.85,2.78,2.78,0,0,1,.26,1.2,2.54,2.54,0,0,1-.48,1.57,1.88,1.88,0,0,1-1.59.77,1.83,1.83,0,0,1-1.54-.7,2.75,2.75,0,0,1,0-3.28,1.82,1.82,0,0,1,1.51-.71"/><path class="cls-1" d="M56.67,46.17l-1.49-3.43a3.28,3.28,0,0,0-.42-.79.56.56,0,0,0-.32-.17v-.17h2.35v.17a.41.41,0,0,0-.3.08.31.31,0,0,0-.11.24,2.1,2.1,0,0,0,.21.66l.73,1.66L57.89,43a2.81,2.81,0,0,0,.25-.87.29.29,0,0,0-.11-.24.6.6,0,0,0-.37-.1v-.17h1.45v.17a.59.59,0,0,0-.34.16,3,3,0,0,0-.4.75l-1.48,3.47Z"/><path class="cls-1" d="M61.43,43.35a4.34,4.34,0,0,0-.08-1,.84.84,0,0,0-.26-.43.39.39,0,0,0-.26-.09.46.46,0,0,0-.4.24,2.07,2.07,0,0,0-.28,1.15v.17Zm1.16.32H60.16a2.3,2.3,0,0,0,.47,1.39,1,1,0,0,0,.79.39.92.92,0,0,0,.51-.16,2.14,2.14,0,0,0,.5-.58l.16.1a2.72,2.72,0,0,1-.79,1,1.74,1.74,0,0,1-1,.3,1.67,1.67,0,0,1-1.49-.76,2.66,2.66,0,0,1-.41-1.51,2.52,2.52,0,0,1,.6-1.76,1.85,1.85,0,0,1,1.4-.66,1.51,1.51,0,0,1,1.16.55,2.51,2.51,0,0,1,.53,1.63"/><path class="cls-1" d="M64.69,41.62v1a3.2,3.2,0,0,1,.77-.91,1.13,1.13,0,0,1,.64-.23.56.56,0,0,1,.42.17.63.63,0,0,1,.16.46.73.73,0,0,1-.15.49.48.48,0,0,1-.37.17.64.64,0,0,1-.43-.16l-.22-.18a.21.21,0,0,0-.11,0,.39.39,0,0,0-.26.1,1,1,0,0,0-.29.46,3.2,3.2,0,0,0-.15,1v1.28a1.06,1.06,0,0,0,0,.35.38.38,0,0,0,.16.19,1,1,0,0,0,.38.07V46H62.88v-.17a.52.52,0,0,0,.39-.16,1.49,1.49,0,0,0,.1-.72V42.55a1.86,1.86,0,0,0,0-.49.37.37,0,0,0-.14-.19.73.73,0,0,0-.32-.09v-.17Z"/><path class="cls-1" d="M68.76,41.62v.57a2.57,2.57,0,0,1,.65-.53,1.38,1.38,0,0,1,.67-.17,1.07,1.07,0,0,1,.71.24,1.13,1.13,0,0,1,.38.59,4.61,4.61,0,0,1,.07,1v1.72a1.38,1.38,0,0,0,.09.64.56.56,0,0,0,.39.16V46H69.5v-.17a.46.46,0,0,0,.36-.21,1.36,1.36,0,0,0,.08-.59v-2a3.14,3.14,0,0,0,0-.69.4.4,0,0,0-.15-.22.35.35,0,0,0-.22-.08c-.27,0-.53.19-.76.58v2.37a1.37,1.37,0,0,0,.09.63.48.48,0,0,0,.35.17V46H67v-.17a.55.55,0,0,0,.4-.18,1.33,1.33,0,0,0,.08-.61V42.58a1.26,1.26,0,0,0-.09-.63.56.56,0,0,0-.38-.16v-.17Z"/><path class="cls-1" d="M73.89,41.62v.58a2.49,2.49,0,0,1,.67-.55,1.47,1.47,0,0,1,.68-.16,1.23,1.23,0,0,1,.71.2,1.25,1.25,0,0,1,.44.6,2.85,2.85,0,0,1,.72-.61,1.52,1.52,0,0,1,.73-.19,1.14,1.14,0,0,1,.73.21,1.06,1.06,0,0,1,.38.53,3.55,3.55,0,0,1,.11,1v1.81a1.34,1.34,0,0,0,.09.64.58.58,0,0,0,.39.16V46H77.26v-.17a.5.5,0,0,0,.4-.21,1.26,1.26,0,0,0,.09-.59v-1.9a3.48,3.48,0,0,0,0-.75.42.42,0,0,0-.15-.24.36.36,0,0,0-.24-.08.69.69,0,0,0-.41.15,1.87,1.87,0,0,0-.42.45v2.37a1.33,1.33,0,0,0,.08.6.49.49,0,0,0,.42.2V46H74.68v-.17a.51.51,0,0,0,.29-.09.41.41,0,0,0,.14-.2,2.14,2.14,0,0,0,0-.51v-1.9a3.43,3.43,0,0,0,0-.75.45.45,0,0,0-.16-.24.38.38,0,0,0-.24-.08.64.64,0,0,0-.35.1,1.87,1.87,0,0,0-.47.5v2.37a1.39,1.39,0,0,0,.09.62.49.49,0,0,0,.39.18V46H72.09v-.17a.55.55,0,0,0,.4-.18,1.36,1.36,0,0,0,.08-.61V42.58a1.25,1.25,0,0,0-.1-.63.56.56,0,0,0-.38-.16v-.17Z"/><path class="cls-1" d="M82.32,43.35a4.3,4.3,0,0,0-.08-1,.83.83,0,0,0-.26-.43.39.39,0,0,0-.26-.09.47.47,0,0,0-.4.24A2.08,2.08,0,0,0,81,43.19v.17Zm1.17.32H81.05a2.3,2.3,0,0,0,.47,1.39,1,1,0,0,0,.79.39.91.91,0,0,0,.51-.16,2.11,2.11,0,0,0,.5-.58l.16.1a2.72,2.72,0,0,1-.8,1,1.75,1.75,0,0,1-1,.3,1.67,1.67,0,0,1-1.49-.76,2.65,2.65,0,0,1-.41-1.51,2.51,2.51,0,0,1,.6-1.76,1.85,1.85,0,0,1,1.4-.66,1.52,1.52,0,0,1,1.16.55,2.51,2.51,0,0,1,.53,1.63"/><path class="cls-1" d="M85.45,41.62v.57a2.63,2.63,0,0,1,.65-.53,1.38,1.38,0,0,1,.67-.17,1.06,1.06,0,0,1,.71.24,1.14,1.14,0,0,1,.38.59,4.7,4.7,0,0,1,.07,1v1.72a1.42,1.42,0,0,0,.09.64.57.57,0,0,0,.39.16V46H86.19v-.17a.46.46,0,0,0,.36-.21,1.34,1.34,0,0,0,.08-.59v-2a3.26,3.26,0,0,0,0-.69.41.41,0,0,0-.15-.22.35.35,0,0,0-.22-.08q-.41,0-.76.58v2.37a1.34,1.34,0,0,0,.09.63.48.48,0,0,0,.35.17V46H83.65v-.17a.55.55,0,0,0,.4-.18,1.33,1.33,0,0,0,.08-.61V42.58A1.25,1.25,0,0,0,84,42a.56.56,0,0,0-.38-.16v-.17Z"/><path class="cls-1" d="M90.3,40v1.62h1.05v.47H90.3v2.73a2.23,2.23,0,0,0,0,.5.38.38,0,0,0,.13.18.29.29,0,0,0,.16.07c.21,0,.4-.16.58-.47l.14.1a1.29,1.29,0,0,1-1.24.91,1.12,1.12,0,0,1-.71-.23,1.06,1.06,0,0,1-.37-.52,4.58,4.58,0,0,1,0-.87V42.08H88.4v-.17a6.05,6.05,0,0,0,1-.88,5.28,5.28,0,0,0,.73-1Z"/><path class="cls-1" d="M38,28.18a.29.29,0,0,1-.12.12"/><path class="cls-1" d="M39.13,19.52a.23.23,0,1,0-.23-.23.23.23,0,0,0,.23.23"/><path class="cls-1" d="M49.63,14.44H47.09V10h2.54Zm0,2.13a1.43,1.43,0,0,1-.54,1.11l-2,1.19v-4.2h2.54Zm-2.76-2.12H44.52V10h2.34Zm0,4.56-.92.55h0a.39.39,0,0,1-.49,0L44.52,19V14.67h2.34Zm-3.29-6.2h.72v1.64h-.72Zm.72,6.07-2-1.19a1.44,1.44,0,0,1-.54-1.11v-1.9h2.54Zm-1.66-7.18h-.88V10h.88Zm.22-1.08.1-.11-.06-.12H43l.08-.14.08.14h.14l-.06.12.1.11-.13,0v.15l-.12-.09-.12.09v-.15Zm.62,1.8s-.06-.05-.09-.05-.11.13-.17.13-.08,0-.08-.05.1-.08.14-.12c-.54,0-.55.25-.64.25s.12-.26.19-.34c-.11,0-.17-.15-.29-.22.06-.08.09,0,.16,0s0-.12.17-.12.17.23.21.23,0-.23.16-.23.54.62.27.62c-.12,0,0-.09,0-.11m-.58,1.32H43l.08-.14.08.14h.14l-.06.12.1.11-.13,0v.15L43.1,14l-.12.09V14l-.13,0,.1-.11Zm-1-1.67H42l.08-.14.08.14h.14l-.06.12.1.11-.13,0v.15l-.12-.09-.12.09v-.15l-.13,0,.1-.11Zm-.15.73h.88v1.64h-.88Zm2-.51.1-.11-.06-.12h.13l.08-.14.08.14h.14l-.06.12.1.11-.13,0v.15L44,12.37l-.12.09v-.15Zm.52-.6h-.72V10h.72Zm5.57-2H41.52v6.74a1.53,1.53,0,0,0,.66,1.39l3.21,1.92a.39.39,0,0,0,.29.13.39.39,0,0,0,.26-.1l3.26-1.95a1.53,1.53,0,0,0,.65-1.39V9.74Z"/><path class="cls-1" d="M44.15,16.21s-.32.1-.23.09a.91.91,0,0,1,.25-.34c0-.11-.15,0-.29.06.47-.68.17-.4-.1-.35.42-.46.31-.45,0-.31.25-.2.3-.43.26-.5-.23.31-.44.26-.44.54a1.14,1.14,0,0,1-.16.6c-.12.13,0-.5-.35-.5-.1,0-.35,0-.42.12s.17.17.17.24.06.25,0,.25-.24-.23-.24-.35,0-.09,0-.25a.91.91,0,0,0-.62-.65c0,.19.25.23.25.47-.11,0-.25-.2-.25-.08s.16.14.16.25-.18,0-.18.07.1.08.12.18-.14,0-.15,0,0,.07.08.11,0,.08,0,.24c0,.53.33.78.58.78s.15-.12.17-.18c0,.09.09,0,.09.11s-.17.09-.17.23.27,0,.27.21a2.47,2.47,0,0,1,0,.35c0,.07.28-.09.26-.12s.06.22.19.22.1-.2.16-.22.25.19.25.1c0-.25-.1-.14-.1-.31s.34-.13.29-.21-.08,0-.11-.14-.27-.39.06-.18.38-.52.37-.56"/><path class="cls-1" d="M53.06,18a.24.24,0,1,0-.27-.24.26.26,0,0,0,.27.24"/><path class="cls-1" d="M51.95,18.64a.24.24,0,1,0-.27-.24.26.26,0,0,0,.27.24"/><path class="cls-1" d="M38.76,20.15a.24.24,0,1,0-.28-.24.26.26,0,0,0,.28.24"/><path class="cls-1" d="M39.61,20.23a.24.24,0,1,0-.27-.24.26.26,0,0,0,.27.24"/><path class="cls-1" d="M63.36,8.72a1.71,1.71,0,0,1,.2,1.82c-.16,0-.13-.22-.16-.34a2.18,2.18,0,0,1-.26-1.85c.19,0,.12.26.22.37"/><path class="cls-1" d="M28.52,9.38a2.61,2.61,0,0,0,0,1.16c-.07.07-.06-.07-.13-.06-.57-.41-.31-1.22-.45-1.79a.11.11,0,0,1,.15,0,1,1,0,0,1,.44.72"/><path class="cls-1" d="M64.61,9.42c.09.16-.07.32-.19.4a.38.38,0,0,1-.36-.16.34.34,0,0,1,.17-.38.38.38,0,0,1,.38.15"/><path class="cls-1" d="M27.63,10.07a.43.43,0,0,1-.19.32c-.09,0-.22,0-.28-.07A.27.27,0,0,1,27.1,10a.34.34,0,0,1,.28-.13c.1,0,.2.07.25.19"/><path class="cls-1" d="M65.17,10.32a.33.33,0,0,1,0,.23.33.33,0,0,1-.39.13.4.4,0,0,1-.16-.25.44.44,0,0,1,.25-.26.47.47,0,0,1,.31.15"/><path class="cls-1" d="M64.35,10.33c.12.06,0,.2,0,.29s-.17.19-.31.15-.16-.07-.19-.17a.32.32,0,0,1,.2-.34.36.36,0,0,1,.28.07"/><path class="cls-1" d="M63.28,10.55c0,.16,0,.37-.17.4a.28.28,0,0,1-.33-.21.34.34,0,0,1,.22-.35.39.39,0,0,1,.29.16"/><path class="cls-1" d="M29.21,10.63c0,.15-.1.23-.19.31a.3.3,0,0,1-.29-.16c-.1-.1,0-.19.06-.28a.27.27,0,0,1,.42.13"/><path class="cls-1" d="M28.34,10.67a.3.3,0,0,1-.16.28.26.26,0,0,1-.29-.13.25.25,0,0,1,.13-.34c.16-.06.26.09.32.19"/><path class="cls-1" d="M59.76,10.73a3.06,3.06,0,0,1,.29,1.05c-.06.28,0,.65-.16.84-.2-.07-.22-.32-.35-.46a2.56,2.56,0,0,1,.06-1.61c.12,0,.12.1.16.18"/><path class="cls-1" d="M27.66,10.91c0,.18-.09.26-.19.37s-.29-.09-.36-.21a.37.37,0,0,1,.19-.35.37.37,0,0,1,.36.19"/><path class="cls-1" d="M62.06,11.33a2.13,2.13,0,0,1,.07,1.41l-.09.07a5.73,5.73,0,0,1-.59-1.19,1.94,1.94,0,0,1,.17-.84c.1-.07.16,0,.2.1a.57.57,0,0,0,.23.44"/><path class="cls-1" d="M63.9,11.07a.38.38,0,0,1-.22.35.26.26,0,0,1-.34-.18.32.32,0,0,1,.16-.35c.16-.09.32.06.4.18"/><path class="cls-1" d="M28.36,11.52a.31.31,0,0,1-.22.28c-.12.09-.2-.06-.31-.1a.35.35,0,0,1,0-.34c0-.09.15-.09.23-.12s.26.13.29.28"/><path class="cls-1" d="M29,11.45c.06.15-.1.22-.16.29s-.26-.07-.33-.18.06-.23.16-.32.26.07.34.2"/><path class="cls-1" d="M64.3,11.4c0,.19-.31.38-.34.57a1.48,1.48,0,0,1-.9.82.68.68,0,0,1-.33.19c0-.29.23-.56.39-.82a2.16,2.16,0,0,1,1.18-.76"/><path class="cls-1" d="M28.06,12a5.56,5.56,0,0,0,.6.69.12.12,0,0,1-.1.15c-.71,0-1.19-.78-1.54-1.29,0-.16.23,0,.33,0,.25.19.52.25.71.5"/><path class="cls-1" d="M64.51,12.22a1.87,1.87,0,0,1-.9,1.58c-.16.06-.33.22-.49.12a7.39,7.39,0,0,1,1.28-1.7Z"/><path class="cls-1" d="M61.71,12.65a.36.36,0,0,1-.25.43c-.16,0-.26-.12-.34-.23a.31.31,0,0,1,.2-.32.23.23,0,0,1,.18,0c.09,0,.13.1.2.18"/><path class="cls-1" d="M27.26,12.78a8.33,8.33,0,0,1,.78.69c-.19.13-.42,0-.64,0-.5-.18-.83-.6-1.34-.75,0-.16.2-.1.31-.15a2.66,2.66,0,0,1,.89.19"/><path class="cls-1" d="M42.85,8.44c-.82-.32-1.35.53-2.18.43-.1.06-.07.16-.13.23s-.12,0-.16,0c0-.35-.16-.67-.2-1-.09-.15,0-.35-.12-.5-.47-1.27,1.13-.31,1.45-1.05S41,5.8,40.73,5.35V5.16c-.23-.23-.48-.31-.63-.61a2.13,2.13,0,0,0,0-1.13c0-.09-.07-.21-.2-.16-.28.38-.48.69-.74,1.06a7.86,7.86,0,0,0-.86-.65c-.22,0-.42-.25-.67-.16a.2.2,0,0,0,0,.22,2.1,2.1,0,0,0,.71,1.44l0,.22a6.63,6.63,0,0,0-.26,1.93A10.71,10.71,0,0,1,35,11.75c-.83.94-1.82,1.85-2,3.14,0,.21,0,.46-.13.6a5,5,0,0,1-1.35-.72c-.67-.47-1.63-.41-2.07-1.26-.18-.34,0-.67.2-.92a1.7,1.7,0,0,0,.16-1.88c-.06,0-.07.06-.12.07,0,.86-.73,1.47-.47,2.42.06.28.2.45.28.72a2.21,2.21,0,0,1-.33-.07,3.55,3.55,0,0,0-1-.13c-.67.31-1.59-.07-2.12.54-.09,0-.2,0-.17.16.32,0,.63.09.95.07.51.09.84-.34,1.19-.53h.09c.15-.15.39-.06.58-.09a5.87,5.87,0,0,1,2.39,1v.06c-.29.13-.63.22-.92.38a2,2,0,0,0-.81,1c-.23.37.07.69.22,1,0,.15,0,.32.16.38.47-.5,0-1.11.1-1.68a1.19,1.19,0,0,1,.95-.76c.83-.35,1.43.32,2.09.7a10,10,0,0,1-.07,2,1.8,1.8,0,0,1-.68.1,12.44,12.44,0,0,0-3.08,1.07c-.47.16-1,.15-1.49.32a3.64,3.64,0,0,0,1.12,0c1.43-.21,2.52-1.3,4.06-1.11l0,0a3.4,3.4,0,0,1-.68,1c0-.16-.06-.29-.2-.38a.27.27,0,0,0-.33.12.2.2,0,0,0,0,.22.48.48,0,0,0,.32.21c0,.13-.19.19-.28.31-.41.69-1.24.41-1.72.89-.07.1-.34.16-.22.32a2.18,2.18,0,0,0,1.5-.38c.54-.6,1.1-1.17,1.64-1.74a1.75,1.75,0,0,1-.32,1.33,1.7,1.7,0,0,0-.39-.22.36.36,0,0,0-.26.29.85.85,0,0,0,.22.29,5.14,5.14,0,0,1-1.69.54,29.09,29.09,0,0,1-3.17.23,7.16,7.16,0,0,1-1.57,0c-.56.1-1.15-.07-1.6.23-.06.07,0,.15,0,.22.67.44,1.59.09,2.34.22H32.2a2.55,2.55,0,0,0,1.18-.22,4.27,4.27,0,0,0,1.53-1.93,3,3,0,0,0,.31-.88A1.26,1.26,0,0,1,36.3,18a6.69,6.69,0,0,1-.25,2.23c-.09.47-.39.92-.2,1.42,0,.23.29.23.48.26,1.76,0,3.52-.1,5.38,0a4.46,4.46,0,0,0,1,.15s.13-.06.09-.15a.55.55,0,0,0-.35-.41c0-.09-.16-.06-.2-.12-.93-.53-2.05-.25-3.14-.23A2.34,2.34,0,0,1,37.48,21c-.22-.26-.06-1.1-.06-1.1a21,21,0,0,1,.9-2.83,2.58,2.58,0,0,0,.09-.68,2.86,2.86,0,0,0,.09-1,6.79,6.79,0,0,1,.45-1.36c.09-.22.16-.45.25-.67a2.23,2.23,0,0,1,.29-.76c.48.3.94.29,1.17.83l.2,1.22c0,.07.06.22.16.13.38-.25.26-.8.26-1.19S41,13,40.91,12.58a1.75,1.75,0,0,1-.27-.42c-.06-.32-.76-.54-.6-.94a1.19,1.19,0,0,1,.49-.83.15.15,0,0,1,.07.1l.18-.12,0-1.23c.47,0,1.18.06,1.65.06.13,0,.23.15.38.16L43,9.19,44.13,9c-.5.05-.81-.52-1.28-.52"/><path class="cls-1" d="M44.13,9l.11,0Z"/><path class="cls-1" d="M31.46,13a.32.32,0,0,1-.22.34c-.12,0-.2-.06-.28-.18s.09-.28.2-.34.26,0,.29.18"/><path class="cls-1" d="M30.51,13a.32.32,0,0,1,.06.34c-.1.09-.26.16-.35,0s-.17-.19-.1-.31.28-.19.39-.07"/><path class="cls-1" d="M50.77,13.21v0"/><path class="cls-1" d="M61.86,13.46c.06.16-.07.28-.19.34s-.33-.07-.33-.26a.28.28,0,0,1,.52-.07"/><path class="cls-1" d="M62.63,13.43c0,.07.14.19,0,.26a.54.54,0,0,0-.15.12.28.28,0,0,1-.35-.18c0-.16.1-.23.22-.31s.17,0,.25.1"/><path class="cls-1" d="M26.86,13.6a.29.29,0,0,1-.39.19.63.63,0,0,1-.12-.19.27.27,0,0,1,.16-.25.35.35,0,0,1,.35.25"/><path class="cls-1" d="M31.76,13.85c0,.12-.15.22-.25.28a.37.37,0,0,1-.32-.21.3.3,0,0,1,.17-.29.33.33,0,0,1,.39.22"/><path class="cls-1" d="M30.9,13.75a.23.23,0,0,1,0,.24c-.09.07-.22.2-.37.12s-.19-.13-.16-.28a.64.64,0,0,1,.22-.18c.12,0,.18,0,.26.1"/><path class="cls-1" d="M64.86,13.92a.39.39,0,0,1-.19.28.29.29,0,0,1-.32-.07c-.09,0-.06-.15-.06-.22a.5.5,0,0,1,.28-.19.54.54,0,0,1,.29.2"/><path class="cls-1" d="M65.79,14.06a.37.37,0,0,1-.28.26c-.09,0-.25,0-.22-.18a.25.25,0,0,1,.49-.09"/><path class="cls-1" d="M28.52,14.26a.29.29,0,0,1-.17.35c-.1.06-.21,0-.28-.07a.25.25,0,0,1-.07-.29c0-.13.16-.1.25-.16a.36.36,0,0,1,.28.18"/><path class="cls-1" d="M29.23,14.39c0,.12-.09.16-.12.25a.24.24,0,0,1-.26,0c-.1-.09-.22-.22-.12-.35s.42-.1.49.07"/><path class="cls-1" d="M64,14.32c0,.15-.12.25-.2.34a.25.25,0,0,1-.29-.18.3.3,0,0,1,.16-.28.32.32,0,0,1,.34.12"/><path class="cls-1" d="M65.19,14.55c0,.13,0,.28-.16.37a.42.42,0,0,1-.35-.06.27.27,0,0,1-.06-.31.34.34,0,0,1,.35-.18c.1.06.13.13.22.18"/><path class="cls-1" d="M28,14.86c.06.12-.07.15-.12.21a.29.29,0,0,1-.29,0c-.1-.06-.06-.21,0-.28.13-.25.39-.07.45.1"/><path class="cls-1" d="M64.27,15.14c.06,0,0,.1,0,.13a1.1,1.1,0,0,1-1.18-.06,4.54,4.54,0,0,0-.58-.32c.07-.19.33-.18.53-.22.42.06.76.45,1.22.47"/><path class="cls-1" d="M28.66,15c0,.12-.06.16-.09.25s-.17.06-.25,0a.24.24,0,1,1,.34-.28"/><path class="cls-1" d="M29.94,15.1a.26.26,0,0,1-.15.32c-.1.06-.19,0-.28,0s-.2-.22-.07-.34.39-.1.49.06"/><path class="cls-1" d="M46.77,15.72c0,.29-.51,0-.44.35a2.26,2.26,0,0,0,.29.82c.14.2.07.5.06.74a1.32,1.32,0,0,1-.55.48c-.42,0-1,.21-1.22-.31a2.07,2.07,0,0,1-.24-.7s.1,0,.14-.07-.11-.15-.1-.25c.47-.08-.19-.5.21-.53.33.35.87.24,1.16.61a1.19,1.19,0,0,0,.21.18c-.06-.35-.22-.7-.28-1.07a.49.49,0,0,1,.17-.49c.25-.2.46.08.6.24"/><path class="cls-1" d="M31.22,15.62c0,.15-.07.24-.16.31s-.2-.09-.26-.16.06-.22.15-.29a.31.31,0,0,1,.28.15"/><path class="cls-1" d="M40.2,15.77A2,2,0,0,1,40,17.41c0,.12,0,.31-.13.29-.39-.54-.1-1.3.06-1.87,0-.15.2-.21.25-.06"/><path class="cls-1" d="M52.66,16a1.64,1.64,0,0,1,0,1.36l-.12.12a3.36,3.36,0,0,1-.33-1,3.56,3.56,0,0,0,.18-.78c.2,0,.19.22.25.34"/><path class="cls-1" d="M32.36,16.21c-.09.18-.34.22-.5.34a1.73,1.73,0,0,1-1.3.25,1.59,1.59,0,0,1,1.66-.69c0,.06.1,0,.13.1"/><path class="cls-1" d="M26.38,16.74a3.92,3.92,0,0,1,1,1.44c0,.06.19.07.13.19s-.23-.09-.39-.06a1.61,1.61,0,0,1-.89-1.51c0-.06.09-.06.15-.06"/><path class="cls-1" d="M52.09,17.19c0,.15,0,.29-.13.34a.27.27,0,0,1-.33-.18c0-.1,0-.16.07-.23a.26.26,0,0,1,.39.07"/><path class="cls-1" d="M58.23,18a7.14,7.14,0,0,1,.1-.81.54.54,0,0,0,.06-.31c.35-.47,1.06-.32,1.61-.28a3.07,3.07,0,0,0,.73.16.54.54,0,0,1,.36-.07c.46-.25.16-.79.19-1.22L61.12,15a1.66,1.66,0,0,1-.12-.29c-.09-.1-.15-.29-.23-.4a5.88,5.88,0,0,0-1.13-1.52,6.16,6.16,0,0,0-3.07-1.89,5.1,5.1,0,0,0-3.35.48.84.84,0,0,1-.57-.62,2.89,2.89,0,0,1,.28-1.55,5.84,5.84,0,0,1,.39-1,10.38,10.38,0,0,0,.6-2.52,1.32,1.32,0,0,0-.78-1.16.79.79,0,0,0-.8.16,2.13,2.13,0,0,1-.94.85c0,.25.28.09.38.18.32.06.68,0,.95.16a2.47,2.47,0,0,1-.61,1.51A11.6,11.6,0,0,0,50.77,9.7l-.06-.06.07,3.58a4.09,4.09,0,0,0,1.91,1.94c.47.38,1.05.84,1.68.5.33-.1.36.37.52.56.17.54-.22.92-.25,1.42l-.38.81a10.57,10.57,0,0,1-1.5,2.48c-.22,0-.35.23-.57.25s-.35,0-.5.1c-.45.19-1.09.07-1.4.5a.2.2,0,0,0,.12.07c.89,0,1.88.07,2.82,0a.35.35,0,0,0,.23-.28c-.13-.25,0-.47.16-.66.07-.35.31-.57.41-.91.31-.6.65-1.19,1-1.79l.45-.73a5.14,5.14,0,0,1,.45-.82,1.9,1.9,0,0,0,.26-.4c0-.15-.06-.21-.15-.31.1-.1.26-.07.39-.1a1.65,1.65,0,0,1,.81,1l.13.38.06.18,0,.48.06.46a10.47,10.47,0,0,1-.13,2.13c-.25.85-1.22.76-1.92,1-.17.12-.51.06-.51.35a13,13,0,0,0,2.73.06c.15-.06.18-.19.25-.32s.22-.35.16-.56,0-.53-.06-.81a.47.47,0,0,0,0-.28c.12-.43.09-.94.17-1.35Z"/><path class="cls-1" d="M65.39,17.4A3.65,3.65,0,0,1,63.62,19c-.06,0-.12,0-.15,0,.5-.53.76-1.35,1.53-1.54a.47.47,0,0,1,.39-.06"/><path class="cls-1" d="M25.66,18.12c-.07.06,0,.19-.15.21a.24.24,0,0,1-.31-.13.26.26,0,0,1,.19-.32c.12.06.23.1.26.25"/><path class="cls-1" d="M29.85,18.32c0,.13-.1.13-.18.16A1.58,1.58,0,0,1,28,18.06c0-.06,0-.12.06-.13.6.15,1.3,0,1.79.39"/><path class="cls-1" d="M26.46,18.13a.39.39,0,0,1,0,.22.32.32,0,0,1-.36.13.47.47,0,0,1-.19-.19.35.35,0,0,1,.25-.28.44.44,0,0,1,.28.12"/><path class="cls-1" d="M40.1,18.2c0,.13-.09.22-.17.28a.29.29,0,0,1-.31-.12.21.21,0,0,1,.1-.28c.13,0,.33,0,.38.12"/><path class="cls-1" d="M65.95,18.26c0,.15-.09.22-.19.31a.32.32,0,0,1-.28,0c0-.07-.1-.13-.07-.23a.31.31,0,0,1,.33-.18,1.81,1.81,0,0,1,.2.15"/><path class="cls-1" d="M66.91,18.2c.09.13,0,.24-.06.34a.2.2,0,0,1-.26.09c-.09-.09-.2-.13-.22-.26s.13-.21.22-.25.2.09.32.09"/><path class="cls-1" d="M25.05,18.63c0,.1-.07.16-.1.25s-.15.09-.23.06a.43.43,0,0,1-.22-.23.28.28,0,0,1,.55-.07"/><path class="cls-1" d="M55.7,18.63a.41.41,0,0,1,0,.19c-.09.12-.2.22-.35.15s-.19-.18-.14-.31a.29.29,0,0,1,.48,0"/><path class="cls-1" d="M27.39,18.85c0,.1-.07.21-.2.22s-.17-.1-.25-.16,0-.26.11-.34a.27.27,0,0,1,.34.28"/><path class="cls-1" d="M26,18.88a.31.31,0,0,1-.15.32.34.34,0,0,1-.39-.21.41.41,0,0,1,.26-.34c.13,0,.21.15.28.22"/><path class="cls-1" d="M56.66,18.85a.29.29,0,0,1-.16.35c-.17.06-.32-.09-.39-.2s.09-.28.26-.31a.34.34,0,0,1,.29.16"/><path class="cls-1" d="M26.68,18.91c0,.1,0,.15-.07.22s-.11.09-.2.06-.18-.1-.19-.2.09-.22.19-.28a.27.27,0,0,1,.28.2"/><path class="cls-1" d="M65.15,19a.44.44,0,0,1-.25.24c-.12,0-.19-.07-.28-.12s0-.19,0-.26a.29.29,0,0,1,.54.15"/><path class="cls-1" d="M66.25,19.08a.38.38,0,0,1-.35.25c-.13-.06-.28-.16-.17-.34s.09-.12.17-.13a.28.28,0,0,1,.35.22"/><path class="cls-1" d="M59.34,19.19c.07.19-.1.25-.22.34a.69.69,0,0,1-.28-.12A.34.34,0,0,1,59,19a.35.35,0,0,1,.29.16"/><path class="cls-1" d="M55.34,19.36c.07,0,0,.13,0,.18s-.2.2-.33.12a.25.25,0,0,1-.15-.28.27.27,0,0,1,.45,0"/><path class="cls-1" d="M56.15,19.46a.2.2,0,0,1-.12.24c-.1.1-.22,0-.32,0a.23.23,0,0,1,0-.22.33.33,0,0,1,.19-.12c.1,0,.22,0,.26.15"/><path class="cls-1" d="M31.46,19.48c.09.09,0,.19,0,.28a.28.28,0,0,1-.36.07c-.14-.06-.13-.25-.1-.37s.09-.13.2-.13a.51.51,0,0,1,.29.15"/><path class="cls-1" d="M60.9,19.54c0,.15-.12.2-.22.23s-.26-.07-.33-.19.09-.15.12-.22c.2-.09.33.06.44.18"/><path class="cls-1" d="M60.11,19.54c.06.15-.1.22-.16.29a.29.29,0,0,1-.32-.06c-.07,0-.07-.13-.07-.22s.13-.16.23-.19a.38.38,0,0,1,.32.18"/><path class="cls-1" d="M66.67,19.71c0,.21-.23.1-.34.16a2.34,2.34,0,0,1-2-.13c0-.19.26-.12.38-.19.63-.4,1.27.09,1.89.12Z"/><path class="cls-1" d="M26.84,19.54l-.06.1a2.36,2.36,0,0,1-1.88.34l-.06-.09a2.63,2.63,0,0,1,2-.4Z"/><path class="cls-1" d="M62.38,19.64a.33.33,0,0,1-.15.28.29.29,0,0,1-.38-.16c0-.12.07-.23.19-.28s.28,0,.34.16"/><path class="cls-1" d="M29.45,19.7c-.06.12,0,.24-.18.29a.32.32,0,0,1-.36-.19c0-.16.07-.2.14-.28s.31,0,.39.18"/><path class="cls-1" d="M28.41,19.77c0,.1,0,.16-.07.23a.27.27,0,0,1-.29,0c-.1-.09-.21-.19-.16-.35a.81.81,0,0,1,.24-.16.33.33,0,0,1,.29.23"/><path class="cls-1" d="M63.4,20.11a.32.32,0,0,1-.23.27.34.34,0,0,1-.28-.15.23.23,0,0,1,.06-.28s.13,0,.19-.07a.31.31,0,0,1,.26.23"/><path class="cls-1" d="M27.34,19.95c0,.12-.06.16-.07.25a2.16,2.16,0,0,1-.32.63c-.28.34-.67.34-1.06.44l-.06-.12a3.81,3.81,0,0,1,1.47-1.23Z"/><path class="cls-1" d="M62.67,20.27c0,.18-.12.21-.22.28a.33.33,0,0,1-.29-.17c0-.16.1-.22.19-.29a.29.29,0,0,1,.32.19"/><path class="cls-1" d="M29,20.27s0,.06,0,.07-.13.2-.22.28a.39.39,0,0,1-.32-.15.24.24,0,0,1,.14-.34c.13,0,.31,0,.35.13"/><path class="cls-1" d="M65.35,20.71c.15,0,.17-.19.33-.22a.35.35,0,0,1,.35.16c.06.18-.07.26-.19.34s-.32-.09-.31.1a.45.45,0,0,1,.21.29c0,.06-.13,0-.17,0a1.85,1.85,0,0,1-1-.91c-.06-.13-.33-.23-.18-.35a1.34,1.34,0,0,1,1,.57"/><path class="cls-1" d="M66.75,20.26a.22.22,0,0,1,0,.28c-.07.15-.29.09-.42.07s-.15-.15-.11-.26a.45.45,0,0,1,.22-.19.41.41,0,0,1,.34.1"/><path class="cls-1" d="M61.46,21a2.13,2.13,0,0,1,.32.59s-.1,0-.13,0c-.49-.28-1.14-.59-1.32-1.17,0-.06-.16-.13-.15-.23a1.35,1.35,0,0,1,1,.41c.1.15.22.22.28.38"/><path class="cls-1" d="M28.2,20.49c.06.13-.06.24-.13.29a.34.34,0,0,1-.33-.12c-.1-.16.09-.29.2-.35s.19.1.26.18"/><path class="cls-1" d="M63.28,20.83c0,.09-.1.15-.15.21s-.23.06-.33,0-.1-.19,0-.26.39,0,.49.1"/><path class="cls-1" d="M66.91,21a.34.34,0,0,1-.2.37.38.38,0,0,1-.35-.13c-.07-.09,0-.18,0-.28a.37.37,0,0,1,.38-.1.78.78,0,0,1,.18.15"/><path class="cls-1" d="M56.84,23.06c0,.18-.32.13-.45.26a3.11,3.11,0,0,1-1.53.22v-.09a2.16,2.16,0,0,1,2-.4"/><path class="cls-1" d="M35.6,23.69a.28.28,0,0,1-.22.25.28.28,0,0,1-.25-.15c-.06-.18.09-.25.19-.32a.34.34,0,0,1,.28.22"/><path class="cls-1" d="M56.59,23.85a.41.41,0,0,1-.22.34c-.13,0-.22,0-.32-.1s0-.16,0-.24a.31.31,0,0,1,.58,0"/><path class="cls-1" d="M59.48,23.91a2.38,2.38,0,0,1-1.25.51l-.79,0-.07-.06a2.41,2.41,0,0,1,2.11-.53Z"/><path class="cls-1" d="M31.62,24.26a.26.26,0,1,1-.38-.19c.16-.1.32.07.38.19"/><path class="cls-1" d="M32.34,24.41c0,.07,0,.12-.06.19a.24.24,0,0,1-.28,0,.19.19,0,0,1-.09-.25c0-.09.13-.07.18-.13a.41.41,0,0,1,.25.19"/><path class="cls-1" d="M26.77,25.88c-.15.18-.38,0-.54-.13-.51-.29-.5-.86-1-1.2.06-.17.19,0,.29,0a2.07,2.07,0,0,0,.31.16c.5.28.61.75.95,1.19"/><path class="cls-1" d="M46.05,25.61a1.31,1.31,0,0,0-.16.51l-.06,0c0-.22-.17-.35-.12-.59-.11-.18-.11-.4-.22-.59s.12-.34.22-.5c.2.09.28.28.42.45s-.1.44-.09.68M69.19,20.2a1.16,1.16,0,0,0-1.09-.6,1,1,0,0,0-.81.6.74.74,0,0,0,.28.81.22.22,0,0,0,.29-.07c.07-.19-.13-.19-.16-.34a.48.48,0,0,1,.16-.51c.15-.15.39-.07.57-.07a1,1,0,0,1,.44.42,1.18,1.18,0,0,1,0,.78,1.3,1.3,0,0,1-.9.73c-1.21.18-14.47.12-14.47.12-1.56.15-3.33-.29-4.67.53a2.32,2.32,0,0,0-1.08,1.57,10.6,10.6,0,0,0-1.14,1.16l0,0c.07-.35.23-.66.31-1a6.2,6.2,0,0,0,.38-1,8.06,8.06,0,0,1,1.93-2.43c.36-.48,1-.4,1.56-.4a3.85,3.85,0,0,0,2,.29.14.14,0,0,0,0-.1c-.21-.19-.54-.26-.77-.45-.58-.28-1.13.09-1.75,0,0,0-.06,0,0-.09a8.51,8.51,0,0,1,1.8-1,12.31,12.31,0,0,1,1.59-.63c.22,0,.42-.19.63-.06l.77-.21s.06.06.12,0a8,8,0,0,1,2.23,0l.1.09.7.18c.26,0,.38.34.66.35.14-.21-.16-.29-.23-.42a1.6,1.6,0,0,1,1,.15l-.15.16c-.09.16,0,.28.17.34s.18,0,.25-.07,0-.26,0-.38a13.87,13.87,0,0,1,3.1.88,2.47,2.47,0,0,0,.85.28,3.85,3.85,0,0,0-1.11-.58c-.25-.15-.6-.16-.78-.37,0-.07.14,0,.19-.1a2.15,2.15,0,0,0,1.27-.82c0-.09.19-.06.18-.18s-.35,0-.52,0c-.61.12-.87.84-1.48,1-.74-.18-1.5-.35-2.24-.54A4.56,4.56,0,0,1,58.23,18l-.82-.07H55.93s-.06,0,0-.09c.52-.13,1-.44,1.5-.57l3.9-1.79a9.66,9.66,0,0,0,1.11-1.2.28.28,0,0,0-.16-.28.24.24,0,0,0-.29.06c-.18.13,0,.29,0,.45a2.46,2.46,0,0,1-.67.57c-.06,0-4,1.8-4,1.8a10,10,0,0,1-1.77.66l-.85.13a.56.56,0,0,1-.37.34,3.44,3.44,0,0,1-.67.19,14.81,14.81,0,0,0-5.35,3,1.67,1.67,0,0,0,.15-.62,1.2,1.2,0,0,0-.16-.64c0-.08-.14-.32-.11-.4l-.21.14a2,2,0,0,0-.12,1.25c0,.26.26.57.06.8a13.45,13.45,0,0,0-1.56,2.84c-.17,0-.26-.19-.34-.35a4.89,4.89,0,0,0,1-2.14c.1-.07,0-.26.13-.35s.13-.47,0-.66c.09-.32-.42-.62-.1-.82l-.27.13c-.63.82.32,2.05-.39,2.84v.06c-.2.26-.3.53-.58.7-.35-.15-.48-.54-.68-.84A1.3,1.3,0,0,1,45,21.77c.13-.42-.09-.79-.13-1.17l-.15-.09a1.69,1.69,0,0,0-.2,1.71c.15.26.16.63.38.85a4.7,4.7,0,0,0,.63,1.08c.06.15-.09.18-.16.25-.16-.1-.13-.34-.28-.44a10.66,10.66,0,0,0-1.86-2.68c0-.13-.16-.25-.09-.4a1.07,1.07,0,0,0,.19-1.11c0-.07-.12-.16-.1-.24L43,19.36c0,.51-.31,1-.16,1.51v0A27.62,27.62,0,0,0,38,18l-.13.37a10.22,10.22,0,0,1,1.56.8A10.84,10.84,0,0,1,45,24.86c0,.16.16.34.06.5A7.87,7.87,0,0,0,44,24.24a2.14,2.14,0,0,0-1.11-1.63c-.22-.32-.68-.35-1-.45l-5.3,0c-4.31-.06-8.24.13-12.52.06-.6-.06-1.32-.26-1.5-.89a1,1,0,0,1,0-.81.89.89,0,0,1,.74-.4.78.78,0,0,1,.5.41c0,.19-.16.37-.23.53s.07.18.17.13a.68.68,0,0,0,.38-.47c0-.1.06-.25,0-.32a1,1,0,0,0-.68-.6,1.14,1.14,0,0,0-1.22,1.57,2,2,0,0,0,1.57,1.17l14.16.06a30.42,30.42,0,0,1,4.34.12,1.67,1.67,0,0,1,1.18,1.12s-.06,0-.1,0A6.3,6.3,0,0,0,39.15,23a5.07,5.07,0,0,0-1.63.34.83.83,0,0,1-.71-.23,2.42,2.42,0,0,0-2.11-.26s0,.09,0,.1c.71-.06,1.14.56,1.78.63.15,0,.26-.13.39,0a13.27,13.27,0,0,1-2,.91c-.22,0-.33-.25-.51-.37-.28-.31-.78-.18-1.17-.21-.13,0-.25-.06-.33,0a1.24,1.24,0,0,0,.63.48c.36.16.79,0,1.12.21a1.33,1.33,0,0,1-.31.21c-.68.26-1.25.88-2,.84a2.59,2.59,0,0,1-2.15-.7A1.46,1.46,0,0,0,28.66,24s-.1,0-.09.1c.32.19.57.57.89.79s.6,0,.79.28a2.59,2.59,0,0,0,.95.41,4.37,4.37,0,0,0,.76.21l-.1.06a12.45,12.45,0,0,1-4.34.43c-.44,0-.86-.15-1.29-.13a.81.81,0,0,0,.35.21.87.87,0,0,1-.39.12,2.64,2.64,0,0,0-.55.15,1.45,1.45,0,0,0-.63.15,3,3,0,0,1-.83.67c0,.06,0,.15.06.15.28-.12.63,0,.9-.15.48,0,.76-.57,1.14-.79a1.92,1.92,0,0,1,1.48-.18c.29.07,0,.19.06.38s.22.22.38.17a.26.26,0,0,1,.1-.07.34.34,0,0,0,0-.37c.2-.13.48,0,.7-.07.55,0,1.11-.13,1.64-.15.09,0,.19-.1.28,0s-.19.13-.13.29.18.19.29.22.28-.16.22-.35-.14-.12-.22-.16c.31-.15.65-.19,1-.34a2.75,2.75,0,0,0,.61-.21c.19,0,.35-.19.52-.12a3,3,0,0,1-.31.71,3.51,3.51,0,0,0,0,2.55s.06,0,.09,0a3.5,3.5,0,0,1,.13-2.4c.2-1.25,1.49-1.61,2.4-2.08l0,.06a4.58,4.58,0,0,0-.55,2c0,.13-.06.26,0,.35a1.53,1.53,0,0,0,.54-.68c.1-.66-.28-1.48.39-2a10.23,10.23,0,0,1,3.7-1.1s.15,0,.16.06c-.29.33-.71.63-.85,1a3.32,3.32,0,0,0-.25,2.54c.13.45-.26.7-.45,1.05-.09.12-.12.34-.2.48l.29,0a1.56,1.56,0,0,0,.5-1,.4.4,0,0,0,.28.29c.1-.16-.09-.28-.1-.44.23-.13.34.16.53.22a3.69,3.69,0,0,0,.89.21l.1-.1A1.8,1.8,0,0,0,39,27a2.93,2.93,0,0,1-.26-1.67,2.55,2.55,0,0,1,.29-.91,2.22,2.22,0,0,1,.41-.56,2,2,0,0,1,.92-.5h0a.07.07,0,0,0,0,0c-.39.31-.43.73-.67,1.11a1.23,1.23,0,0,0-.13,1.28c.09.19,0,.48.25.62a3.29,3.29,0,0,0,.3-.9c0-.48-.33-.94-.06-1.41a1.2,1.2,0,0,1,.79-.64,4.49,4.49,0,0,1,2.2.64c.15.1.39.19.42.4a1.19,1.19,0,0,1-1.86,1,1,1,0,0,1-.23-.89A.6.6,0,0,1,42,24.3c.15.07.28.22.47.13a.19.19,0,0,0,.06-.24c-.16-.09-.22-.31-.44-.34a1,1,0,0,0-.8.16,1,1,0,0,0-.33,1,1.25,1.25,0,0,0,.9.94,1.68,1.68,0,0,0,1.79-.61,2,2,0,0,0,.32-.63,3.8,3.8,0,0,1,1.5,1.94,3.07,3.07,0,0,1,0,.73l.51,0a.49.49,0,0,1,0-.35,4.41,4.41,0,0,1,1.5-2.4c.25-.15.19.19.25.29a2,2,0,0,0,1.26,1.11,1.59,1.59,0,0,0,1.57-.51c.19-.35.42-.86.1-1.23A1,1,0,0,0,50,24a1,1,0,0,0-.8.54c0,.12,0,.25.09.31s.18,0,.22-.07.22-.32.39-.44a.45.45,0,0,1,.47.09.77.77,0,0,1,.2.57.89.89,0,0,1-.48.69,1.48,1.48,0,0,1-1.4-.13,3.28,3.28,0,0,1-.41-.65,1.08,1.08,0,0,1,0-.67,4.94,4.94,0,0,1,2.08-.73,1.49,1.49,0,0,1,.77.48c.67.69-.14,1.67.32,2.43.18,0,.18-.26.25-.41a2.58,2.58,0,0,0-.19-1.61,3,3,0,0,0-.55-.86.36.36,0,0,1,.17,0,3.61,3.61,0,0,1,.89.76,3.93,3.93,0,0,1,.57,2.4c-.12.44-.58.65-.95.8a1.37,1.37,0,0,0-.39.47c.17.1.42,0,.6-.07s.44-.46.63-.61c0,0,0,.06,0,.09s-.07.38.07.42a5.16,5.16,0,0,0,.13-.75,1.44,1.44,0,0,1,.28.73c.13.26.35.62.7.66.09-.13,0-.26,0-.38,0-.37-.35-.56-.55-.82-.51-.7-.28-1.8-.67-2.59a3.07,3.07,0,0,0-.78-1.08l.06-.06a8.54,8.54,0,0,1,2,.35c.8.39,2,.31,2.34,1.35a3.85,3.85,0,0,0,.83,1.58l0,0a.6.6,0,0,0,0-.54c-.09-.73-.73-.91-1.06-1.53l0-.06a10.11,10.11,0,0,1,1.06.34A3.13,3.13,0,0,1,59,27.57a5.73,5.73,0,0,1-.54,2.51c0,.12-.25.25-.12.35.16-.12.19-.31.28-.44A4.08,4.08,0,0,0,59.09,27c0-.19-.23-.34-.13-.53a.47.47,0,0,0,.25.13c.09-.06.22-.06.28-.16s.07-.19,0-.26a.4.4,0,0,0-.42-.1.73.73,0,0,0-.17.32,3,3,0,0,0-.52-.78l0,0c.65.22,1.25.54,1.92.72a1,1,0,0,0,.51.16,14.48,14.48,0,0,0,1.79.46c.44,0,.8.16,1.24.06v0h0c-.16-.2-.51,0-.7-.16a10.92,10.92,0,0,1-2.87-.72s.07,0,.12,0a.38.38,0,0,0,.23-.37.39.39,0,0,0-.33-.16.41.41,0,0,0-.22.25.36.36,0,0,0,.22.28s-.09,0-.13,0l-1.32-.6c-.16,0-.29-.16-.45-.19-.34-.16-.67-.32-1-.45a22.75,22.75,0,0,0-3-1.1l-.63-.18-1.09-.29a5.52,5.52,0,0,0-4,.34c-.17-.06-.28.22-.36,0a2,2,0,0,1,2-1.1c5.84-.06,11.31-.1,17.06-.19a1.84,1.84,0,0,0,1.67-.84,1.47,1.47,0,0,0,.1-1.35"/><path class="cls-1" d="M61.84,24.68s.09.06.06.13a3,3,0,0,1-2,.62c-.06,0-.12.06-.19,0s-.06-.07,0-.1a2.22,2.22,0,0,1,2.11-.69"/><path class="cls-1" d="M59.5,24.92c.06.21-.07.32-.23.4a.42.42,0,0,1-.32-.24c0-.12.06-.17.1-.25a.28.28,0,0,1,.45.09"/><path class="cls-1" d="M31.83,24.95a.3.3,0,0,1-.07.31.3.3,0,0,1-.26.07c-.1,0-.16-.13-.19-.22a.32.32,0,0,1,.19-.28c.12,0,.25,0,.34.12"/><path class="cls-1" d="M29.23,25.9V26a1.13,1.13,0,0,1-.95-.22,2,2,0,0,0-.77-.73s-.09-.1,0-.13c.73,0,1.17.59,1.72,1"/><path class="cls-1" d="M64.05,24.93c-.34.5-.63,1.11-1.22,1.34-.1,0-.19.15-.28,0a2.67,2.67,0,0,1,1.3-1.39.48.48,0,0,1,.2,0"/><path class="cls-1" d="M32.68,25.11c0,.16-.1.19-.2.28s-.18-.07-.25-.16.07-.2.15-.28a.3.3,0,0,1,.31.16"/><path class="cls-1" d="M65.89,25.2c-.13.19-.07.47-.2.67-.29.34-.54.72-1,.79-.07-.15.1-.29.17-.42a2.09,2.09,0,0,1,1-1.13Z"/><path class="cls-1" d="M24.72,25.33a.29.29,0,0,1,0,.32.34.34,0,0,1-.34.06.27.27,0,0,1-.11-.35c.09-.13.35-.21.45,0"/><path class="cls-1" d="M23.89,25.5c0,.07.06.13,0,.21a.33.33,0,0,1-.2.18.3.3,0,0,1-.33-.19.29.29,0,0,1,.14-.31.3.3,0,0,1,.35.12"/><path class="cls-1" d="M25.61,25.59c0,.12.06.32-.12.35s-.32-.06-.44-.18a.33.33,0,0,1,.17-.29.4.4,0,0,1,.38.12"/><path class="cls-1" d="M28,25.78c0,.1,0,.25-.1.28s-.2,0-.28,0-.19-.16-.1-.26a.55.55,0,0,1,.2-.16c.09,0,.22,0,.28.12"/><path class="cls-1" d="M67.29,25.88c0,.1-.1.23-.22.23s-.26,0-.33-.16.07-.25.19-.29.33.06.36.22"/><path class="cls-1" d="M64.62,26c0,.12-.12.21-.17.25A.35.35,0,0,1,64,26a.37.37,0,0,1,.25-.26.38.38,0,0,1,.38.23"/><path class="cls-1" d="M66.43,25.93a.31.31,0,0,1-.13.25.33.33,0,0,1-.35-.06c-.13-.12,0-.22.06-.31s.38-.06.42.12"/><path class="cls-1" d="M24.34,26.18a.31.31,0,0,1-.18.37.34.34,0,0,1-.32-.21A.28.28,0,0,1,24,26a.33.33,0,0,1,.35.15"/><path class="cls-1" d="M63.9,26.34a.32.32,0,0,1-.21.38.3.3,0,0,1-.28-.1c-.06-.07-.13-.23,0-.31a.29.29,0,0,1,.5,0"/><path class="cls-1" d="M32.17,26.5c.06.16-.12.19-.16.28s-.18,0-.22,0-.16-.18-.12-.31.1-.12.19-.14.22.1.31.19"/><path class="cls-1" d="M67,26.6c0,.1-.06.15-.07.22a.39.39,0,0,1-.33.06c-.13-.07-.13-.19-.13-.32s.1-.13.2-.16a.33.33,0,0,1,.34.2"/><path class="cls-1" d="M66.12,26.65c.06.18-.1.26-.22.31s-.15,0-.16.06a3.91,3.91,0,0,1,.9.78v.12a2,2,0,0,1-1.44-.56c-.1-.07-.27-.07-.39-.18.19-.19.54-.12.8-.13.19-.21-.22-.35,0-.53.09,0,.14-.1.26-.07a.5.5,0,0,1,.22.2"/><path class="cls-1" d="M60.17,26.66c0,.07-.06.16-.07.23a.29.29,0,0,1-.32.06c-.07-.1-.19-.19-.14-.34a.3.3,0,0,1,.54,0"/><path class="cls-1" d="M27.63,27.18c0,.13-.1.22-.25.23a.29.29,0,0,1-.26-.17c0-.1.06-.16.07-.24s.45,0,.44.18"/><path class="cls-1" d="M28.81,27c0,.2-.22.32-.29.53a1.49,1.49,0,0,1-1.17,1c-.06-.13.19-.29.25-.42A3,3,0,0,1,28.72,27Z"/><path class="cls-1" d="M59.82,27.19c0,.16-.13.28-.25.34s-.23-.06-.31-.12,0-.23,0-.35.42,0,.54.13"/><path class="cls-1" d="M60.72,27.29a.36.36,0,0,1-.26.32s-.1,0-.15,0a.32.32,0,0,1-.19-.26c.07-.07.1-.19.2-.21s.35,0,.39.18"/><path class="cls-1" d="M31.06,27.28a.31.31,0,0,1-.22.31.28.28,0,0,1-.28-.17c0-.13.1-.22.17-.29s.22.07.32.16"/><path class="cls-1" d="M32.07,27.34a.35.35,0,0,1-.28.25c-.1,0-.22-.06-.26-.17s.1-.22.2-.29a.31.31,0,0,1,.34.22"/><path class="cls-1" d="M63.85,28.36c.07.06.2.13.17.23-.23.1-.42-.16-.64-.2a3,3,0,0,1-.76-1.17c.13-.13.28,0,.39.07a2.87,2.87,0,0,1,.83,1.07"/><path class="cls-1" d="M64.39,27.34a.36.36,0,0,1,0,.32c-.09.15-.28.12-.41.09s-.21-.2-.12-.34.17-.15.28-.19.17.07.28.12"/><path class="cls-1" d="M33.4,27.72c0,.12,0,.29-.1.37a.28.28,0,0,1-.35-.18c-.07-.17.09-.2.18-.29s.19,0,.28.1"/><path class="cls-1" d="M60.68,28.67a2.16,2.16,0,0,1,.38,1c0,.1.07.2,0,.28H61a3.27,3.27,0,0,1-1.05-1.79.12.12,0,0,1-.06-.15c.15-.13.25.13.39.18Z"/><path class="cls-1" d="M35.3,28.17s0,0,0,0a1.93,1.93,0,0,1-2.07.26.11.11,0,0,1,.07-.13,3,3,0,0,1,1.28-.28Z"/><path class="cls-1" d="M32,28.24c-.5.31-.95.91-1.56,1.06-.12,0-.19.21-.33.12A2.15,2.15,0,0,1,32,28.13Z"/><path class="cls-1" d="M59.82,28.9a.23.23,0,0,1-.12.31.2.2,0,0,1-.28,0c-.13-.06-.13-.19-.13-.29s.14-.12.22-.16.23,0,.31.15"/><path class="cls-1" d="M58.61,29a.82.82,0,0,1-.52.38,2.22,2.22,0,0,1-1.38-.18c0-.12.16-.07.23-.15A3.15,3.15,0,0,1,58.42,29a.15.15,0,0,1,.19,0"/><path class="cls-1" d="M32,29.4c0,.06-.06.19-.18.23a.31.31,0,0,1-.29-.06c0-.09-.13-.16-.06-.26s.15-.13.23-.16a.31.31,0,0,1,.29.25"/><path class="cls-1" d="M32.84,29.53a.54.54,0,0,1-.2.28.32.32,0,0,1-.29-.1.35.35,0,0,1,0-.29c0-.07.13-.09.2-.13s.28.13.34.25"/><path class="cls-1" d="M59.54,29.68a.38.38,0,0,1-.1.28.25.25,0,0,1-.32.06c-.1,0-.13-.13-.17-.2s.06-.19.1-.29a.32.32,0,0,1,.49.16"/><path class="cls-1" d="M60.18,29.65c0,.07.06.15,0,.21s-.15.26-.32.19-.13-.09-.17-.12a.28.28,0,0,1,.17-.4c.13,0,.22.07.29.12"/><path class="cls-1" d="M32.31,30.08a.4.4,0,0,1-.15.4c-.16,0-.36,0-.42-.16a.39.39,0,0,1,.17-.42.35.35,0,0,1,.39.19"/><path class="cls-1" d="M33.14,30a1.34,1.34,0,0,1-.52,1.14c-.23,0-.47.26-.7.12v-.07A15.81,15.81,0,0,1,33.14,30"/><path class="cls-1" d="M57.26,30.35c.06.09,0,.16-.09.24s-.25.06-.35,0a.22.22,0,0,1-.07-.29.3.3,0,0,1,.19-.16c.13,0,.25.1.32.2"/><path class="cls-1" d="M34.6,31c.2.34.09.79.2,1.16-.25,0-.35-.25-.51-.4a4.62,4.62,0,0,1-.42-1.54.08.08,0,0,1,.1,0,3.71,3.71,0,0,1,.55.61c0,.1.09.1.07.19"/><path class="cls-1" d="M58,30.47c0,.12-.13.15-.2.22a.52.52,0,0,1-.28-.13c0-.15.07-.19.14-.26a.24.24,0,0,1,.34.18"/><path class="cls-1" d="M59.72,31.78s0,.13-.09.1h-.06a1.74,1.74,0,0,1-.79-1.39h.09a1.83,1.83,0,0,1,.85,1.3"/><path class="cls-1" d="M58.63,31.31a.35.35,0,0,1-.13.28c-.16,0-.41,0-.44-.19s.15-.22.22-.29a.3.3,0,0,1,.35.2"/><path class="cls-1" d="M57.66,31.62c-.2.54-.76.82-1.13,1.23-.07,0,0-.16,0-.22a2,2,0,0,1,1.12-1.32c.23,0,0,.19,0,.31"/><path class="cls-1" d="M58.76,32.06c0,.13-.13.19-.2.26a.43.43,0,0,1-.32-.16c0-.15.1-.19.19-.26a.3.3,0,0,1,.34.16"/><path class="cls-1" d="M47.95,5.56h-.16c-.42,0-.06.51.16.51s.3-.51,0-.51m-1.3.51c.42,0,0-.51-.2-.51H46c-.42,0,0,.51.21.51Zm-1.77,0c.42,0,0-.51-.2-.51h-.42c-.42,0,0,.51.2.51Zm3.05-.63a.36.36,0,0,1,0,.72H43.61a.36.36,0,0,1,0-.72Z"/><path class="cls-1" d="M48,12.13c0,.19.25.06.44.06s.45.13.45-.06S48.59,12,48.4,12s-.44-.09-.44.18m.81.45c.18,0,.2-.26.2-.48,0-.5-.4,0-.6-.47-.15.4-.56,0-.56.46s0,.49.29.49ZM47.55,10.4l.82.32.81-.32-.32,1.21.64-.13-.22.74.22.71-.57-.15.25,1.31-.81-.32-.82.32.34-1.31-.66.18.18-.74-.18-.71.63.1Z"/><polygon class="cls-1" points="45.66 11.78 45.52 11.77 45.59 11.89 45.48 12 45.62 12.03 45.62 12.18 45.75 12.08 45.88 12.18 45.88 12.03 46.02 12 45.91 11.89 45.98 11.77 45.83 11.78 45.75 11.63 45.66 11.78"/><polygon class="cls-1" points="45.02 12.6 44.88 12.59 44.95 12.71 44.84 12.83 44.98 12.85 44.98 13.01 45.11 12.91 45.24 13.01 45.24 12.85 45.38 12.83 45.27 12.71 45.34 12.59 45.19 12.6 45.11 12.46 45.02 12.6"/><polygon class="cls-1" points="46.11 12.5 45.97 12.48 46.03 12.61 45.93 12.72 46.06 12.75 46.06 12.9 46.2 12.8 46.33 12.9 46.33 12.75 46.46 12.72 46.36 12.61 46.42 12.48 46.28 12.5 46.2 12.35 46.11 12.5"/><polygon class="cls-1" points="46.22 13.29 46.14 13.28 46.18 13.35 46.12 13.41 46.19 13.43 46.19 13.52 46.27 13.46 46.34 13.52 46.34 13.43 46.42 13.41 46.36 13.35 46.4 13.28 46.31 13.29 46.27 13.21 46.22 13.29"/><polygon class="cls-1" points="45.26 13.53 45.02 13.51 45.13 13.72 44.95 13.91 45.19 13.96 45.19 14.22 45.41 14.05 45.63 14.22 45.63 13.96 45.87 13.91 45.68 13.72 45.8 13.51 45.55 13.53 45.41 13.28 45.26 13.53"/><polygon class="cls-1" points="45.7 0.39 46.21 1.66 47.51 1.27 46.85 2.46 47.96 3.25 46.62 3.47 46.7 4.83 45.7 3.92 44.69 4.83 44.78 3.47 43.44 3.25 44.55 2.46 43.89 1.27 45.19 1.66 45.7 0.39"/><path class="cls-1" d="M41,28.66c-.15.06-.22.1-.18.26l.18.77a.7.7,0,0,1-.05.51.94.94,0,0,1-.53.31,1.06,1.06,0,0,1-.62,0,.46.46,0,0,1-.3-.39l-.19-.81c0-.2-.12-.19-.29-.17l0-.06,1-.23v.06c-.19.05-.28.08-.23.29L40,30c0,.14.11.47.53.37a.47.47,0,0,0,.39-.65L40.71,29c0-.15-.09-.22-.34-.17v-.06L41,28.6Z"/><path class="cls-1" d="M42.45,28.82a.62.62,0,0,0-.67-.32c-.15,0-.3.14-.26.3s.1.17.36.22l.46.08a.52.52,0,0,1,.42.38c0,.21-.07.55-.61.67a2.51,2.51,0,0,1-.52,0c-.06,0-.07.06-.07.1l-.08,0-.13-.6.08,0a.62.62,0,0,0,.71.39c.35-.08.31-.32.3-.35s-.18-.19-.39-.22l-.21,0c-.54-.09-.59-.3-.61-.41s0-.5.54-.62a2.51,2.51,0,0,1,.47,0c.07,0,.07-.05.08-.1l.09,0,.12.53Z"/><path class="cls-1" d="M44.37,29.78l-1.06.1v-.06c.22,0,.29,0,.26-.25l-.12-1.31c-.21,0-.51.07-.53.47h-.09l0-.5,1.77-.17.05.5h-.09c-.1-.39-.4-.37-.61-.36l.12,1.31c0,.21.09.21.31.2Z"/><path class="cls-1" d="M45.55,28.9c.39,0,.54,0,.55-.37a.31.31,0,0,0-.35-.37c-.16,0-.17,0-.19.1Zm1.29.88h-.61l-.6-.79h-.08v.49c0,.2.06.21.26.23v.06l-1,0v-.06c.2,0,.26,0,.27-.22l0-1.1c0-.21-.09-.22-.26-.24v-.06l1,0c.21,0,.84,0,.83.45s-.31.38-.47.42l.58.72a.15.15,0,0,0,.12,0Z"/><path class="cls-1" d="M48,29.34l-.22-.64-.35.57Zm.83.7-1-.12v-.06c.18,0,.24,0,.25-.07a1.29,1.29,0,0,0-.09-.35l-.66-.08a1.45,1.45,0,0,0-.17.3c0,.09.13.12.23.14v.06l-.6-.08v-.06c.16,0,.21-.08.32-.25l.82-1.27H48l.49,1.38c.1.28.14.37.28.38Z"/><path class="cls-1" d="M50.51,30.39l-1.69-.31V30c.17,0,.26,0,.28-.13l.21-1.19c0-.16-.09-.19-.22-.22v-.06l1,.19v.06c-.21,0-.3,0-.34.17L49.59,30c0,.12,0,.15.23.19a.73.73,0,0,0,.83-.34h.08Z"/><path class="cls-1" d="M51.63,30.64l-1-.21v-.06c.16,0,.28,0,.31-.12l.24-1.18c0-.16-.1-.19-.24-.23v-.06L52,29V29c-.14,0-.28-.05-.31.11l-.24,1.18c0,.16.08.19.24.23Z"/><path class="cls-1" d="M52.86,30.22l-.24-.63-.34.57Zm.84.68-1-.1v-.06c.18,0,.24,0,.25-.07a1.34,1.34,0,0,0-.1-.34l-.67-.07a1.47,1.47,0,0,0-.16.31c0,.09.13.11.23.13v.06l-.6-.06v-.06c.16,0,.21-.08.32-.26l.79-1.29h.08l.53,1.37c.11.28.15.37.29.38Z"/><path class="cls-1" d="M45.59,10.91c-.17,0-.41.12-.41-.09s.2-.23.37-.23.45-.07.45.23-.24.09-.41.09m.52-.11c0-.6-.34,0-.52-.55-.14.43-.54.07-.54.53a.36.36,0,0,0,.13.34v.18a.08.08,0,0,0,.08.08h.64A.08.08,0,0,0,46,11.3V11.1a.39.39,0,0,0,.13-.31"/><path class="cls-1" d="M51.32,18.14A.24.24,0,1,0,51,17.9a.26.26,0,0,0,.27.24"/><path class="cls-1" d="M50,9.28a1.52,1.52,0,0,0-.13.26.13.13,0,1,0,.26,0L50,9.28"/><path class="cls-1" d="M41.24,9.28a1.53,1.53,0,0,0-.13.26.13.13,0,1,0,.26,0l-.13-.26"/><path class="cls-1" d="M43.43,9.28a1.53,1.53,0,0,0-.13.26.14.14,0,0,0,.13.14.14.14,0,0,0,.13-.14l-.13-.26"/><path class="cls-1" d="M45.63,9.28a1.53,1.53,0,0,0-.13.26.13.13,0,1,0,.26,0l-.13-.26"/><path class="cls-1" d="M47.83,9.28a1.53,1.53,0,0,0-.13.26.13.13,0,1,0,.26,0l-.13-.26"/><path class="cls-1" d="M41.24,12.29a1.56,1.56,0,0,1,.13.26.13.13,0,1,1-.26,0l.13-.26"/><path class="cls-1" d="M41.24,15.23a1.53,1.53,0,0,1,.13.26.13.13,0,1,1-.26,0l.13-.26"/><path class="cls-1" d="M41.59,17.55a1.49,1.49,0,0,1,.13.26.13.13,0,1,1-.26,0l.13-.26"/><path class="cls-1" d="M43.43,18.78a1.51,1.51,0,0,1,.13.26.14.14,0,0,1-.13.14A.14.14,0,0,1,43.3,19l.13-.26"/><path class="cls-1" d="M50.14,12.29a1.56,1.56,0,0,0-.13.26.14.14,0,0,0,.13.14.14.14,0,0,0,.13-.14l-.13-.26"/><path class="cls-1" d="M50.14,15.23a1.53,1.53,0,0,0-.13.26.14.14,0,0,0,.13.14.14.14,0,0,0,.13-.14l-.13-.26"/><path class="cls-1" d="M49.78,17.55a1.49,1.49,0,0,0-.13.26.13.13,0,1,0,.26,0l-.13-.26"/><path class="cls-1" d="M47.94,18.78a1.51,1.51,0,0,0-.13.26.13.13,0,1,0,.26,0l-.13-.26"/><path class="cls-1" d="M45.7,20.09a1.57,1.57,0,0,0-.13.26.13.13,0,1,0,.26,0l-.13-.26"/><path class="cls-1" d="M49.27,15.72s.1.06.18,0l.08-.24a.18.18,0,0,0-.16-.09c-.23.06-.48.08-.62.31a.46.46,0,0,0,.22.36c.08,0,.1.06.15.1a.1.1,0,0,1-.1.13c-.17-.17-.46.05-.58-.15.06-.21.17-.45,0-.64,0,0,.08-.08,0-.13-.07-.19-.28,0-.4,0a.53.53,0,0,0-.5.25.39.39,0,0,0,.11.21c.06,0,.08,0,.1.06l-.14.08a.31.31,0,0,1,.06.15c-.1,0-.19-.1-.24-.17s0-.31-.14-.33l-.12,0a.4.4,0,0,0-.06.23,1,1,0,0,0,.05.25,2.36,2.36,0,0,1,.53.51c-.12.25-.12.6-.41.74a.23.23,0,0,0-.08.22l.07.06c.18-.1.53-.12.5-.43a1.13,1.13,0,0,1,.26-.36.28.28,0,0,1,.32.15.54.54,0,0,1-.37.42s0,.07,0,.11.21.06.29,0c.24-.15.33-.43.54-.52,0,.14-.28.18-.08.32.12,0,.29,0,.37-.15-.1-.24.33-.35.07-.56,0-.21.22-.29.21-.51s-.34-.22-.41-.43a.3.3,0,0,1,.29,0"/><path class="cls-1" d="M39.18,18.25A.24.24,0,1,0,38.9,18a.26.26,0,0,0,.28.24"/><path class="cls-1" d="M24.92,26.58a.26.26,0,1,0-.27-.26.26.26,0,0,0,.27.26"/><path class="cls-1" d="M34,28.57h0Zm0,0h0l0,0h0v0h0s0,0,0,0h0l0,0h0Z"/><path class="cls-1" d="M34,28.56h0s0,0,0,0h0v0h0l0,0h0v0s0,0,0,0h0v0Z"/><path class="cls-1" d="M34.12,28.55h0l0,0h0l0,0,0,0h0l0,0h0v0h0v0h0v0h0Z"/><path class="cls-1" d="M34.15,28.58h0s0,0,0,0,0,0,0,0,0,0,0,0m0,0,0,0h0a0,0,0,0,1,0,0,0,0,0,0,1,0,0,0,0,0,0,1,0,0s0,0,0,0Z"/><path class="cls-1" d="M34.18,28.56h0s0,0,0,0h0v0h0Z"/><path class="cls-1" d="M50.47,16.78a1.74,1.74,0,0,1-.66,1.35L46,20.57h0a.47.47,0,0,1-.29.11.46.46,0,0,1-.3-.11l-3.82-2.42a1.74,1.74,0,0,1-.66-1.35V9.2h9.57Zm.29-7.85H40.61v7.75a1.86,1.86,0,0,0,.8,1.69l3.9,2.48a.47.47,0,0,0,.67,0l4-2.51a1.85,1.85,0,0,0,.8-1.69V8.93Z"/><path class="cls-1" d="M47,20.23l.12-.06-.12.06"/><path class="cls-1" d="M38.43,30.34l-.37-.57-.21.63Zm1,.48-1,.11v-.06c.18,0,.24,0,.23-.12a1.29,1.29,0,0,0-.17-.31l-.66.08a1.41,1.41,0,0,0-.09.33c0,.09.15.09.25.08V31l-.6.07V31c.16,0,.19-.13.26-.32l.5-1.43h.08L39,30.45c.16.25.22.33.36.31Z"/><path class="cls-1" d="M55.82,27.75a.83.83,0,0,1-.63.5c0-.35.34-.6.22-1a.88.88,0,0,0-.92-.29c-.13.09-.07.23-.12.37l-.06.48c-.29,0-.31-.26-.39-.47a.85.85,0,0,1,.45-.76,1,1,0,0,1,.84,0,.66.66,0,0,1,.48.31c.22.2.16.57.12.83m-1.18.15c.16-.16,0-1.08.41-.48,0,.12,0,.29-.1.38s-.19.18-.31.1m.16.37c0,.23-.2.18-.32.26h-.35a.81.81,0,0,1,0-.41,2.92,2.92,0,0,1,.71.15M55.21,30c-.12.15,0,.38-.16.51s-.22.4-.41.5c-1.73.38-3.43-.21-5.11-.5a17.83,17.83,0,0,0-7.47-.12c-1.12.2-2.21.47-3.29.78a4.76,4.76,0,0,1-2,0c-.52-.25-.31-.92-.47-1.39a7.48,7.48,0,0,0-.11-1,.86.86,0,0,1-.06-.38c.22,0,.44.19.67.25a9.08,9.08,0,0,0,3.45-.37,24.88,24.88,0,0,1,3.36-.51,21.55,21.55,0,0,1,3.9.13c.41,0,.76.12,1.15.15.81.1,1.57.32,2.4.38a4,4,0,0,0,.44.07c1.31.2,2.78.57,4,0A11,11,0,0,1,55.21,30m-7.39,1.07a1,1,0,0,1,.13.65c-.14.28-.44.28-.7.34a.46.46,0,0,1-.33-.1.15.15,0,0,0-.06-.15c0-.19-.33-.38-.07-.54s.79-.72,1-.19m.32.06c.18,0,.19.23.2.38a.78.78,0,0,1-.49.72.77.77,0,0,1-.57.06.93.93,0,0,0,.87-.5Zm.38,2a.06.06,0,0,0,0,.06,1.66,1.66,0,0,1-1-.45v-.07a2.74,2.74,0,0,1,1.06.47M48,34.48s-.09,0-.12,0a7.8,7.8,0,0,1-.92-1.76l.06,0c.35.57.63,1.2,1,1.76m-.73-.35-.07,0c-.07-.06,0-.22,0-.31.09.07.16.18.1.28m-.41-.88c0,.15.16.21.07.34a.44.44,0,0,1-.07-.34m-.09-1h0v0h0Zm-.84,2.16c-.28,0-.7.18-1-.06,0-.12-.12-.18-.1-.29.23-.09.44.19.65,0a6,6,0,0,1,1,0c.16,0,.41-.26.44,0-.12.48-.7.15-1,.29m-.64-1.74.07-.12a6.28,6.28,0,0,1-.48,1.05c-.09-.35.28-.63.41-.94m.41-.28c.19-.21.36.12.44.28.22.32.79.62.57,1.05-.28.25-.71,0-1,.21-.16,0-.44,0-.52-.13a8.57,8.57,0,0,1,.54-1.41m0-.56h-.06l.09-.09s0,.06,0,.09m.33,0c.06-.09.13-.22.23-.22s0,0,0,0a.74.74,0,0,1-.26.17m.2.22a.11.11,0,0,1,.13,0Zm.39.46s0,.07,0,.1l-.33-.26a.35.35,0,0,1,.36.16m0-.85h0v0h0Zm.61-1c-.18.06-.31.27-.48.31a.59.59,0,0,1,.48-.31m-.73-.19c0-.13.13,0,.19-.09l.45,0c-.23,0-.52.51-.64.06M45.35,31a1.65,1.65,0,0,1,.22-.54.86.86,0,0,1,.39.06c0,.29.39.69,0,.94-.13.06-.32.19-.47.06a.41.41,0,0,1-.14-.51m-.22.91c0-.06,0-.13,0-.21s.15.06.18.1a.22.22,0,0,1-.22.1m0-.67h0V31h0Zm-.17-.44c-.19,0-.29-.26-.5-.26a1.16,1.16,0,0,1,.55,0c.07.1,0,.19-.06.28M44.79,32a2.4,2.4,0,0,1,.23-.62,1.24,1.24,0,0,1-.23.62m-.32,0a3.51,3.51,0,0,1-.7-.18c-.15-.15,0-.31,0-.47a.74.74,0,0,1,1.06-.19,1.55,1.55,0,0,1-.36.84m.13.39v.06h0v-.06h.06a.09.09,0,0,0-.06,0Zm-.37.85a11.77,11.77,0,0,1-.71,1.38c0,.07-.15.09-.23.1,0-.21.2-.37.29-.54.31-.4.39-.82.74-1.2.09.09-.09.15-.09.26m-1.38-.15c.35-.15.71-.45,1.11-.32a2,2,0,0,1-1.11.32m.52-1a1.59,1.59,0,0,1,.47-1.32.85.85,0,0,1,.63,0c-.38.1-.86.19-.94.67,0,.19,0,.29,0,.46s.52.16.73.38a.19.19,0,0,1-.13.18,5.61,5.61,0,0,1-.79-.4m-6.82-4.71c0-.12,0-.29.16-.32s.26,0,.28.09a2.82,2.82,0,0,1-.07.51.33.33,0,0,1-.36-.28m0,.49c.22.16.52.09.79.13a.55.55,0,0,1-.07.5c-.25-.06-.57,0-.7-.26,0-.1,0-.25,0-.37m-.68-.42a1.06,1.06,0,0,1,.35-.73,1.23,1.23,0,0,1,1.15,0,.56.56,0,0,1,.23.28.65.65,0,0,1-.22.66h-.14a1.63,1.63,0,0,1,.09-.66c0-.18-.16-.19-.28-.26a.85.85,0,0,0-.65.15.67.67,0,0,0-.19.64c.1.16,0,.38.07.56l0,.06a.91.91,0,0,1-.36-.73m13.65,6.23a6.31,6.31,0,0,0,1.55.37c0,.2-.4,0-.36.29a3.41,3.41,0,0,1-1.31-.62s.06-.06.12,0m-9.09.23-.2-.19c.1-.13.32-.06.48-.15A2.52,2.52,0,0,1,42,33.36a3.49,3.49,0,0,1-1.51.51M56.2,27.19a1.53,1.53,0,0,0-1-.91,1.27,1.27,0,0,0-1.27.32c-.52.43-.16,1.13-.14,1.7,0,.12,0,.2-.1.26-2.11-.19-4.07-.72-6.17-.94-.48-.08-1-.06-1.42-.16l-.59-.06a24.6,24.6,0,0,0-5.34.6c-.36.12-.77.15-1.14.28-.26,0-.48.15-.73.07l-.48.11a.4.4,0,0,1-.16,0c-.23-.6.46-1,.25-1.55a1.06,1.06,0,0,0-1-.6,1.21,1.21,0,0,0-1.17.6c-.33.73.09,1.49.22,2.21,0,.23.23.5,0,.69a2,2,0,0,0-1.64-.34c-.17.09-.49,0-.58.18a4.17,4.17,0,0,0,2.12.26c.09,0,.14,0,.22,0,.06.38-.07.89.16,1.23a1.51,1.51,0,0,0,1.12.48,17.39,17.39,0,0,0,3.75-.75c.19,0,.33-.12.54-.12a10.58,10.58,0,0,1,2.07-.28,3.64,3.64,0,0,0-.61,1.32c-.17.4.31.45.45.67a11.28,11.28,0,0,0-1.19.62,16.56,16.56,0,0,0-2.59.42c0,.19.31.13.33.32s-.17.15-.28.22,0,.1.09.12.28,0,.36-.13c.29,0,.54-.09.81-.1a2.72,2.72,0,0,0,.74-.29c.31-.09.5-.29.8-.38s.83-.15,1.24-.17v.09c-.34.54-.68,1.1-1,1.61A.16.16,0,0,0,43,35a.75.75,0,0,0,.57-.09c.31-.53.58-1,.83-1.57a2.12,2.12,0,0,1,.83-1.1c.06,0,.15-.12.21,0a6.64,6.64,0,0,0-.7,1,1.24,1.24,0,0,0,.22,1.28c.18.15.44.1.67.12.57-.29,1.29.17,1.73-.38.26,0,.31.27.45.41s.51.32.76.14c0-.16-.19-.31-.28-.45-.17-.31-.39-.56-.55-.84a2.88,2.88,0,0,1-.23-.54,4.52,4.52,0,0,0,.78.31,4.78,4.78,0,0,1,.79.23,2.68,2.68,0,0,0,.73.56c.37.18.77.2,1.15.35.15,0,.36.13.47,0a.64.64,0,0,0-.22-.16c0-.19.26-.09.36-.23a.21.21,0,0,0-.17-.11c-.21-.11-.73-.15-.86-.23a3.22,3.22,0,0,1-.51-.16c-.87,0-1.35-.79-2.05-1.08.16-.15.41-.26.51-.48a.81.81,0,0,0,0-.78c-.13-.46-.71-.4-1-.65l0,0a6,6,0,0,1,1.57.2,35.3,35.3,0,0,0,4.15.75c.8,0,1.8,0,2.2-.73.07-.45.16-.91.23-1.36a6.84,6.84,0,0,0,.58-2.21"/><rect class="cls-1" x="103.42" y="0.39" width="0.6" height="45.77"/><path class="cls-1" d="M220,3.38A.33.33,0,0,0,220,4a.41.41,0,0,0,.58-.32.35.35,0,0,0-.58-.29M218.11,0c1,1.09.46,3,.68,3.06.41.15,1.42-.06,2.06.1s2.3,0,2.42.64c.27.95-3,1.12-3.45,1.83a6,6,0,0,0-.52,3.64c2,0,3.18-1.64,4.77-.71-.17.12-.33,0-.45.23a1.85,1.85,0,0,1,.61.42c-.17,0-.63-.12-.64-.06,0,.22.47.26.55.55-2.08-.62-2.6-.29-4.38.26-.66,11.4-2.94,12.65-3.19,16.26-.09,1.49-.09,3.39-.1,6a77.9,77.9,0,0,0,1.35,10,29.75,29.75,0,0,1,.51,3.06,4.17,4.17,0,0,1-.39,2.29s-1,.4-1.39-.39c-.22-1.5-.33-2.07-.67-4.64-.47-3.66-.73-5.25-1.26-7.76a73,73,0,0,1,0-8.28c-1.1,0-1.76-.36-2.38.42-.32.56-.5,3.56-.22,6.38a48.82,48.82,0,0,0,1,5.67,33.29,33.29,0,0,1,.64,5.38c0,1.6-.87,1.35-1.13,1.19-.73-.39-.83-2.94-1.51-6.77a45.86,45.86,0,0,1-1-12.46c-1.54-.29-7.45-.35-12.4-1-1.93-.24-3.41-.34-4.93-.64-2.12-.39-3.65-1.09-3.9-1.67.23-.83,2.38.09,5,.35,4.87.49,11.54,2,15-.06,2.93-1.69,3.3-4.55,4.76-7.7a77.21,77.21,0,0,0,3.41-8.66,33.49,33.49,0,0,1,.93-3.64,5.45,5.45,0,0,1-.2-1.26,4.14,4.14,0,0,1,.42-2"/><rect class="cls-2" width="224.23" height="47.63"/><path class="cls-1" d="M206,6.77a4.25,4.25,0,0,0-4.41,4.48,4.15,4.15,0,0,0,7,2.9c3.41-3.1.39-7.77-2.55-7.38m0-1.54a6.28,6.28,0,0,1,5.63,5.09c-.14,3.78-2.33,6.06-6.25,6.44-3.95,0-5.77-3.81-5.89-5.51,0-2.7,2.35-5.81,6.5-6"/><path class="cls-1" d="M116.51,35.78c0-1.68,1-2.89,3.19-2.89.46,0,.94.05,1.38.07v2a8.32,8.32,0,0,0-1-.06c-.7,0-1,.29-1,1.09v.57h1.8v1.75h-1.8V46h-2.62Z"/><path class="cls-1" d="M126,44.33c1.79,0,2.32-1.53,2.32-3s-.54-3.06-2.32-3.06-2.3,1.53-2.3,3.06.53,3,2.3,3m0-8.07a4.68,4.68,0,0,1,4.94,5,4.93,4.93,0,1,1-9.86,0,4.67,4.67,0,0,1,4.92-5"/><path class="cls-1" d="M132,36.52h2.49v1.77h0a3.37,3.37,0,0,1,3-2,2,2,0,0,1,.57.09v2.43a5,5,0,0,0-.94-.09c-1.92,0-2.58,1.38-2.58,3.06V46H132Z"/><path class="cls-1" d="M144.14,36.52h1.92v1.75h-1.92V43c0,.88.22,1.1,1.11,1.1a4,4,0,0,0,.81-.07v2a10,10,0,0,1-1.53.09c-1.6,0-3-.37-3-2.26V33.66h2.62Z"/><path class="cls-1" d="M147.28,32.89h2.62v5H150a3.35,3.35,0,0,1,2.78-1.58c2.78,0,3.48,1.57,3.48,3.92V46H153.6V40.66c0-1.57-.46-2.34-1.68-2.34-1.42,0-2,.79-2,2.72v5h-2.62Z"/><path class="cls-1" d="M163.89,40.26c-.24-1.33-.81-2-2.08-2a2.06,2.06,0,0,0-2.17,2Zm-4.26,1.66c.07,1.66.88,2.41,2.34,2.41A2.16,2.16,0,0,0,164,43.09h2.3a4.28,4.28,0,0,1-4.46,3.2,4.65,4.65,0,0,1-4.86-5,4.78,4.78,0,0,1,4.86-5c3.24,0,4.81,2.73,4.62,5.66Z"/><path class="cls-1" d="M182.33,36.52h2.49v1.77h0a3.37,3.37,0,0,1,3-2,2,2,0,0,1,.57.09v2.43a5,5,0,0,0-.94-.09c-1.92,0-2.58,1.38-2.58,3.06V46h-2.62Z"/><path class="cls-1" d="M191.91,36.52h1.92v1.75h-1.92V43c0,.88.22,1.1,1.1,1.1a4,4,0,0,0,.81-.07v2a10,10,0,0,1-1.53.09c-1.6,0-3-.37-3-2.26V33.66h2.62Z"/><path class="cls-1" d="M196.74,42.94c0,1.14,1,1.6,2,1.6.75,0,1.71-.29,1.71-1.22s-1.09-1.07-3-1.47c-1.51-.33-3-.87-3-2.54,0-2.43,2.1-3.06,4.15-3.06s4,.7,4.2,3h-2.49c-.07-1-.85-1.29-1.79-1.29-.59,0-1.46.11-1.46.88,0,.94,1.47,1.07,3,1.42s3,.9,3,2.67c0,2.5-2.18,3.31-4.35,3.31s-4.37-.83-4.48-3.35Z"/><polygon class="cls-1" points="176.91 32.81 173.93 32.81 168.91 46.04 171.86 46.04 175.38 36.07 175.42 36.07 177.08 40.92 173.65 40.92 172.88 43.09 177.84 43.09 178.84 46.04 181.86 46.04 176.91 32.81"/><path class="cls-1" d="M124.56,22.15a2.93,2.93,0,0,0-3.06-2.44c-2.63,0-3.73,2.32-3.73,4.67s1.1,4.67,3.73,4.67c1.91,0,3-1.43,3.13-3.21h2.1a5,5,0,0,1-5.22,5c-3.68,0-5.88-2.92-5.88-6.43S117.83,18,121.5,18c2.76,0,4.95,1.55,5.21,4.19Z"/><path class="cls-1" d="M134.31,26.07c0-1.53-.77-3.13-2.53-3.13s-2.53,1.6-2.53,3.13.77,3.14,2.53,3.14,2.53-1.6,2.53-3.14m-7,0c0-2.71,1.63-4.67,4.48-4.67s4.49,2,4.49,4.67-1.63,4.69-4.49,4.69-4.48-2-4.48-4.69"/><path class="cls-1" d="M144.92,30.52H143V29.28h0a3,3,0,0,1-2.53,1.48c-2.32,0-3.32-1.17-3.32-3.49V21.64h2v5.45c0,1.56.63,2.13,1.7,2.13,1.63,0,2.18-1,2.18-2.42V21.64h2Z"/><path class="cls-1" d="M146.4,21.63h1.86v1.31l0,0a3.19,3.19,0,0,1,2.77-1.58,2.81,2.81,0,0,1,3.14,3v6.1h-2V24.93c0-1.39-.58-2-1.74-2a2.17,2.17,0,0,0-2.15,2.34v5.24h-2Z"/><path class="cls-1" d="M161.67,24.61a1.88,1.88,0,0,0-2-1.67c-1,0-2.44.53-2.44,3.23,0,1.48.65,3,2.35,3a2.11,2.11,0,0,0,2.11-2h2a3.83,3.83,0,0,1-4.07,3.57c-2.78,0-4.31-2-4.31-4.59s1.46-4.78,4.38-4.78c2.06,0,3.82,1,4,3.21Z"/><path class="cls-1" d="M164.77,21.64h2v8.89h-2Zm0-3.39h2v1.86h-2Z"/><rect class="cls-1" x="168.57" y="18.25" width="1.96" height="12.27"/><path class="cls-1" d="M119.86,11.34h3.75l-1.84-5.28h0ZM120.62,4h2.28l4.73,12.27h-2.3L124.18,13h-4.9l-1.15,3.25h-2.22Z"/><path class="cls-1" d="M135.9,16.22H134V15h0a3,3,0,0,1-2.53,1.48c-2.32,0-3.32-1.17-3.32-3.49V7.34h2v5.45c0,1.57.64,2.13,1.7,2.13,1.63,0,2.18-1,2.18-2.42V7.34h2Z"/><path class="cls-1" d="M138.9,13.37c.1,1.13,1,1.55,2,1.55.74,0,2-.15,2-1.17s-1.48-1.15-2.9-1.48-2.85-.82-2.85-2.63,2.1-2.54,3.71-2.54c1.82,0,3.47.76,3.71,2.73h-2c-.17-.93-.95-1.19-1.8-1.19-.57,0-1.62.14-1.62.91,0,1,1.45,1.1,2.89,1.43s2.87.84,2.87,2.59c0,2.11-2.13,2.89-4,2.89-2.23,0-3.9-1-3.93-3.09Z"/><path class="cls-1" d="M145.91,7.34V4.67h2V7.34h1.77V8.8h-1.77v4.74c0,.81.07,1.22.94,1.22a3.34,3.34,0,0,0,.83-.07v1.51c-.43,0-.84.1-1.27.1-2,0-2.42-.79-2.46-2.27V7.34Z"/><path class="cls-1" d="M150.86,7.34h1.84V9.06h0a2.87,2.87,0,0,1,2.59-2,4.7,4.7,0,0,1,.74.05V9a6.83,6.83,0,0,0-.84-.09c-1.34,0-2.4,1.08-2.4,3v4.23h-2Z"/><rect class="cls-1" x="165.61" y="3.95" width="1.96" height="12.27"/><path class="cls-1" d="M169.4,7.34h2v8.89h-2Zm0-3.38h2V5.81h-2Z"/><path class="cls-1" d="M162.12,13.23c0,1.24-1.34,1.68-2.2,1.68-.69,0-1.8-.26-1.8-1.13,0-1,.76-1.34,1.6-1.48a7,7,0,0,0,2.41-.53Zm.15,3h1.8V9.53c-.09-1.76-1.86-2.43-3.55-2.43-2,0-3.9.67-4,3h2c.09-1,.86-1.41,2-1.41.79,0,1.84.19,1.84,1.2s-1.26,1-2.67,1.25c-1.65.19-3.42.55-3.42,2.77,0,1.73,1.44,2.59,3,2.59a4.56,4.56,0,0,0,3.08-1.08c0,.42,0,.69,0,.85"/><path class="cls-1" d="M178.46,13.22c0,1.24-1.34,1.68-2.2,1.68-.69,0-1.8-.26-1.8-1.13,0-1,.76-1.34,1.6-1.48a7,7,0,0,0,2.41-.53Zm.15,3h1.8V9.52c-.09-1.76-1.86-2.43-3.55-2.43-2,0-3.9.67-4,3h2c.09-1,.86-1.41,2-1.41.79,0,1.84.19,1.84,1.2s-1.25,1-2.66,1.25c-1.65.19-3.42.55-3.42,2.77,0,1.73,1.44,2.59,3,2.59a4.56,4.56,0,0,0,3.08-1.08c0,.42,0,.69,0,.85"/></g></g></svg>