<svg xmlns="http://www.w3.org/2000/svg" viewBox="0 0 112.92 63.83"><defs><style>.cls-1{fill:#fff;}</style></defs><title>partn-5</title><g id="Слой_2" data-name="Слой 2"><g id="Слой_1-2" data-name="Слой 1"><path class="cls-1" d="M42.75,59.84c0-1.16-.52-1.84-1.31-1.84s-1.31.67-1.31,1.84.52,1.84,1.31,1.84,1.31-.68,1.31-1.84m-3.36,0c0-1.47.83-2.41,2-2.41a2.44,2.44,0,0,1,0,4.81c-1.21,0-2-.94-2-2.41"/><path class="cls-1" d="M46.18,57.56h.65v1c.27-.77.7-1.16,1.33-1.16l.25,0v.68h-.11c-.87,0-1.43.65-1.43,1.71v2.29h-.68Z"/><path class="cls-1" d="M53,59.8c-1.23,0-1.86.36-1.86,1,0,.5.35.83.95.83a1.53,1.53,0,0,0,1.44-1.61v-.24c-.19,0-.36,0-.53,0m.53,1.47a1.71,1.71,0,0,1-1.57,1,1.42,1.42,0,0,1-1.56-1.39c0-1,.92-1.56,2.74-1.56h.39V59c0-.68-.36-1-1.14-1s-1.09.25-1.22.79l-.65-.1c.19-.82.85-1.24,2-1.24s1.69.57,1.69,1.8v2a2.87,2.87,0,0,0,.12.93h-.68a3.27,3.27,0,0,1-.11-.86"/><path class="cls-1" d="M57.11,62.12h.67V59.6A1.43,1.43,0,0,1,59.1,58c.6,0,.94.42.94,1.17v2.95h.66V59.24c0-1.19-.52-1.8-1.48-1.8a1.62,1.62,0,0,0-1.47,1v-.84h-.62Z"/><path class="cls-1" d="M64.29,59a1,1,0,0,0,2,0,1,1,0,1,0-2,0m-.38,3.54c0,.52.51.76,1.55.76s1.48-.26,1.48-.72-.34-.56-1-.59l-1.52-.08a.66.66,0,0,0-.48.63m-.31-3.5a1.6,1.6,0,0,1,1.69-1.59,2,2,0,0,1,1,.25.87.87,0,0,1,1-.79l.28,0v.51h-.23a.6.6,0,0,0-.68.53A1.64,1.64,0,0,1,67,59a1.54,1.54,0,0,1-1.74,1.51,1.87,1.87,0,0,1-.68-.12c-.31.09-.47.24-.47.44s.2.46.59.48l1.4.07c1,.05,1.51.44,1.51,1.13s-.78,1.29-2.27,1.29-2.12-.45-2.12-1.19a.94.94,0,0,1,.76-.92A.76.76,0,0,1,63.5,61c0-.36.23-.62.71-.79a1.34,1.34,0,0,1-.61-1.15"/><path class="cls-1" d="M72.79,59.4c0-.89-.51-1.4-1.24-1.4s-1.22.49-1.33,1.4Zm-1.28,2.85c-1.23,0-2-.92-2-2.41a2.13,2.13,0,0,1,2-2.41c1.22,0,2,.89,2,2.36v.1H70.21v0c0,1.11.53,1.75,1.36,1.75a1.31,1.31,0,0,0,1.25-.89l.65.12a1.94,1.94,0,0,1-2,1.35"/><path class="cls-1" d="M69.17,26c-1.24.41-1.52,1.86-2.68,1.93-.69.07-1.1-.55-1-1.58V23.47c0-2.75,1.38-5.3,2-7.91l-.34-.62a6.34,6.34,0,0,0-4.13,3,27.92,27.92,0,0,0-1.52,3.23c-.21.69-.76,1-1,1.45-1.31,2.27-5.92,8.19-3.79,6.33,6.68-5.85,4.2.55,5.92,1.45,1.93,1,4.2-.9,5.85-2.34.55-.48,1.38-2.2.76-2.06M71.86,6.27c1-.83-.28-1.44-.69-2L71,3.51A4.6,4.6,0,0,0,67.17,6c-.34.76.48,2.2,1.52,2.06a6.42,6.42,0,0,0,3.17-1.79"/><path class="cls-1" d="M94.89,27h-.23c-.22.67-1,.67-1.51.73a1.22,1.22,0,0,1-1.45-1.12c-.34-3,1-6.49.78-9.51-.06-.73.28-2.68-1-1.79-3.69,2.52-5.2,6.82-7.66,10.23h-.45a11.18,11.18,0,0,0,.06-2.74c0-1,.73-1.29.33-2.12-.17-.39.22-1.23.28-1.79.28-1.68.78-3.86-.39-4.92-.5-.39-1.29.39-1.79.84-.95.84-1.17,2-1.73,3a28,28,0,0,0-1.28,4,7.53,7.53,0,0,1-.51,1.34c-.28.67-.28,1.62-.89,2-.34.17-.5-.61-.39-1a4,4,0,0,0,.45-1.68,10.36,10.36,0,0,1,.39-2.85c.39-1.9,2-6.72,1.88-7.17-.28-1.51.06-1.55-1.07-1.69-3.05-.38-3.6,2.6-5,5.73a30,30,0,0,0-1,3.89C72.28,21.8,72,24,71.56,25.33c-.11.39-1.7,4.2-2,5.38,0,0-.81,1.7-1.76,3.94-.56,1.29-.44.07-1.16,1.41s-2.51,1.54-3,2.89-.67,2.7,1.12,2.36a2.27,2.27,0,0,0,1.74-1.16c1.06-2,.53-.48,1.31-2.78.73-2.07,1.47-2.43,2.05-4,.17-1,1.46-2.63,1.74-3.63.84-3.08,1.45-4.22,2.33-8,.26-1.12.47-4.44,1.87-4.33.9.06,0,1.9-.06,2.74s-.39,2-.56,3l.11.11c-.67,1.46-.34,3.41-1,4.87l-.34,5.26.45.51c1.68.17,2.13-1.62,3-2.63s.67-2.57,1.34-3.86a14.39,14.39,0,0,0,.5-2.13c.17-.73.56-1.29.67-2a24.39,24.39,0,0,1,1.12-4c.11-.17.39-.5.56-.34.5.62.11,1.57-.05,2.52-.23,1.4-.34,3.08-.62,4.64-.17,1.06-.78,2.63-.11,3.47a.78.78,0,0,0,1.06,0,30.74,30.74,0,0,0,4.59-6.21c1.06-1.68,1.28-3.75,3.13-4.53.45-.22.5.67.45,1.06A16.35,16.35,0,0,1,89.35,24c-.11.39,0,.56-.11,1.23-.28,1.62-.34,3.58.56,4.92.11.17.28.06.73.11a2.79,2.79,0,0,0,2.35-.73,9.5,9.5,0,0,0,2-2.52"/><path class="cls-1" d="M63.59.55c0,2.48-1.51,4.75-2.55,7-.89,1.86-2.07,3.51-3,5.37S56.16,16.17,55.74,18a2.27,2.27,0,0,1-.14.48,67.55,67.55,0,0,0-2.07,7.3,24.58,24.58,0,0,0-.76,4.61,12.64,12.64,0,0,0,.89,6.4c.34.83.69,1.65,1,2.55.62,1.65,3.51,2,2.68,3.79a1.58,1.58,0,0,1-1.51,1c-.41-.07-.55.27-.62,0-.55-1.38-1.86-2.41-1.93-3.92-.07-.83-.69-1.17-.9-1.86A7.51,7.51,0,0,1,51.34,35a54.26,54.26,0,0,0-.55-6.61c-.07-1,.27-3.17-.83-2.55-2.13,1.24-3.65,4.4-5.71,3.78-1.58-.41,2-8.16,4.53-10.29l.45-.42c1.6-1.8,4.66-2.09,5.55-5.19,1-3.37,1.51-7.09,3.65-10,.62-.9.62-1.93,1.65-2.27S63.59-1,63.59.55M52.23,19.07c-.9-1-2.07,1.24-2.82,2.2-1.31,1.72-2.89,3.37-3,5.64,0,.21.48.21.69.07a17.06,17.06,0,0,0,3.72-4.27c.76-1,2.41-2.61,1.38-3.65"/><path class="cls-1" d="M19.74,2.77c0,2.48-1.52,4.75-2.55,7-.89,1.86-2.06,3.51-3,5.37s-1.93,3.23-2.34,5.09a2.29,2.29,0,0,1-.14.48A67.79,67.79,0,0,0,9.68,28a24.66,24.66,0,0,0-.76,4.61A12.64,12.64,0,0,0,9.82,39c.34.83.69,1.65,1,2.55.62,1.65,3.51,2,2.68,3.79a1.58,1.58,0,0,1-1.52,1c-.41-.07-.55.27-.62,0-.55-1.38-1.86-2.41-1.93-3.92-.07-.83-.69-1.17-.9-1.86a7.52,7.52,0,0,1-1.1-3.37,54.26,54.26,0,0,0-.55-6.61c-.07-1,.27-3.17-.83-2.55C4,29.27,2.46,32.44.39,31.82c-1.58-.41,2-8.16,4.53-10.29l.45-.42C7,19.3,10,19,10.92,15.92c1-3.37,1.51-7.09,3.65-10,.62-.9.62-1.93,1.65-2.27s3.51-2.41,3.51-.9M8.38,21.29c-.9-1-2.07,1.24-2.82,2.2-1.31,1.72-2.89,3.37-3,5.64,0,.21.48.21.69.07A17.06,17.06,0,0,0,7,24.93c.76-1,2.41-2.61,1.38-3.65"/><path class="cls-1" d="M25.7,26.61c-1.31.44-1.6,2-2.84,2-.73.07-1.16-.58-1.09-1.67V24c0-2.91,1-4.88,1.68-7.65l-.36-.66a6.71,6.71,0,0,0-4.37,3.13,17.85,17.85,0,0,0-1.18,2.7,19,19,0,0,1-1.43,2.71,27.52,27.52,0,0,1-1.75,2.67c-.29.42-.71,1.35-1.49,1.46a3.75,3.75,0,0,1-1.36.62l-.14,1.25c.09.27,1.05,0,2.65-1.69a4.91,4.91,0,0,1,1.26-.92c3.45-1.91,1.91,2.87,3.42,3.66,2,1.09,4.44-.95,6.18-2.47.15-.13,2.17-3.48,2.89-4.31A2.38,2.38,0,0,0,28,23c.25-.56-2,3.54-2.34,3.61"/><path class="cls-1" d="M38.7,30.47c4.07-2.25,10.23-7.37,11-11.66.15-.87-2.3,1.55-2.67,2.35-.65,1.6-.65,1.09-1.75,2.4-1.53,1.89-2.84,4.73-5.46,4.88-1.38.07-1.31-2.4-.95-3.93a60.78,60.78,0,0,0,1.82-9.38c.07-.8.44-1.82-.36-2.18-1.31-.58-2.54,1.16-3.78,1.74s-2.91,2.77-3.2,1.24c-.22-1.24.58-1.89.95-3.13.14-.65,1.38-1.53.44-1.74-.51-.15-.87.58-1.38.8-4.22,2-4.29,6-4.95,9.53-.44,2-1.24,3.49-1.24,5.6,0,.95-.73,1.53-.51,2.55s-1.6,2.69-.8,2.62a2.8,2.8,0,0,0,2.33-1.53c2-3.56,2.84-7.64,5.53-10.84.73-.8.95-2.55,2.26-2,.58.29.15,1.24.07,1.89,0,.22.07.29.07.66-.07,3.49-2,8.07.95,10.48.36.29.87.07,1.6-.29"/><path class="cls-1" d="M112.59,27c.36-.29.51-1.38,0-1.38a3.9,3.9,0,0,0-1.53.58c-.95.22-2.33.29-2.69-.58-.87-2.11.44-4.22.51-6.62.08-.8,1.38-2,.44-2.18-1.53-.15-2.33,1.53-3.49,2.47v.51c-.72,1.24-1.31,2.55-2.18,3.78-1.16,1.67-2,5-4.36,4.66-.87-.15-.22-1.75,0-2.77a17,17,0,0,1,1.31-3.57c.44-.8,1.31-.87,2.33-1.09,1.74-.43,2.62-2.84,3-4.58.14-.66,0-1.75-.95-1.38a11.62,11.62,0,0,0-5.17,4.58,26.63,26.63,0,0,0-2.33,4.8c-.44,1.09-.87,2.11-1.38,3.2a6.58,6.58,0,0,0-.66,3.27c.15.8,1.24.95,2,.65,2.55-.8,3.93-3.06,5.82-4.8.29-.22.8-.58.87-.22.22,1.24.8,2.76,1.89,3.13,2.33.87,4.66-1,6.55-2.47"/><path class="cls-1" d="M28.22,8.31c1.13-1-.32-1.69-.81-2.34l-.24-.89A5.4,5.4,0,0,0,22.74,8c-.4.89.56,2.58,1.77,2.42a7.53,7.53,0,0,0,3.71-2.1"/><path class="cls-1" d="M76.32,46q-.1-.4-.6-2t-1.4-4.72a.79.79,0,0,0,0-.15.85.85,0,0,1,0-.15c0-.14.13-.22.31-.25a1.7,1.7,0,0,1,.41,0,.92.92,0,0,1,.56.24,1.49,1.49,0,0,1,.3.55l1,3.3.07.09a1.79,1.79,0,0,0,.24-.79c0-.3.05-.59.1-.87a2.46,2.46,0,0,1,.23-.77,1,1,0,0,1,.66-.48.66.66,0,0,1,.22,0,1,1,0,0,1,.23.12,1.15,1.15,0,0,1,.2.17.58.58,0,0,1,.12.2l.93,3,.19.26c0-.21.11-.54.18-1s.15-.94.22-1.44.14-1,.2-1.4.1-.73.12-.89a1.1,1.1,0,0,1,0-.12c0-.06,0-.1,0-.12a.82.82,0,0,1,.38-.23.87.87,0,0,1,.43,0l.18.08a1.14,1.14,0,0,1,.22.16.84.84,0,0,1,.16.2.38.38,0,0,1,.06.19l-1,7.08a.23.23,0,0,1-.12.16,1.09,1.09,0,0,1-.23.1,1.07,1.07,0,0,1-.26.05h-.2a1.74,1.74,0,0,1-.72-.51,4.47,4.47,0,0,1-.53-.79,8.18,8.18,0,0,1-.42-.89,6.26,6.26,0,0,0-.39-.82l-.07,0a1.09,1.09,0,0,0-.2.54c-.05.27-.1.57-.13.88s-.06.59-.09.84,0,.38,0,.41a.5.5,0,0,1-.32.38.87.87,0,0,1-.51.1.69.69,0,0,1-.42-.23,2,2,0,0,1-.28-.39"/><path class="cls-1" d="M84.73,46.15q-.17-1.72-.29-3t-.21-2.05c-.06-.55-.11-1-.15-1.32s-.07-.58-.09-.74,0-.28-.05-.34a.74.74,0,0,1,0-.1v-.07a.39.39,0,0,1,.16-.32.54.54,0,0,1,.34-.13,2.07,2.07,0,0,1,.56.09.58.58,0,0,1,.41.36,15.25,15.25,0,0,1,.22,1.71q.06.86.1,1.72t.12,1.72a11.41,11.41,0,0,0,.29,1.71.83.83,0,0,0,0,.14l.05.22c0,.08,0,.16,0,.23a1.36,1.36,0,0,1,0,.14v0a0,0,0,0,0,0,0,.63.63,0,0,1-.19.41.44.44,0,0,1-.4.17l-.25-.06-.27-.08L85,46.59l-.16-.13a.67.67,0,0,1-.13-.16.13.13,0,0,1,0-.16m-1-12.58q0-.12.2-.22a.8.8,0,0,1,.3-.1,1.41,1.41,0,0,1,.58.15.47.47,0,0,1,.32.44.71.71,0,0,1-.08.4c-.05.07-.17.1-.37.1a1.16,1.16,0,0,1-.63-.21.64.64,0,0,1-.32-.57"/><path class="cls-1" d="M92.71,46.22a3.08,3.08,0,0,1-.41-1c-.11-.41-.21-.84-.31-1.29s-.19-.9-.27-1.33a7.9,7.9,0,0,0-.25-1c-.09-.26-.18-.41-.28-.44s-.22.12-.36.47l-1.5,4.63a.74.74,0,0,1-.21.34.65.65,0,0,1-.4.1,1.15,1.15,0,0,1-.29,0,1.13,1.13,0,0,1-.29-.13.92.92,0,0,1-.23-.21.53.53,0,0,1-.11-.28,5.4,5.4,0,0,0,.09-.76q0-.55.06-1.28t0-1.53q0-.8,0-1.5t0-1.21c0-.34,0-.56,0-.67s0-.23,0-.35A1.65,1.65,0,0,1,88,38.4a.49.49,0,0,1,.16-.25.54.54,0,0,1,.35-.1.87.87,0,0,1,.61.28.81.81,0,0,1,.28.59q0,.45,0,.89c0,.29,0,.59,0,.89v.47a1.94,1.94,0,0,0,.07.47l.17-.48c.08-.23.17-.47.27-.72l.27-.72.17-.48a2.42,2.42,0,0,1,.36-.66.86.86,0,0,1,.64-.35.72.72,0,0,1,.48.14,1.41,1.41,0,0,1,.37.41,3,3,0,0,1,.26.52,4.47,4.47,0,0,1,.16.46l.93,4.3.72,2s0,0,0,.09v.11a1,1,0,0,1-.09.4.34.34,0,0,1-.34.2,1.28,1.28,0,0,1-.6-.16.93.93,0,0,1-.43-.42"/><path class="cls-1" d="M99.23,40.56a.21.21,0,0,0,.07-.21.51.51,0,0,0-.09-.24A.33.33,0,0,0,99,40c-.08,0-.15,0-.22.13l-.18.28-.26.42-.22.37c-.06.1-.07.14,0,.12Zm3.8,1.35a4,4,0,0,1-.08.48.85.85,0,0,1-.15.31,1.5,1.5,0,0,1-.29.28l-.52.41-.81.7q-.48.43-1.17,1.12l-.57.53a5,5,0,0,1-.61.49,3.55,3.55,0,0,1-.66.35,1.92,1.92,0,0,1-.72.14,1.22,1.22,0,0,1-1.09-.5A2,2,0,0,1,96,45.08c0-.29,0-.53,0-.72a6.26,6.26,0,0,1,.13-.76l-.33-.3a.46.46,0,0,1-.14-.35.32.32,0,0,1,.1-.28.55.55,0,0,1,.22-.1l.25-.06a.26.26,0,0,0,.17-.14l.13-.38.2-.58.2-.57.13-.37q.12-.29.27-.6a2.71,2.71,0,0,1,.34-.54,1.69,1.69,0,0,1,.47-.4,1.23,1.23,0,0,1,.63-.15,1,1,0,0,1,.51.19,3.5,3.5,0,0,1,.58.46,3.21,3.21,0,0,1,.47.56,1,1,0,0,1,.19.5,1,1,0,0,1-.12.47,1.78,1.78,0,0,1-.3.4,3.39,3.39,0,0,1-.39.34l-.38.29-.07,0-.09.05-.08.08-.13.13-.13.14-.08.09-.2.16-.32.24-.32.24-.2.15-.07.14a1,1,0,0,0-.06.3l-.06.53c0,.2,0,.4-.06.6s0,.36,0,.49a0,0,0,0,0,0,0l.05,0a.36.36,0,0,0,.26-.12.72.72,0,0,1,.26-.17l2.76-2.55.71-1.09a1.08,1.08,0,0,1,.33-.27,1.06,1.06,0,0,1,.51-.16.64.64,0,0,1,.46.16.88.88,0,0,1,.2.67"/><path class="cls-1" d="M107,46.15a1.2,1.2,0,0,1,0-.15.24.24,0,0,1,.08-.14c.14-.17.29-.35.46-.54l.5-.57a6.66,6.66,0,0,0,.45-.6,4.29,4.29,0,0,0,.34-.62v-.11l-2.26.47h-.26a6,6,0,0,1-.6,0,3.12,3.12,0,0,1-.69-.15,1.58,1.58,0,0,1-.57-.32.7.7,0,0,1-.23-.55,1.56,1.56,0,0,1,.41-.88,8,8,0,0,1,.93-.95q.53-.47,1.08-.86l.87-.62a3.51,3.51,0,0,1,.86-.34,3.65,3.65,0,0,1,.91-.13,1.33,1.33,0,0,1,.61.13.51.51,0,0,1,.26.51,1.54,1.54,0,0,1,0,.29c0,.09-.09.16-.21.19a2.92,2.92,0,0,0-1,.08,3.54,3.54,0,0,0-.91.39,4.84,4.84,0,0,0-.81.61q-.38.35-.74.73l-.26.34a1,1,0,0,0-.16.25v0a4.65,4.65,0,0,0,.89-.09l.88-.18.88-.18a4.66,4.66,0,0,1,.9-.09l.38,0a1.28,1.28,0,0,1,.39.11.79.79,0,0,1,.29.23.59.59,0,0,1,.11.37,1.31,1.31,0,0,1-.17.63,5.93,5.93,0,0,1-.48.72c-.21.28-.48.62-.81,1s-.72.92-1.16,1.55a.22.22,0,0,1-.16.07l-.22,0a.78.78,0,0,1-.49-.21.6.6,0,0,1-.25-.47"/></g></g></svg>