<svg xmlns="http://www.w3.org/2000/svg" viewBox="0 0 17.47 17.47"><defs><style>.cls-1{fill:#b6b8ba;}</style></defs><title>tw-icon_1</title><g id="Слой_2" data-name="Слой 2"><g id="Слой_1-2" data-name="Слой 1"><path class="cls-1" d="M8.73,0a8.73,8.73,0,1,0,8.73,8.73A8.73,8.73,0,0,0,8.73,0m4.39,7.23a5.76,5.76,0,0,1-8.86,5.12,4.07,4.07,0,0,0,3-.84A2,2,0,0,1,5.37,10.1a2,2,0,0,0,.92,0,2,2,0,0,1-1.62-2,2,2,0,0,0,.92.25A2,2,0,0,1,5,5.6,5.74,5.74,0,0,0,9.13,7.72a2,2,0,0,1,3.45-1.85,4,4,0,0,0,1.29-.49A2,2,0,0,1,13,6.5a4,4,0,0,0,1.16-.32,4.09,4.09,0,0,1-1,1"/></g></g></svg>