<svg xmlns="http://www.w3.org/2000/svg" viewBox="0 0 17.47 17.47"><defs><style>.cls-1{fill:#b6b8ba;}</style></defs><title>yb-icon</title><g id="Слой_2" data-name="Слой 2"><g id="Слой_1-2" data-name="Слой 1"><path class="cls-1" d="M17.47,8.73a8.73,8.73,0,1,0-8.73,8.73,8.73,8.73,0,0,0,8.73-8.73M7.77,3.15,7,5.63V7.33H6.39V5.63A10,10,0,0,0,6,4.31l-.4-1.16h.66l.44,1.64.43-1.64ZM9.44,6.32a1.22,1.22,0,0,1-.18.73.84.84,0,0,1-1.31,0,1.21,1.21,0,0,1-.18-.73V5.23a1.21,1.21,0,0,1,.18-.73.84.84,0,0,1,1.31,0,1.22,1.22,0,0,1,.18.73Zm2.08,1H11V7a.91.91,0,0,1-.64.38A.34.34,0,0,1,10,7.14a1.53,1.53,0,0,1-.05-.46V4.22h.56V6.5a1.3,1.3,0,0,0,0,.22c0,.09.06.13.13.13s.23-.09.36-.26V4.22h.56Zm1.82,3.77a9.92,9.92,0,0,1-.16,2.18,1.17,1.17,0,0,1-1,.91,31.1,31.1,0,0,1-3.46.13,31.12,31.12,0,0,1-3.45-.13,1.17,1.17,0,0,1-1-.91,9.87,9.87,0,0,1-.16-2.18,9.81,9.81,0,0,1,.16-2.18,1.16,1.16,0,0,1,1-.91,31.13,31.13,0,0,1,3.46-.13A31.1,31.1,0,0,1,12.19,8a1.17,1.17,0,0,1,1,.91,9.94,9.94,0,0,1,.16,2.18m-.7,1.37c0-.06,0-.18,0-.36V12h-.57a3.64,3.64,0,0,1,0,.38.24.24,0,0,1-.25.22c-.19,0-.29-.14-.29-.43v-.55h1.12V11a1.21,1.21,0,0,0-.17-.73.78.78,0,0,0-.66-.32.79.79,0,0,0-.67.32A1.19,1.19,0,0,0,11,11V12.1a1.18,1.18,0,0,0,.18.72.79.79,0,0,0,.68.31.77.77,0,0,0,.67-.33.8.8,0,0,0,.13-.33m-1.1-1.28v-.28c0-.28.09-.43.28-.43s.28.14.28.43v.28Zm-1,1.6a2.41,2.41,0,0,0,.06-.62V10.95a2.33,2.33,0,0,0-.06-.62.44.44,0,0,0-.45-.35.76.76,0,0,0-.58.33V9H8.92V13.1h.56v-.3a.76.76,0,0,0,.58.34.44.44,0,0,0,.45-.35m-.5-.58c0,.28-.08.41-.24.41a.4.4,0,0,1-.28-.14V10.62a.4.4,0,0,1,.28-.14c.16,0,.24.14.24.42Zm-2.12.88h.56V10H7.88v2.35c-.12.17-.24.26-.35.26s-.12,0-.13-.13,0-.09,0-.22V10H6.83v2.43a1.55,1.55,0,0,0,.05.46.34.34,0,0,0,.36.23.89.89,0,0,0,.64-.38ZM6.08,9.55h.67V9H4.81v.58h.66V13.1h.62ZM8.88,6.42V5.12c0-.29-.09-.43-.27-.43s-.27.14-.27.43V6.42c0,.29.09.43.27.43s.27-.14.27-.43"/></g></g></svg>